<?xml version="1.0" standalone="no"?>
<!DOCTYPE svg PUBLIC "-//W3C//DTD SVG 1.1//EN" "http://www.w3.org/Graphics/SVG/1.1/DTD/svg11.dtd" >
<svg xmlns="http://www.w3.org/2000/svg">
<metadata>
Created by FontPrep 20130207 at Wed Nov 23 14:57:31 2016
 By Tina Muller
Copyright (c) 2016 by Botio Nikoltchev. All rights reserved.
</metadata>
<defs>
<font id="abf5f34c12b64505bdcdac203d9cdba4" horiz-adv-x='1024' >
  <font-face 
    font-family="Quasimoda-Regular"
    font-weight="400"
    font-stretch="normal"
    units-per-em="2048"
    panose-1="0 0 5 0 0 0 0 0 0 0"
    ascent="1638"
    descent="-410"
    x-height="909"
    cap-height="1450"
    bbox="-1184 -561 2582 2284"
    underline-thickness="102"
    underline-position="-102"
    unicode-range="U+000D-FB02"
  />
<missing-glyph horiz-adv-x="1343" 
d="M661 406q33 0 55 -23t22 -55t-23 -54q-22 -22 -54 -22t-55 22t-22 54q0 34 22 56t55 22zM926 1012q0 -90 -28 -142q-28 -53 -92 -106t-82 -85t-19 -91l-3 -68h-96l-2 70q-2 123 107 217q66 55 87 94q22 39 22 97t-43 100q-42 42 -109 41q-139 0 -168 -144l-21 -8l-78 17
q17 104 91 164t184 60t180 -62q70 -64 70 -154zM1020 1413h-696v-1304h696v1304zM1139 1522v-1522h-934v1522h934z" />
    <glyph glyph-name="fi" unicode="fi" horiz-adv-x="1081" 
d="M760 0v909h155v-909h-155zM838 1227q-47 0 -81 33q-34 32 -34 80t34 82t81 34t81 -35q33 -35 33 -82t-34 -79t-80 -33zM371 909h227v-133h-227v-776h-156v776h-174v133h174v232q-1 213 63 299t211 86q63 0 136 -23l-11 -139l-18 -8q-52 22 -110 22t-87 -48t-28 -177v-244
z" />
    <glyph glyph-name="fl" unicode="fl" horiz-adv-x="1091" 
d="M770 0v1501h156v-1501h-156zM371 909h227v-133h-227v-776h-156v776h-174v133h174v232q-1 213 63 299t211 86q63 0 136 -23l-11 -139l-18 -8q-52 22 -110 22t-87 -48t-28 -177v-244z" />
    <glyph glyph-name=".notdef" horiz-adv-x="1343" 
d="M661 406q33 0 55 -23t22 -55t-23 -54q-22 -22 -54 -22t-55 22t-22 54q0 34 22 56t55 22zM926 1012q0 -90 -28 -142q-28 -53 -92 -106t-82 -85t-19 -91l-3 -68h-96l-2 70q-2 123 107 217q66 55 87 94q22 39 22 97t-43 100q-42 42 -109 41q-139 0 -168 -144l-21 -8l-78 17
q17 104 91 164t184 60t180 -62q70 -64 70 -154zM1020 1413h-696v-1304h696v1304zM1139 1522v-1522h-934v1522h934z" />
    <glyph glyph-name=".null" horiz-adv-x="0" 
 />
    <glyph glyph-name="nonmarkingreturn" horiz-adv-x="681" 
 />
    <glyph glyph-name="CR" unicode="&#xd;" horiz-adv-x="614" 
 />
    <glyph glyph-name="space" unicode=" " horiz-adv-x="614" 
 />
    <glyph glyph-name="exclam" unicode="!" horiz-adv-x="651" 
d="M326 -20q-51 0 -85 34t-34 84q0 49 35 84t84 35t84 -35q34 -35 34 -84t-33 -84q-34 -34 -85 -34zM250 393l-8 1057h168l-9 -1057h-151z" />
    <glyph glyph-name="quotedbl" unicode="&#x22;" horiz-adv-x="589" 
d="M377 893v557h127v-557h-127zM84 893v557h127v-557h-127z" />
    <glyph glyph-name="numbersign" unicode="#" horiz-adv-x="1398" 
d="M862 555l49 340h-374l-50 -340h375zM1296 895h-211l-49 -340h240v-156h-260l-58 -399h-174l58 399h-375l-57 -399h-174l57 399h-191v156h211l49 340h-239v156h260l57 399h174l-57 -399h375l57 399h174l-57 -399h190v-156z" />
    <glyph glyph-name="dollar" unicode="$" horiz-adv-x="1433" 
d="M795 119q98 18 158 87q61 69 61 158q0 90 -48 154t-171 125v-524zM459 1141q0 -76 44 -128t161 -112v438q-96 -12 -150 -67t-55 -131zM1190 369q0 -156 -111 -270t-284 -132v-147h-131v145q-143 12 -247 84q-103 72 -181 215l122 84l35 -8q109 -197 271 -223v585
q-209 86 -295 188t-86 243q0 143 101 241t280 113v145h131v-147q229 -29 338 -221l-119 -82l-35 8q-78 121 -184 143v-495q233 -106 314 -210t81 -259z" />
    <glyph glyph-name="percent" unicode="%" horiz-adv-x="1886" 
d="M1382 102q94 0 158 66q63 66 64 162q0 96 -64 162t-158 66t-157 -66t-63 -162t62 -162q64 -66 158 -66zM1382 -29q-152 -1 -256 103t-104 256t104 255t256 103t256 -103t104 -255t-104 -256t-256 -103zM504 893q94 0 158 65q63 66 63 162t-63 162q-64 66 -158 66
t-158 -66t-63 -162q0 -96 63 -162q64 -65 158 -65zM420 0l878 1450h168l-878 -1450h-168zM504 762q-152 0 -256 103t-105 255q1 152 105 255t256 103t256 -102q104 -104 104 -256t-104 -255t-256 -103z" />
    <glyph glyph-name="ampersand" unicode="&#x26;" horiz-adv-x="1357" 
d="M565 106q195 0 336 160l-407 414q-117 -63 -169 -136q-53 -72 -51 -180t83 -183t208 -75zM573 1356q-92 0 -147 -54t-55 -143q0 -131 161 -303q135 76 191 150q55 74 55 158t-56 139q-57 53 -149 53zM563 -39q-199 0 -325 117t-127 299q-2 250 282 405q-178 180 -178 369
q0 152 98 245t257 93t261 -89t103 -226q0 -266 -299 -420l354 -361q86 160 117 379l16 12h152q-57 -305 -176 -501l280 -283h-213l-157 160q-178 -199 -445 -199z" />
    <glyph glyph-name="quotesingle" unicode="'" horiz-adv-x="305" 
d="M94 893v557h127v-557h-127z" />
    <glyph glyph-name="parenleft" unicode="(" horiz-adv-x="624" 
d="M72 590q0 246 80 490t219 429l121 -77q-127 -180 -198 -402t-71 -440q0 -219 71 -440t198 -402l-121 -78q-139 184 -219 429t-80 491z" />
    <glyph glyph-name="parenright" unicode=")" horiz-adv-x="686" 
d="M553 590q0 -246 -80 -491t-219 -429l-121 78q127 180 198 402t70 440q0 219 -70 440q-71 221 -198 402l121 77q139 -184 219 -429q80 -244 80 -490z" />
    <glyph glyph-name="asterisk" unicode="*" horiz-adv-x="811" 
d="M203 731l-72 55l-2 23l184 235l-284 86l-9 21l31 86l21 10l278 -98l-6 287l16 14h91l16 -14l-6 -287l278 98l21 -10l31 -86l-9 -21l-284 -86l184 -235l-2 -23l-72 -55h-22l-180 252l-181 -252h-22z" />
    <glyph glyph-name="plus" unicode="+" horiz-adv-x="1433" 
d="M1270 682v-123h-492v-491h-123v491h-491v123h491v492h123v-492h492z" />
    <glyph glyph-name="comma" unicode="," horiz-adv-x="577" 
d="M197 -336l-115 45l188 533l21 8l153 -62z" />
    <glyph glyph-name="hyphen" unicode="-" horiz-adv-x="655" 
d="M94 387v137h467v-137h-467z" />
    <glyph glyph-name="period" unicode="." horiz-adv-x="569" 
d="M285 -20q-49 0 -84 34t-35 84q0 49 35 84t84 35t84 -35t35 -84t-35 -84q-35 -34 -84 -34z" />
    <glyph glyph-name="slash" unicode="/" horiz-adv-x="776" 
d="M756 1450l-572 -1448h-164l574 1448h162z" />
    <glyph glyph-name="zero" unicode="0" horiz-adv-x="1282" 
d="M641 117q158 0 247 163q89 162 89 448t-89 446t-247 160t-247 -160t-89 -446t89 -448t247 -163zM641 -39q-238 0 -374 204t-136 561t136 560t374 203t374 -203t136 -560t-136 -561t-374 -204z" />
    <glyph glyph-name="one" unicode="1" horiz-adv-x="710" 
d="M340 0v1100q0 96 2 141l-4 2q-35 -23 -105 -63l-180 -103l-16 6l16 181l420 213h37v-1477h-170z" />
    <glyph glyph-name="two" unicode="2" horiz-adv-x="1054" 
d="M31 0v37l317 325q436 449 436 705q0 131 -68 201q-69 70 -192 69q-260 0 -315 -282l-35 -19l-129 21q29 213 157 323t324 109q196 0 315 -110q118 -110 117 -289q0 -307 -362 -689l-131 -137q-47 -49 -109 -108l2 -2q70 2 197 2h385v-156h-909z" />
    <glyph glyph-name="three" unicode="3" horiz-adv-x="1110" 
d="M1012 397q0 -193 -128 -315t-333 -121q-205 0 -333 110t-150 306l131 20l34 -16q13 -123 101 -196t219 -73t209 78q78 76 78 205q0 291 -328 291h-51v139h47q307 0 307 273q0 108 -72 174q-71 66 -189 66t-193 -64q-75 -63 -97 -180l-35 -15l-131 19q25 180 149 285
q123 105 313 105t310 -104t119 -272q1 -131 -67 -228t-189 -130q129 -23 204 -120t75 -237z" />
    <glyph glyph-name="four" unicode="4" horiz-adv-x="1169" 
d="M770 467v315q0 240 27 377h-4q-61 -113 -105 -170l-387 -522h469zM770 0v311h-733v58l823 1108h80v-1010h172v-156h-172v-311h-170z" />
    <glyph glyph-name="five" unicode="5" horiz-adv-x="1136" 
d="M562 -39q-210 1 -337 105t-147 284l135 23l35 -21q16 -115 96 -177t218 -62t224 94t86 248q0 153 -90 243t-256 90t-311 -110l-45 12l47 760h721v-156h-571l-27 -420q123 53 260 54q197 0 321 -127q123 -127 123 -341t-136 -356t-346 -143z" />
    <glyph glyph-name="six" unicode="6" horiz-adv-x="1159" 
d="M883 434q0 144 -83 232t-224 88q-142 0 -224 -87t-82 -235t84 -236q84 -87 223 -87q138 0 222 90t84 235zM1055 435q-1 -210 -135 -342t-352 -132t-344 129t-126 350q0 123 61 254q60 131 220 357l317 446l131 -76l4 -24l-204 -275q-125 -168 -240 -295l4 -2
q111 72 236 72q190 0 309 -126t119 -336z" />
    <glyph glyph-name="seven" unicode="7" horiz-adv-x="935" 
d="M12 1294v156h928v-37l-692 -1450l-37 -4l-115 53l615 1282h-699z" />
    <glyph glyph-name="eight" unicode="8" horiz-adv-x="1110" 
d="M555 106q145 0 226 78t81 215t-82 218t-225 81t-225 -81t-82 -218t81 -215t226 -78zM553 864q123 0 189 65t67 179q0 114 -69 182q-70 66 -188 66t-186 -67t-69 -181q1 -114 67 -180q66 -64 189 -64zM555 -39q-227 0 -352 115t-125 309q0 145 78 247t217 142
q-242 82 -242 344q0 164 114 267q115 103 311 103t310 -102q114 -104 113 -268q0 -262 -242 -344q139 -39 217 -141t78 -248q0 -195 -125 -309t-352 -115z" />
    <glyph glyph-name="nine" unicode="9" horiz-adv-x="1159" 
d="M585 1343q-137 0 -223 -89q-86 -90 -86 -236t84 -233t226 -87q141 0 222 89t81 235t-83 233q-83 88 -221 88zM535 555q-190 0 -311 127q-120 127 -120 338t132 341t355 130q222 0 347 -129t125 -348q0 -140 -68 -274t-215 -339l-317 -446l-131 76l-4 24l204 275
q137 180 240 295l-4 2q-109 -72 -233 -72z" />
    <glyph glyph-name="colon" unicode=":" horiz-adv-x="651" 
d="M326 -20q-49 0 -84 34t-35 84q0 49 35 84t84 35t84 -35q34 -35 34 -84t-34 -84q-35 -34 -84 -34zM326 653q-49 0 -84 35t-35 84t35 84t84 35t84 -35q34 -35 34 -84t-34 -84t-84 -35z" />
    <glyph glyph-name="semicolon" unicode=";" horiz-adv-x="729" 
d="M242 -336l-115 45l188 533l21 8l153 -62zM403 653q-51 0 -85 35t-33 84q0 49 34 84q35 35 84 35t84 -35t35 -84t-34 -84t-85 -35z" />
    <glyph glyph-name="less" unicode="&#x3c;" horiz-adv-x="1433" 
d="M1249 1155v-125l-895 -409l895 -410v-125l-1065 487v95z" />
    <glyph glyph-name="equal" unicode="=" horiz-adv-x="1433" 
d="M164 365v122h1106v-122h-1106zM164 754v123h1106v-123h-1106z" />
    <glyph glyph-name="greater" unicode="&#x3e;" horiz-adv-x="1433" 
d="M184 1155l1065 -487v-95l-1065 -487v125l895 410l-895 409v125z" />
    <glyph glyph-name="question" unicode="?" horiz-adv-x="1067" 
d="M500 -20q-49 0 -84 34t-35 84q0 49 35 84t84 35t84 -35q34 -35 34 -84t-34 -84q-35 -34 -84 -34zM526 1489q170 0 276 -96q106 -95 105 -233q0 -138 -42 -222t-141 -166t-127 -131t-30 -141l-2 -107h-151l-2 109q-2 190 166 336q100 86 133 147t33 151t-63 151
q-62 60 -163 61q-217 0 -258 -218l-33 -12l-129 23q31 164 145 256q113 92 283 92z" />
    <glyph glyph-name="at" unicode="@" horiz-adv-x="1851" 
d="M850 182q114 0 192 104t78 255q0 102 -48 159q-48 58 -145 58t-172 -104t-75 -255q0 -97 47 -157t123 -60zM942 -352q-375 0 -600 223t-225 587t237 600q238 236 589 236t568 -196t218 -512q0 -232 -120 -380t-311 -149q-84 0 -138 46t-54 120q-39 -74 -114 -120
t-156 -46q-138 1 -224 97t-86 256q0 203 121 340t299 137q74 0 136 -38t89 -101l21 98h133l-76 -387q-27 -129 -26 -170q0 -107 106 -107t179 112t73 273q0 274 -171 433t-466 159q-295 -1 -486 -197q-192 -196 -192 -506t188 -494t504 -179q138 2 230 21t205 71l14 -4
l53 -111q-190 -112 -518 -112z" />
    <glyph glyph-name="A" unicode="A" horiz-adv-x="1363" 
d="M389 528h584q-191 461 -291 711h-4zM1192 0l-158 383h-704l-158 -383h-182l626 1450h136l622 -1450h-182z" />
    <glyph glyph-name="B" unicode="B" horiz-adv-x="1206" 
d="M350 152h191q215 0 308 62t93 198t-91 202t-286 66h-215v-528zM350 817h205q317 0 317 250q0 117 -81.5 174t-260.5 57h-180v-481zM180 0v1450h361q498 0 497 -377q0 -106 -58 -187t-161 -112v-8q133 -27 214 -121t81 -231q0 -209 -138 -311.5t-429 -102.5h-367z" />
    <glyph glyph-name="C" unicode="C" horiz-adv-x="1622" 
d="M864 -39q-328 0 -540.5 217t-212.5 547t214 547t537 217q453 0 664 -391l-117 -82l-35 8q-172 305 -510 305q-248 0 -411.5 -172t-163.5 -431t166 -432t411 -173q184 0 308 71.5t212 229.5l35 8l113 -82q-228 -387 -670 -387z" />
    <glyph glyph-name="D" unicode="D" horiz-adv-x="1513" 
d="M350 158h195q346 0 513 141t167 433t-164 426t-516 134h-195v-1134zM180 0v1450h391q410 0 621 -183.5t211 -533.5t-218 -541.5t-614 -191.5h-391z" />
    <glyph glyph-name="E" unicode="E" horiz-adv-x="1165" 
d="M180 1450h834l18 -156h-682v-473h633v-155h-633v-510h682l-18 -156h-834v1450z" />
    <glyph glyph-name="F" unicode="F" horiz-adv-x="1091" 
d="M180 1450h801l18 -156h-649v-473h608v-155h-608v-666h-170v1450z" />
    <glyph glyph-name="G" unicode="G" horiz-adv-x="1720" 
d="M875 -39q-345 0 -554.5 215t-209.5 547t215 549t544 217q457 0 678 -379l-116 -82l-35 8q-96 152 -220 222.5t-305 70.5q-254 0 -418.5 -172t-164.5 -433t160.5 -432t394 -171t392.5 120.5t167 342.5v12h-440v147h593v-743h-159v94q0 76 16 131l-4 2q-189 -266 -534 -266
z" />
    <glyph glyph-name="H" unicode="H" horiz-adv-x="1503" 
d="M180 0v1450h170v-637h803v637h170v-1450h-170v657h-803v-657h-170z" />
    <glyph glyph-name="I" unicode="I" horiz-adv-x="530" 
d="M180 1450h170v-1450h-170v1450z" />
    <glyph glyph-name="J" unicode="J" horiz-adv-x="980" 
d="M418 115q106 0 164.5 82t58.5 235v1018h170v-1026q0 -215 -101.5 -338t-267.5 -123t-267 75t-134 212l125 59l31 -8q51 -186 221 -186z" />
    <glyph glyph-name="K" unicode="K" horiz-adv-x="1249" 
d="M350 0h-170v1450h170v-793h2l324 367l366 426h207l-549 -631l580 -819h-209l-483 692l-238 -264v-428z" />
    <glyph glyph-name="L" unicode="L" horiz-adv-x="1056" 
d="M180 1450h170v-1294h686l-18 -156h-838v1450z" />
    <glyph glyph-name="M" unicode="M" horiz-adv-x="1830" 
d="M1651 1450v-1450h-168v1229h-4l-545 -1067h-37l-545 1067h-4v-1229h-168v1450h234l501 -993h5l497 993h234z" />
    <glyph glyph-name="N" unicode="N" horiz-adv-x="1587" 
d="M180 0v1450h109l657 -745q205 -236 287 -328h6v1073h168v-1479h-35l-1018 1151h-6v-1122h-168z" />
    <glyph glyph-name="O" unicode="O" horiz-adv-x="1765" 
d="M883 121q258 0 426 174t168 431t-167 430t-427 173t-427 -173t-167 -430t168 -431t426 -174zM883 -39q-334 0 -553 219t-219 545t217 545t555 219t555 -219t217 -545t-219 -545t-553 -219z" />
    <glyph glyph-name="P" unicode="P" horiz-adv-x="1136" 
d="M350 770h193q182 0 266 62.5t84 201.5t-84 201.5t-266 62.5h-193v-528zM180 0v1450h404q236 0 358.5 -106.5t122.5 -307.5t-127 -309.5t-356 -108.5h-232v-618h-170z" />
    <glyph glyph-name="Q" unicode="Q" horiz-adv-x="1777" 
d="M289 726q0 -257 171 -431t429 -174t429 174t171 431t-170 430t-430 173t-430 -173t-170 -430zM111 735.5q0 313.5 221 533.5t557 220t557 -220t221 -544q0 -256 -148.5 -451.5t-392.5 -269.5v-6q223 -61 447 -98l16 -17l-51 -141q-395 92 -729 223q-303 27 -500.5 242
t-197.5 528.5z" />
    <glyph glyph-name="R" unicode="R" horiz-adv-x="1228" 
d="M350 1296v-505h205q182 0 264 57t82 194t-82 195.5t-264 58.5h-205zM350 639v-639h-170v1448h418q231 0 353 -102.5t122 -307.5q0 -143 -78 -240t-225 -134l459 -631l-15 -33h-172l-452 639h-240z" />
    <glyph glyph-name="S" unicode="S" horiz-adv-x="1159" 
d="M613.5 -37q-185.5 0 -305.5 70.5t-206 230.5l123 84l35 -8q68 -123 146.5 -175t196.5 -52t198 72.5t80 177t-70 178t-274.5 158.5t-295.5 187.5t-91 251t115.5 250t314.5 101.5q291 0 415 -225l-118 -82l-35 8q-96 152 -267 151q-117 0 -183 -57t-66 -145t63.5 -148.5
t278.5 -159t302 -203t87 -267t-129 -280.5t-314.5 -118z" />
    <glyph glyph-name="T" unicode="T" horiz-adv-x="1210" 
d="M520 1294h-500v156h1170v-156h-500v-1294h-170v1294z" />
    <glyph glyph-name="U" unicode="U" horiz-adv-x="1486" 
d="M743 -39q-573 0 -573 598v891h170v-877q0 -233 97.5 -342.5t306 -109.5t306 109.5t97.5 344.5v875h170v-889q0 -289 -147.5 -444.5t-426.5 -155.5z" />
    <glyph glyph-name="V" unicode="V" horiz-adv-x="1349" 
d="M668 -29l-637 1479h184l467 -1116h8l465 1116h184l-634 -1479h-37z" />
    <glyph glyph-name="W" unicode="W" horiz-adv-x="1945" 
d="M487 -29l-456 1479h182l334 -1116h8q68 182 121 334l274 768h45l275 -768q53 -152 121 -334h8l334 1116h182l-457 -1479h-100l-279 781q-33 94 -102 282h-8q-53 -154 -101 -280l-280 -783h-101z" />
    <glyph glyph-name="X" unicode="X" horiz-adv-x="1224" 
d="M6 0l504 768l-475 682h213l362 -551l363 551h196l-471 -694l521 -756h-205l-412 623l-397 -623h-199z" />
    <glyph glyph-name="Y" unicode="Y" horiz-adv-x="1185" 
d="M508 0v596l-508 854h186l230 -410q27 -49 174 -295h8q141 236 172 293l229 412h187l-508 -854v-596h-170z" />
    <glyph glyph-name="Z" unicode="Z" horiz-adv-x="1292" 
d="M84 1294v156h1178v-37l-936 -1251h903v-162h-1198v37l940 1257h-887z" />
    <glyph glyph-name="bracketleft" unicode="[" horiz-adv-x="628" 
d="M123 -330v1839h352v-127h-201v-1585h201v-127h-352z" />
    <glyph glyph-name="backslash" unicode="\" horiz-adv-x="776" 
d="M20 1450h162l574 -1448h-164z" />
    <glyph glyph-name="bracketright" unicode="]" horiz-adv-x="624" 
d="M502 -330h-352v127h200v1585h-200v127h352v-1839z" />
    <glyph glyph-name="asciicircum" unicode="^" horiz-adv-x="1282" 
d="M123 557l469 893h98l469 -893h-184l-334 684l-334 -684h-184z" />
    <glyph glyph-name="underscore" unicode="_" horiz-adv-x="1024" 
d="M1024 -272h-1024v122h1024v-122z" />
    <glyph glyph-name="grave" unicode="`" horiz-adv-x="528" 
d="M467 1094h-127l-279 362l9 14h172z" />
    <glyph glyph-name="a" unicode="a" horiz-adv-x="987" 
d="M260 215q0 -121 143 -121t252 113v225q-215 -35 -305 -86t-90 -131zM362 -39q-121 0 -193.5 68.5t-72.5 181.5q0 266 559 340v57q0 199 -163 199q-156 0 -265 -160l-16 -2l-109 72q63 106 170 168.5t241 62.5t216 -80t82 -225v-487q0 -30 10 -42q22 -25 97 3l16 -8v-121
q-70 -20 -129 -21q-133 0 -143 133q-139 -139 -300 -139z" />
    <glyph glyph-name="b" unicode="b" horiz-adv-x="1183" 
d="M628 106q140 0 220 95.5t80 258.5t-78 253t-216 90t-228.5 -99.5t-90.5 -253t86.5 -249t226.5 -95.5zM655 -39q-102 0 -195 53.5t-145 143.5v-158h-149v1501h156v-753q125 201 346 200q190 0 308 -134t118 -352t-124.5 -359.5t-314.5 -141.5z" />
    <glyph glyph-name="c" unicode="c" horiz-adv-x="1067" 
d="M555 -39q-211 0 -338 136q-127 135 -127 355t130 358t335 138q283 0 422 -246l-115 -77l-16 4q-113 178 -289 178q-133 0 -218 -95.5t-85 -255.5t85 -257t220 -97q182 0 291 181l16 4l113 -76q-139 -250 -424 -250z" />
    <glyph glyph-name="d" unicode="d" horiz-adv-x="1183" 
d="M552 106q142 0 229 95.5t87 249.5t-89 253t-225 99t-218 -94.5t-82 -256t78 -254t220 -92.5zM520 -39q-195 0 -312.5 134t-117.5 354.5t125 359.5t307 139q104 0 194.5 -52t145.5 -148v753h156v-1501h-150v158q-51 -90 -146.5 -143.5t-201.5 -53.5z" />
    <glyph glyph-name="e" unicode="e" horiz-adv-x="1081" 
d="M549 809q-115 0 -190.5 -67.5t-94.5 -188.5h553q-8 119 -80.5 187.5t-187.5 68.5zM258 426v-8q0 -143 86 -229.5t219 -86.5q168 0 279 170l16 4l113 -75q-141 -240 -414 -240q-207 0 -336 136t-129 357.5t127 357.5t327 136t318.5 -129t118.5 -358q0 -19 -2 -35h-723z
" />
    <glyph glyph-name="f" unicode="f" horiz-adv-x="593" 
d="M371 1153v-244h227v-133h-227v-776h-156v776h-174v133h174v232q0 213 63.5 299t210.5 86q63 0 136 -23l-11 -139l-18 -8q-51 23 -109.5 22.5t-87 -48.5t-28.5 -177z" />
    <glyph glyph-name="g" unicode="g" horiz-adv-x="1021" 
d="M508 -338q301 0 301 168q0 131 -303 160q-43 4 -86 10q-225 -43 -225 -166q0 -76 87 -124t226 -48zM497.5 424q110.5 0 175 52t64.5 142.5t-65.5 143.5t-174 53t-174 -53t-65.5 -143.5t64.5 -142.5t175 -52zM504 -471q-219 0 -347 80t-128 217q0 78 57 137.5t158 89.5
q-86 45 -86 121q0 106 164 150q-100 33 -160 113.5t-60 183.5q0 143 113 235t285 92q102 0 190 -39h285l4 -116l-18 -17l-123 12q55 -82 55 -193.5t-86 -193.5t-232.5 -99t-203 -39.5t-56.5 -56.5q1 -34 49 -52t227 -40q382 -48 382 -282q0 -141 -125 -222t-344 -81z" />
    <glyph glyph-name="h" unicode="h" horiz-adv-x="1163" 
d="M166 1501h156v-753q119 201 331 200q164 0 254 -93t90 -267v-588h-155v520q0 147 -56.5 215t-180.5 68t-203.5 -97.5t-79.5 -250.5v-455h-156v1501z" />
    <glyph glyph-name="i" unicode="i" horiz-adv-x="487" 
d="M166 0v909h156v-909h-156zM244 1227q-47 0 -81 32.5t-34 80.5t34 82t81 34t80.5 -35t33.5 -82t-33.5 -79.5t-80.5 -32.5z" />
    <glyph glyph-name="j" unicode="j" horiz-adv-x="487" 
d="M43 -471q-66 0 -121 22l19 132l16 8q39 -14 76 -15q73 0 103 46t30 159v1028h156v-1048q0 -332 -279 -332zM244 1227q-47 0 -81 33q-34 32 -34 80t34 82t81 34t81 -35q33 -35 33 -82t-34 -79t-80 -33z" />
    <glyph glyph-name="k" unicode="k" horiz-adv-x="1009" 
d="M322 0h-156v1501h156v-1003q82 78 243 239l174 172h209l-375 -350l431 -559h-193l-344 461l-145 -135v-326z" />
    <glyph glyph-name="l" unicode="l" horiz-adv-x="487" 
d="M166 0v1501h156v-1501h-156z" />
    <glyph glyph-name="m" unicode="m" horiz-adv-x="1757" 
d="M1268 948q152 0 237.5 -94t85.5 -266v-588h-155v518q0 285 -215 285q-115 0 -190 -102.5t-75 -260.5v-440h-155v518q0 285 -215 285q-115 0 -189.5 -102.5t-74.5 -260.5v-440h-156v909h156v-161q115 201 311 200q238 0 297 -231q55 115 145.5 173t192.5 58z" />
    <glyph glyph-name="n" unicode="n" horiz-adv-x="1163" 
d="M166 909h156v-161q119 201 331 200q164 0 254 -93t90 -267v-588h-155v520q0 147 -56.5 215t-180.5 68t-203.5 -97.5t-79.5 -250.5v-455h-156v909z" />
    <glyph glyph-name="o" unicode="o" horiz-adv-x="1175" 
d="M588 106q142 0 238 102t96 248t-96.5 246.5t-238 100.5t-237.5 -100.5t-96 -246.5t96 -248t238 -102zM588 -39q-211 0 -354.5 142.5t-143.5 351.5t142.5 351t355.5 142t355 -142t142 -351t-143 -351.5t-354 -142.5z" />
    <glyph glyph-name="p" unicode="p" horiz-adv-x="1183" 
d="M628 106q140 0 220 95.5t80 258.5t-78 253t-216 90t-228.5 -99.5t-90.5 -253t86.5 -249t226.5 -95.5zM166 -446v1355h156v-161q125 201 346 200q190 0 308 -134t118 -352t-124 -359.5t-315 -141.5q-100 0 -191 51t-142 138v-596h-156z" />
    <glyph glyph-name="q" unicode="q" horiz-adv-x="1183" 
d="M552 106q142 0 229 95.5t87 249.5t-89 253t-225 99t-218 -94.5t-82 -256t78 -254t220 -92.5zM862 -446v593q-53 -84 -145 -135t-197 -51q-195 0 -312.5 135t-117.5 354.5t124 358.5t308 139q104 0 194.5 -52t145.5 -148v161h156v-1355h-156z" />
    <glyph glyph-name="r" unicode="r" horiz-adv-x="806" 
d="M166 0v909h139v-184q111 223 297 223q135 0 189 -145l-134 -78l-16 4q-33 74 -111 74t-143 -103.5t-65 -273.5v-426h-156z" />
    <glyph glyph-name="s" unicode="s" horiz-adv-x="858" 
d="M432 -39q-254 0 -364 199l122 84l11 -2q80 -145 235 -146q82 0 131 35t49 89t-42 92t-192 92t-215 122t-65 170t87 177t219 75t218.5 -52t123.5 -140l-107 -74l-16 2q-57 129 -209 129q-74 0 -116 -32.5t-42 -80.5t40 -84t192 -94t217 -124t65 -176t-95 -185.5
t-247 -75.5z" />
    <glyph glyph-name="t" unicode="t" horiz-adv-x="702" 
d="M449.5 -39q-105.5 0 -175 70.5t-69.5 199.5v545h-174v133h174v287l135 82h20v-369h273v-133h-273v-497q0 -96 30 -134.5t94.5 -38.5t127.5 29l17 -8l6 -137q-80 -29 -185.5 -29z" />
    <glyph glyph-name="u" unicode="u" horiz-adv-x="1136" 
d="M971 0h-156v158q-55 -94 -141 -145.5t-180 -51.5q-156 0 -242 95.5t-86 273.5v579h156v-528q0 -274 219 -275q119 0 196.5 96.5t77.5 252.5v454h156v-909z" />
    <glyph glyph-name="v" unicode="v" horiz-adv-x="923" 
d="M453 -33l-437 942h172l275 -628h4l272 628h168l-434 -942h-20z" />
    <glyph glyph-name="w" unicode="w" horiz-adv-x="1388" 
d="M375 -33l-334 942h166l207 -630h4l260 618h37l256 -618h4l211 630h162l-334 -942h-45l-273 627h-4l-272 -627h-45z" />
    <glyph glyph-name="x" unicode="x" horiz-adv-x="940" 
d="M27 0l352 471l-342 438h194l236 -323h4q43 59 76 102l164 221h192l-344 -438l354 -471h-194l-178 250q-41 57 -70 102h-4l-250 -352h-190z" />
    <glyph glyph-name="y" unicode="y" horiz-adv-x="950" 
d="M137 -446l260 536l-368 819h178l270 -651h4l281 651h176l-625 -1355h-176z" />
    <glyph glyph-name="z" unicode="z" horiz-adv-x="919" 
d="M80 772v137h782v-20l-540 -752h536v-137h-797v20l539 752h-520z" />
    <glyph glyph-name="braceleft" unicode="{" horiz-adv-x="679" 
d="M10 651h15q75 -1 115 59t40 169v374q0 121 62 189t176 67h129v-127h-98q-117 0 -117 -170v-346q0 -120 -52 -192t-130 -82v-4q78 -10 130 -83t52 -192v-346q0 -170 117 -170h98v-127h-129q-113 0 -175 68t-63 188v375q0 109 -41 168t-114 59h-15v123z" />
    <glyph glyph-name="bar" unicode="|" horiz-adv-x="468" 
d="M160 -528v2111h149v-2111h-149z" />
    <glyph glyph-name="braceright" unicode="}" horiz-adv-x="679" 
d="M670 651v-123h-15q-75 0 -115 -59t-40 -168v-375q0 -120 -62 -188t-176 -68h-129v127h98q117 0 117 170v346q0 119 52 192t130 83v4q-78 10 -130 83t-52 191v346q0 170 -117 170h-98v127h129q113 1 175 -67t63 -189v-374q0 -109 41 -168t114 -60h15z" />
    <glyph glyph-name="asciitilde" unicode="~" horiz-adv-x="1433" 
d="M485 754q72 0 140 -24q67 -24 109 -52q112 -74 217 -74q104 0 194 141l16 3l88 -62q-137 -209 -301 -209q-90 0 -169 38t-149 75t-138 37q-113 0 -203 -142l-17 -2l-88 62q137 209 301 209z" />
    <glyph glyph-name="uni00A0" unicode="&#xa0;" horiz-adv-x="614" 
 />
    <glyph glyph-name="exclamdown" unicode="&#xa1;" horiz-adv-x="651" 
d="M250 535h151l9 -1057h-168zM326 948q51 0 85 -35q33 -35 33 -84t-34 -84t-84 -35q-49 0 -84 36q-35 34 -35 83t34 84t85 35z" />
    <glyph glyph-name="cent" unicode="&#xa2;" horiz-adv-x="1433" 
d="M432 456q0 -138 62 -230t168 -115v688q-104 -23 -167 -114t-63 -229zM793 -180h-131v145q-182 23 -290 155t-108 333t110 335t288 156v148h131v-148q238 -27 358 -242l-115 -77l-16 4q-94 150 -227 174v-697q141 25 231 177l16 4l113 -76q-125 -221 -360 -246v-145z" />
    <glyph glyph-name="sterling" unicode="&#xa3;" horiz-adv-x="1433" 
d="M862 1339q-111 0 -173 -91t-62 -257v-182h323v-131h-323v-197q0 -213 -74 -325h651l-20 -156h-934v156h141q68 92 68 276v246h-197v131h197v192q0 233 107 361q108 127 314 127t324 -123l-92 -123l-16 4q-88 92 -234 92z" />
    <glyph glyph-name="currency" unicode="&#xa4;" horiz-adv-x="1433" 
d="M717 276q145 0 239 100t94 256q0 155 -94 254t-240 99t-240 -99t-93 -254q1 -156 95 -256t239 -100zM207 628q0 182 98 316l-182 184l92 95l182 -185q139 106 321 106t314 -108l185 187l92 -95l-185 -186q100 -133 100 -314t-106 -317l191 -192l-92 -94l-193 194
q-135 -102 -309 -102t-307 100l-193 -192l-92 94l190 192q-106 135 -106 317z" />
    <glyph glyph-name="yen" unicode="&#xa5;" horiz-adv-x="1433" 
d="M1124 782v-131h-323v-194h323v-131h-323v-326h-170v326h-324v131h324v194h-324v131h275l-459 668h186l404 -623h8l401 623h187l-459 -668h274z" />
    <glyph glyph-name="brokenbar" unicode="&#xa6;" horiz-adv-x="468" 
d="M160 -528v903h149v-903h-149zM160 682v901h149v-901h-149z" />
    <glyph glyph-name="section" unicode="&#xa7;" horiz-adv-x="1142" 
d="M817 572q0 70 -40 120q-40 49 -144 92l-135 58q-70 -12 -115 -64t-45 -116q0 -66 36 -106t138 -89l170 -82q59 17 97 67t38 120zM942 70q0 -158 -108 -248q-108 -92 -268 -92t-269 61t-154 174l131 72l17 -6q68 -166 262 -166q102 0 165 51q62 51 62 137q0 123 -143 193
l-260 125q-201 98 -201 278q0 86 51 156t140 104q-133 101 -133 251t102 240t272 89q125 0 217 -52t127 -141l-112 -65l-17 2q-55 121 -227 121q-94 0 -147 -45t-53 -119t42 -124q43 -50 148 -99l178 -84q215 -100 215 -295q0 -88 -49 -160t-127 -104q139 -96 139 -254z" />
    <glyph glyph-name="dieresis" unicode="&#xa8;" horiz-adv-x="712" 
d="M426 1235q0 47 34 81t80 34t78 -34t33 -81t-31 -79t-80 -32t-81 32t-33 79zM61 1235q0 47 35 81t80 34t78 -33t33 -81t-31 -80t-80 -32t-82 32t-33 79z" />
    <glyph glyph-name="copyright" unicode="&#xa9;" horiz-adv-x="1941" 
d="M973 276q-182 0 -303 124t-121 321t120 323t304 125q123 0 225 -57t162 -164l-98 -65l-19 4q-98 150 -270 149q-125 0 -203 -87t-78 -228t79 -226t185 -85t169 34q62 34 118 115l21 6l96 -73q-154 -216 -387 -216zM971 86q266 0 448 184q183 184 183 454t-182 454
q-182 186 -449 186t-449 -185t-182 -455t182 -454q183 -184 449 -184zM971 -39q-324 0 -545 220t-221 543t221 544t545 221t545 -221t221 -544t-221 -543t-545 -220z" />
    <glyph glyph-name="ordfeminine" unicode="&#xaa;" horiz-adv-x="649" 
d="M190 1044q0 -63 71 -63t128 57v121q-109 -18 -154 -45t-45 -70zM232 891q-171 -1 -171 149q0 145 328 193v31q0 100 -82 100t-147 -84l-10 -2l-82 55q38 66 106 105t154 39q86 -1 140 -51q52 -50 52 -144v-260q0 -31 25 -31q10 0 33 8l10 -6v-84q-43 -14 -88 -14
q-88 0 -103 74q-78 -78 -165 -78z" />
    <glyph glyph-name="guillemotleft" unicode="&#xab;" horiz-adv-x="952" 
d="M731 61l-270 396l270 395l86 -61l2 -11l-211 -323l211 -324l-2 -10zM383 61l-270 396l270 395l86 -61l2 -11l-211 -323l211 -324l-2 -10z" />
    <glyph glyph-name="logicalnot" unicode="&#xac;" horiz-adv-x="1433" 
d="M164 682h1106v-492h-123v369h-983v123z" />
    <glyph glyph-name="uni00AD" unicode="&#xad;" horiz-adv-x="655" 
d="M94 387v137h467v-137h-467z" />
    <glyph glyph-name="registered" unicode="&#xae;" horiz-adv-x="1241" 
d="M551 1053h61q100 0 101 73q0 76 -101 76h-61v-149zM799 1126q0 -100 -97 -133l148 -207l-4 -10h-92l-142 205h-61v-205h-86v498h160q174 -1 174 -148zM621 635q161 0 275 115q114 116 114 276t-114 274t-276 113q-162 0 -275 -114q-114 -115 -114 -275t114 -274t276 -115
zM621 563q-195 0 -331 134t-136 327t136 329t331 136t331 -136t135 -329q1 -193 -135 -327t-331 -134z" />
    <glyph glyph-name="macron" unicode="&#xaf;" horiz-adv-x="675" 
d="M61 1176v141h553v-141h-553z" />
    <glyph glyph-name="degree" unicode="&#xb0;" horiz-adv-x="811" 
d="M406 977q86 0 143 59q57 60 57 148t-57 147t-143 59t-144 -58q-58 -60 -57 -148q0 -88 57 -148q58 -59 144 -59zM406 879q-131 0 -218 87q-86 87 -86 218t86 218t218 87t217 -87q86 -87 86 -218t-86 -218t-217 -87z" />
    <glyph glyph-name="plusminus" unicode="&#xb1;" horiz-adv-x="1433" 
d="M164 129v123h1106v-123h-1106zM1270 846v-123h-492v-328h-123v328h-491v123h491v328h123v-328h492z" />
    <glyph glyph-name="uni00B2" unicode="&#xb2;" 
d="M72 942v25l223 239q213 229 213 355q0 61 -35 96t-96 35q-129 0 -158 -152l-22 -10l-115 18q41 270 309 271q117 0 190 -68t72 -176q0 -182 -194 -383l-64 -66q-16 -16 -69 -63v-2q68 6 127 6h192v-125h-573z" />
    <glyph glyph-name="uni00B3" unicode="&#xb3;" 
d="M670 1144q0 -98 -80 -170t-209 -71q-129 0 -208 66t-93 186l121 21l20 -9q8 -65 51 -103t110 -38q68 0 106 39t38 106q0 145 -166 146h-30v102h24q162 0 162 137q0 56 -36 90t-95 33q-123 0 -149 -125l-21 -8l-117 19q20 111 100 174t196 63q118 0 191 -63t73 -151
q-1 -172 -150 -218q76 -14 119 -72q43 -56 43 -154z" />
    <glyph glyph-name="acute" unicode="&#xb4;" horiz-adv-x="528" 
d="M61 1094l226 376h172l8 -14l-279 -362h-127z" />
    <glyph glyph-name="uni00B5" unicode="&#xb5;" horiz-adv-x="1144" 
d="M166 -446v1355h156v-528q0 -274 219 -275q119 0 197 96t77 253v454h156l-2 -753q0 -31 10 -42q24 -27 96 3l17 -8v-121q-169 -48 -237 18q-40 39 -40 111v41q-55 -94 -141 -146t-183 -51q-97 0 -169 57v-464h-156z" />
    <glyph glyph-name="paragraph" unicode="&#xb6;" horiz-adv-x="1275" 
d="M530 -446v1093q-182 0 -305 110t-123 271q0 198 125 310t342 112h527v-1896h-156v1763h-254v-1763h-156z" />
    <glyph glyph-name="periodcentered" unicode="&#xb7;" horiz-adv-x="569" 
d="M285 481q-49 0 -84 35t-35 84t35 84t84 35t84 -35t35 -84t-36 -84q-34 -35 -83 -35z" />
    <glyph glyph-name="cedilla" unicode="&#xb8;" horiz-adv-x="557" 
d="M260 -471q-112 0 -199 45l31 84l17 6q80 -43 141 -43t92 23t31 61q0 76 -111 76q-45 0 -88 -17l-37 35l125 201h92l-92 -154q26 8 82 8t104 -40q48 -41 48 -115t-62 -122t-174 -48z" />
    <glyph glyph-name="uni00B9" unicode="&#xb9;" 
d="M344 942v582q0 63 8 106l-4 2q-45 -29 -69 -43l-99 -57l-14 4l12 143l268 133h39v-870h-141z" />
    <glyph glyph-name="ordmasculine" unicode="&#xba;" horiz-adv-x="724" 
d="M362 1008q72 0 120 50t48 126t-48 126t-120 50t-120 -50t-47 -126q-1 -76 47 -126t120 -50zM362 891q-127 0 -214 84t-87 209t86 209t215 84q130 0 216 -84t86 -209t-88 -209t-214 -84z" />
    <glyph glyph-name="guillemotright" unicode="&#xbb;" horiz-adv-x="952" 
d="M569 61l-86 62l-2 10l211 324l-211 323l2 11l86 61l271 -395zM221 61l-86 62l-2 10l211 324l-211 323l2 11l86 61l271 -395z" />
    <glyph glyph-name="onequarter" unicode="&#xbc;" horiz-adv-x="1761" 
d="M1346 299v158q0 131 14 213h-2q-39 -76 -66 -111l-190 -260h244zM1343 0v174h-423v74l448 616h115v-565h100v-125h-100v-174h-140zM328 614v582q0 63 8 107l-4 2q-45 -29 -70 -43l-98 -58l-14 4l12 144l268 133h39v-871h-141zM1360 1546l-848 -1620h-174l850 1620h172z
" />
    <glyph glyph-name="onehalf" unicode="&#xbd;" horiz-adv-x="1761" 
d="M1026 0v25l223 239q213 229 213 354q0 60 -35 96t-96 36q-129 0 -157 -152l-23 -10l-115 18q41 270 310 271q118 0 190 -68t72 -176q0 -182 -195 -383l-63 -66q-16 -16 -70 -63v-2q68 6 127 6h192v-125h-573zM272 614v582q0 63 9 107l-5 2q-45 -29 -69 -43l-98 -58l-15 4
l12 144l269 133h39v-871h-142zM1305 1546l-848 -1620h-174l850 1620h172z" />
    <glyph glyph-name="threequarters" unicode="&#xbe;" horiz-adv-x="1761" 
d="M1413 299v158q0 131 14 213h-2q-39 -76 -65 -111l-191 -260h244zM1411 0v174h-424v74l449 616h114v-565h101v-125h-101v-174h-139zM676 818q0 -98 -80 -168q-80 -72 -209 -72t-208 66t-93 185l121 21l20 -8q7 -66 51 -104t110 -38t106 39q39 39 38 107q0 145 -165 145
h-31v103h24q162 0 162 137q0 55 -36 89t-95 34q-123 0 -149 -125l-21 -8l-117 18q20 111 100 174t196 63q118 0 191 -62q73 -64 73 -152q0 -172 -150 -218q76 -14 119 -71t43 -155zM1427 1546l-847 -1620h-174l849 1620h172z" />
    <glyph glyph-name="questiondown" unicode="&#xbf;" horiz-adv-x="1067" 
d="M540 -561q-170 0 -275 96q-105 95 -105 233t42 222t141 166t127 131t30 141l2 107h151l2 -109q2 -190 -166 -336q-100 -86 -133 -147q-32 -61 -32 -151t62 -151q62 -60 163 -61q217 0 258 217l33 13l129 -23q-31 -164 -145 -256t-284 -92zM567 948q49 0 84 -35t35 -84
t-35 -84t-84 -35t-84 36q-35 34 -34 83q0 49 34 84q35 35 84 35z" />
    <glyph glyph-name="Agrave" unicode="&#xc0;" horiz-adv-x="1363" 
d="M389 528h584q-191 461 -291 711h-4zM1192 0l-158 383h-704l-158 -383h-182l626 1450h136l622 -1450h-182zM852 1565h-127l-246 260l8 14h172z" />
    <glyph glyph-name="Aacute" unicode="&#xc1;" horiz-adv-x="1363" 
d="M389 528h584q-191 461 -291 711h-4zM1192 0l-158 383h-704l-158 -383h-182l626 1450h136l622 -1450h-182zM887 1825l-242 -260h-127l189 274h172z" />
    <glyph glyph-name="Acircumflex" unicode="&#xc2;" horiz-adv-x="1363" 
d="M389 528h584q-191 461 -291 711h-4zM1192 0l-158 383h-704l-158 -383h-182l626 1450h136l622 -1450h-182zM512 1565h-121l-10 16l211 258h180l211 -258l-10 -16h-121l-170 200z" />
    <glyph glyph-name="Atilde" unicode="&#xc3;" horiz-adv-x="1363" 
d="M389 528h584q-191 461 -291 711h-4zM1192 0l-158 383h-704l-158 -383h-182l626 1450h136l622 -1450h-182zM524.5 1815q61.5 0 162.5 -51.5t136 -51.5q55 0 76 90l14 13h109q-14 -106 -67.5 -170t-119 -64t-161.5 51t-133 51q-56 0 -76 -90l-14 -12h-109q14 106 67.5 170
t115 64z" />
    <glyph glyph-name="Adieresis" unicode="&#xc4;" horiz-adv-x="1363" 
d="M389 528h584q-191 461 -291 711h-4zM1192 0l-158 383h-704l-158 -383h-182l626 1450h136l622 -1450h-182zM886 1604q-48 0 -81 31.5t-33 78.5t34 81t79 34t78.5 -34t33.5 -81t-31.5 -78.5t-79.5 -31.5zM481 1604q-49 0 -81.5 31.5t-32.5 78.5t34.5 81t79.5 34t78 -33
t33 -81t-31 -79.5t-80 -31.5z" />
    <glyph glyph-name="Aring" unicode="&#xc5;" horiz-adv-x="1363" 
d="M389 528h584q-191 461 -291 711h-4zM1192 0l-158 383h-704l-158 -383h-182l626 1450h136l622 -1450h-182zM682 1858q-51 0 -84 -34t-33 -83t33 -83t84 -34t84 34t33 83t-33 83t-84 34zM682 1546q-82 0 -139.5 56.5t-57.5 138.5t57.5 138t139.5 56t139.5 -56t57.5 -138
t-57.5 -138.5t-139.5 -56.5z" />
    <glyph glyph-name="AE" unicode="&#xc6;" horiz-adv-x="1902" 
d="M918 528v457q0 102 8 315h-4q-51 -115 -166 -315l-267 -457h429zM1087 666v-510h682l-18 -156h-833v383h-512l-224 -383h-192l862 1450h899l18 -156h-682v-473h633v-155h-633z" />
    <glyph glyph-name="Ccedilla" unicode="&#xc7;" horiz-adv-x="1622" 
d="M1030 -301q0 -74 -62.5 -122t-174 -48t-197.5 45l31 84l16 6q79 -43 141 -43q124 0 123 84q0 76 -110 76q-45 0 -88 -17l-37 35l104 166q-295 31 -480 242t-185 529.5t214 535.5t537 217q453 0 664 -391l-117 -82l-35 8q-172 305 -510 305q-248 0 -411.5 -172
t-163.5 -431t166 -432t411 -173q184 0 308 71.5t212 229.5l35 8l113 -82q-227 -387 -668 -387l-69 -115q27 8 82 8.5t103 -40.5t48 -115z" />
    <glyph glyph-name="Egrave" unicode="&#xc8;" horiz-adv-x="1165" 
d="M180 1450h834l18 -156h-682v-473h633v-155h-633v-510h682l-18 -156h-834v1450zM643 1565l-246 260l9 14h172l192 -274h-127z" />
    <glyph glyph-name="Eacute" unicode="&#xc9;" horiz-adv-x="1165" 
d="M180 1450h834l18 -156h-682v-473h633v-155h-633v-510h682l-18 -156h-834v1450zM436 1565l189 274h172l8 -14l-242 -260h-127z" />
    <glyph glyph-name="Ecircumflex" unicode="&#xca;" horiz-adv-x="1165" 
d="M180 1450h834l18 -156h-682v-473h633v-155h-633v-510h682l-18 -156h-834v1450zM600 1765l-170 -200h-121l-10 16l211 258h180l211 -258l-10 -16h-121z" />
    <glyph glyph-name="Edieresis" unicode="&#xcb;" horiz-adv-x="1165" 
d="M180 1450h834l18 -156h-682v-473h633v-155h-633v-510h682l-18 -156h-834v1450zM690 1714q0 47 34 81t79 34t78.5 -34t33.5 -81t-31.5 -78.5t-79.5 -31.5t-81 31.5t-33 78.5zM285 1714q0 47 34.5 81t79.5 34t78 -33t33 -81t-30.5 -79.5t-80 -31.5t-82 31.5t-32.5 78.5z
" />
    <glyph glyph-name="Igrave" unicode="&#xcc;" horiz-adv-x="530" 
d="M180 1450h170v-1450h-170v1450zM309 1565l-246 260l9 14h172l192 -274h-127z" />
    <glyph glyph-name="Iacute" unicode="&#xcd;" horiz-adv-x="530" 
d="M180 1450h170v-1450h-170v1450zM102 1565l189 274h172l8 -14l-242 -260h-127z" />
    <glyph glyph-name="Icircumflex" unicode="&#xce;" horiz-adv-x="530" 
d="M180 1450h170v-1450h-170v1450zM266 1765l-170 -200h-121l-10 16l211 258h180l211 -258l-10 -16h-121z" />
    <glyph glyph-name="Idieresis" unicode="&#xcf;" horiz-adv-x="530" 
d="M180 1450h170v-1450h-170v1450zM356 1714q0 47 34 81t80 34t79 -34t33 -81t-32 -78.5t-80 -31.5t-81 31.5t-33 78.5zM-49 1714q0 47 34.5 81t80 34t78 -33t32.5 -81t-30.5 -79.5t-80 -31.5t-82 31.5t-32.5 78.5z" />
    <glyph glyph-name="Eth" unicode="&#xd0;" horiz-adv-x="1513" 
d="M545 158q346 0 513 141t167 433t-164 426t-516 134h-195v-471h398v-155h-398v-508h195zM571 1450q410 0 621 -183.5t211 -533.5t-218 -541.5t-614 -191.5h-391v666h-133v155h133v629h391z" />
    <glyph glyph-name="Ntilde" unicode="&#xd1;" horiz-adv-x="1587" 
d="M180 0v1450h109l657 -745q205 -236 287 -328h6v1073h168v-1479h-35l-1018 1151h-6v-1122h-168zM983.5 1581q-65.5 0 -162 51t-133.5 51q-55 0 -76 -90l-14 -12h-109q14 106 67.5 170t115 64t163 -51.5t136.5 -51.5q55 0 76 90l14 13h108q-14 -106 -67 -170t-118.5 -64z
" />
    <glyph glyph-name="Ograve" unicode="&#xd2;" horiz-adv-x="1765" 
d="M883 121q258 0 426 174t168 431t-167 430t-427 173t-427 -173t-167 -430t168 -431t426 -174zM883 -39q-334 0 -553 219t-219 545t217 545t555 219t555 -219t217 -545t-219 -545t-553 -219zM926 1565l-246 260l8 14h172l193 -274h-127z" />
    <glyph glyph-name="Oacute" unicode="&#xd3;" horiz-adv-x="1765" 
d="M883 121q258 0 426 174t168 431t-167 430t-427 173t-427 -173t-167 -430t168 -431t426 -174zM883 -39q-334 0 -553 219t-219 545t217 545t555 219t555 -219t217 -545t-219 -545t-553 -219zM719 1565l188 274h172l8 -14l-241 -260h-127z" />
    <glyph glyph-name="Ocircumflex" unicode="&#xd4;" horiz-adv-x="1765" 
d="M883 121q258 0 426 174t168 431t-167 430t-427 173t-427 -173t-167 -430t168 -431t426 -174zM883 -39q-334 0 -553 219t-219 545t217 545t555 219t555 -219t217 -545t-219 -545t-553 -219zM883 1765l-170 -200h-121l-10 16l211 258h180l211 -258l-10 -16h-121z" />
    <glyph glyph-name="Otilde" unicode="&#xd5;" horiz-adv-x="1765" 
d="M883 121q258 0 426 174t168 431t-167 430t-427 173t-427 -173t-167 -430t168 -431t426 -174zM883 -39q-334 0 -553 219t-219 545t217 545t555 219t555 -219t217 -545t-219 -545t-553 -219zM1036.5 1581q-65.5 0 -162 51t-133.5 51q-55 0 -75 -90l-15 -12h-108
q14 106 67.5 170t114.5 64t162.5 -51.5t136.5 -51.5q55 0 76 90l14 13h109q-14 -106 -67.5 -170t-119 -64z" />
    <glyph glyph-name="Odieresis" unicode="&#xd6;" horiz-adv-x="1765" 
d="M883 121q258 0 426 174t168 431t-167 430t-427 173t-427 -173t-167 -430t168 -431t426 -174zM883 -39q-334 0 -553 219t-219 545t217 545t555 219t555 -219t217 -545t-219 -545t-553 -219zM973 1714q0 47 33.5 81t78.5 34t79 -34t34 -81t-31.5 -78.5t-80 -31.5t-81 31.5
t-32.5 78.5zM567 1714q0 47 35 81t80 34t78 -33t33 -81t-31 -79.5t-80 -31.5t-82 31.5t-33 78.5z" />
    <glyph glyph-name="multiply" unicode="&#xd7;" horiz-adv-x="1433" 
d="M1194 1012l-391 -391l391 -392l-86 -86l-391 392l-391 -392l-86 86l391 392l-391 391l86 86l391 -391l391 391z" />
    <glyph glyph-name="Oslash" unicode="&#xd8;" horiz-adv-x="1765" 
d="M883 121q258 0 426 174t168 429t-160 427l-780 -924q147 -106 346 -106zM289 728q0 -255 164 -429l780 924q-152 106 -350 106q-260 0 -427 -173t-167 -428zM883 -39q-256 0 -455 137l-106 -127l-91 66l111 131q-231 221 -231 552t217 550t555 219q262 0 458 -139
l109 129l86 -68l-111 -131q229 -217 229.5 -549t-218.5 -551t-553 -219z" />
    <glyph glyph-name="Ugrave" unicode="&#xd9;" horiz-adv-x="1486" 
d="M743 -39q-573 0 -573 598v891h170v-877q0 -233 97.5 -342.5t306 -109.5t306 109.5t97.5 344.5v875h170v-889q0 -289 -147.5 -444.5t-426.5 -155.5zM786 1565l-245 260l8 14h172l192 -274h-127z" />
    <glyph glyph-name="Uacute" unicode="&#xda;" horiz-adv-x="1486" 
d="M743 -39q-573 0 -573 598v891h170v-877q0 -233 97.5 -342.5t306 -109.5t306 109.5t97.5 344.5v875h170v-889q0 -289 -147.5 -444.5t-426.5 -155.5zM580 1565l188 274h172l8 -14l-241 -260h-127z" />
    <glyph glyph-name="Ucircumflex" unicode="&#xdb;" horiz-adv-x="1486" 
d="M743 -39q-573 0 -573 598v891h170v-877q0 -233 97.5 -342.5t306 -109.5t306 109.5t97.5 344.5v875h170v-889q0 -289 -147.5 -444.5t-426.5 -155.5zM743 1765l-170 -200h-120l-11 16l211 258h181l210 -258l-10 -16h-121z" />
    <glyph glyph-name="Udieresis" unicode="&#xdc;" horiz-adv-x="1486" 
d="M743 -39q-573 0 -573 598v891h170v-877q0 -233 97.5 -342.5t306 -109.5t306 109.5t97.5 344.5v875h170v-889q0 -289 -147.5 -444.5t-426.5 -155.5zM834 1714q0 47 33.5 81t78.5 34t79 -34t34 -81t-32 -78.5t-80 -31.5t-80.5 31.5t-32.5 78.5zM428 1714q0 47 35 81t80 34
t77.5 -33t32.5 -81t-30.5 -79.5t-79.5 -31.5t-82 31.5t-33 78.5z" />
    <glyph glyph-name="Yacute" unicode="&#xdd;" horiz-adv-x="1185" 
d="M508 0v596l-508 854h186l230 -410q27 -49 174 -295h8q141 236 172 293l229 412h187l-508 -854v-596h-170zM430 1565l188 274h173l8 -14l-242 -260h-127z" />
    <glyph glyph-name="Thorn" unicode="&#xde;" horiz-adv-x="1136" 
d="M350 481h193q182 1 266 63t84 201t-84 201t-266 64h-193v-529zM180 0v1450h170v-289h234q236 0 358 -106q122 -105 123 -307q0 -202 -127 -310t-356 -108h-232v-330h-170z" />
    <glyph glyph-name="germandbls" unicode="&#xdf;" horiz-adv-x="1153" 
d="M647 -39q-100 0 -198 35l32 139l11 6q74 -35 149 -35q123 0 187 82t65 238q0 156 -88 245t-254 89h-51v133h39q242 0 245 242q2 113 -58 179t-179 64q-119 0 -172 -76t-53 -247v-1055h-156v1047q0 251 97 365t283 114t293 -106q108 -106 105 -273q-4 -240 -213 -305
q154 -26 241 -136t87 -298t-113 -318q-113 -129 -299 -129z" />
    <glyph glyph-name="agrave" unicode="&#xe0;" horiz-adv-x="987" 
d="M260 215q0 -121 143 -121t252 113v225q-215 -35 -305 -86t-90 -131zM362 -39q-121 0 -193.5 68.5t-72.5 181.5q0 266 559 340v57q0 199 -163 199q-156 0 -265 -160l-16 -2l-109 72q63 106 170 168.5t241 62.5t216 -80t82 -225v-487q0 -30 10 -42q22 -25 97 3l16 -8v-121
q-70 -20 -129 -21q-133 0 -143 133q-139 -139 -300 -139zM664 1094h-127l-279 362l8 14h172z" />
    <glyph glyph-name="aacute" unicode="&#xe1;" horiz-adv-x="987" 
d="M260 215q0 -121 143 -121t252 113v225q-215 -35 -305 -86t-90 -131zM362 -39q-121 0 -193.5 68.5t-72.5 181.5q0 266 559 340v57q0 199 -163 199q-156 0 -265 -160l-16 -2l-109 72q63 106 170 168.5t241 62.5t216 -80t82 -225v-487q0 -30 10 -42q22 -25 97 3l16 -8v-121
q-70 -20 -129 -21q-133 0 -143 133q-139 -139 -300 -139zM725 1456l-279 -362h-127l226 376h172z" />
    <glyph glyph-name="acircumflex" unicode="&#xe2;" horiz-adv-x="987" 
d="M260 215q0 -121 143 -121t252 113v225q-215 -35 -305 -86t-90 -131zM362 -39q-121 0 -193.5 68.5t-72.5 181.5q0 266 559 340v57q0 199 -163 199q-156 0 -265 -160l-16 -2l-109 72q63 106 170 168.5t241 62.5t216 -80t82 -225v-487q0 -30 10 -42q22 -25 97 3l16 -8v-121
q-70 -20 -129 -21q-133 0 -143 133q-139 -139 -300 -139zM322 1094h-121l-11 16l211 360h181l211 -360l-11 -16h-120l-170 286z" />
    <glyph glyph-name="atilde" unicode="&#xe3;" horiz-adv-x="987" 
d="M260 215q0 -121 143 -121t252 113v225q-215 -35 -305 -86t-90 -131zM362 -39q-121 0 -193.5 68.5t-72.5 181.5q0 266 559 340v57q0 199 -163 199q-156 0 -265 -160l-16 -2l-109 72q63 106 170 168.5t241 62.5t216 -80t82 -225v-487q0 -30 10 -42q22 -25 97 3l16 -8v-121
q-70 -20 -129 -21q-133 0 -143 133q-139 -139 -300 -139zM333.5 1354q61.5 0 163 -51.5t136.5 -51.5q55 0 76 90l14 13h108q-14 -106 -67 -170t-118.5 -64t-162 51.5t-133.5 51.5q-56 0 -76 -90l-14 -13h-108q14 106 67 170t114.5 64z" />
    <glyph glyph-name="adieresis" unicode="&#xe4;" horiz-adv-x="987" 
d="M260 215q0 -121 143 -121t252 113v225q-215 -35 -305 -86t-90 -131zM362 -39q-121 0 -193.5 68.5t-72.5 181.5q0 266 559 340v57q0 199 -163 199q-156 0 -265 -160l-16 -2l-109 72q63 106 170 168.5t241 62.5t216 -80t82 -225v-487q0 -30 10 -42q22 -25 97 3l16 -8v-121
q-70 -20 -129 -21q-133 0 -143 133q-139 -139 -300 -139zM675 1124q-48 0 -81 32t-33 79t34 81t80 34t78.5 -34t32.5 -81t-31.5 -79t-79.5 -32zM311 1124q-49 0 -81.5 32t-32.5 79t34.5 81t79.5 34t78 -33t33 -81t-31 -80t-80 -32z" />
    <glyph glyph-name="aring" unicode="&#xe5;" horiz-adv-x="987" 
d="M260 215q0 -121 143 -121t252 113v225q-215 -35 -305 -86t-90 -131zM362 -39q-121 0 -193.5 68.5t-72.5 181.5q0 266 559 340v57q0 199 -163 199q-156 0 -265 -160l-16 -2l-109 72q63 106 170 168.5t241 62.5t216 -80t82 -225v-487q0 -30 10 -42q22 -25 97 3l16 -8v-121
q-70 -20 -129 -21q-133 0 -143 133q-139 -139 -300 -139zM491.5 1386q-51.5 0 -84 -33.5t-32.5 -82.5t32.5 -83t84 -34t84 34t32.5 83t-32.5 82.5t-84 33.5zM491.5 1075q-81.5 0 -139 56.5t-57.5 138.5t57.5 138t139 56t139 -56t57.5 -138t-57.5 -138.5t-139 -56.5z" />
    <glyph glyph-name="ae" unicode="&#xe6;" horiz-adv-x="1603" 
d="M260 215q0 -121 135 -121t295 152q-29 80 -33 176q-219 -31 -308 -78t-89 -129zM1093 809q-101 0 -175.5 -68.5t-92.5 -187.5h514q-8 117 -76.5 186.5t-169.5 69.5zM350.5 -39q-109.5 0 -182 68.5t-72.5 181.5q0 262 559 332v65q0 199 -163 199q-156 0 -265 -160l-16 -2
l-109 72q63 106 171 168.5t235 62.5q205 0 266 -164h4q111 164 324 164q176 0 289.5 -130t113.5 -357q0 -18 -2 -35h-684q0 -143 81 -233.5t196 -90.5q158 0 268 170l16 4l113 -75q-70 -117 -174.5 -178.5t-218.5 -61.5t-208.5 49t-154.5 140q-106 -104 -191.5 -146.5
t-195 -42.5z" />
    <glyph glyph-name="ccedilla" unicode="&#xe7;" horiz-adv-x="1067" 
d="M752 -301q0 -74 -62.5 -122t-174 -48t-198.5 45l31 84l17 6q78 -43 140 -43q124 0 124 84q0 76 -111 76q-45 0 -88 -17l-37 35l103 164q-186 20 -296 153.5t-110 344.5t130 349t335 138q283 0 422 -246l-115 -77l-16 4q-113 178 -289 178q-133 0 -218 -95.5t-85 -256
t85 -257t220 -96.5q182 0 291 181l16 4l113 -76q-129 -233 -391 -250l-70 -115q27 8 82.5 8.5t103.5 -40.5t48 -115z" />
    <glyph glyph-name="egrave" unicode="&#xe8;" horiz-adv-x="1081" 
d="M549 809q-115 0 -190.5 -67.5t-94.5 -188.5h553q-8 119 -80.5 187.5t-187.5 68.5zM258 426v-8q0 -143 86 -229.5t219 -86.5q168 0 279 170l16 4l113 -75q-141 -240 -414 -240q-207 0 -336 136t-129 357.5t127 357.5t327 136t318.5 -129t118.5 -358q0 -19 -2 -35h-723z
M713 1094h-127l-279 362l8 14h172z" />
    <glyph glyph-name="eacute" unicode="&#xe9;" horiz-adv-x="1081" 
d="M549 809q-115 0 -190.5 -67.5t-94.5 -188.5h553q-8 119 -80.5 187.5t-187.5 68.5zM258 426v-8q0 -143 86 -229.5t219 -86.5q168 0 279 170l16 4l113 -75q-141 -240 -414 -240q-207 0 -336 136t-129 357.5t127 357.5t327 136t318.5 -129t118.5 -358q0 -19 -2 -35h-723z
M774 1456l-278 -362h-127l225 376h172z" />
    <glyph glyph-name="ecircumflex" unicode="&#xea;" horiz-adv-x="1081" 
d="M549 809q-115 0 -190.5 -67.5t-94.5 -188.5h553q-8 119 -80.5 187.5t-187.5 68.5zM258 426v-8q0 -143 86 -229.5t219 -86.5q168 0 279 170l16 4l113 -75q-141 -240 -414 -240q-207 0 -336 136t-129 357.5t127 357.5t327 136t318.5 -129t118.5 -358q0 -19 -2 -35h-723z
M371 1094h-121l-10 16l211 360h180l211 -360l-11 -16h-120l-170 286z" />
    <glyph glyph-name="edieresis" unicode="&#xeb;" horiz-adv-x="1081" 
d="M549 809q-115 0 -190.5 -67.5t-94.5 -188.5h553q-8 119 -80.5 187.5t-187.5 68.5zM258 426v-8q0 -143 86 -229.5t219 -86.5q168 0 279 170l16 4l113 -75q-141 -240 -414 -240q-207 0 -336 136t-129 357.5t127 357.5t327 136t318.5 -129t118.5 -358q0 -19 -2 -35h-723z
M724 1124q-48 0 -81 32t-33 79t34 81t80 34t79 -34t33 -81t-32 -79t-80 -32zM360.5 1124q-49.5 0 -82 32t-32.5 79t34.5 81t80 34t78 -33t32.5 -81t-30.5 -80t-80 -32z" />
    <glyph glyph-name="igrave" unicode="&#xec;" horiz-adv-x="487" 
d="M166 0v909h156v-909h-156zM416 1094h-127l-279 362l8 14h172z" />
    <glyph glyph-name="iacute" unicode="&#xed;" horiz-adv-x="487" 
d="M166 0v909h156v-909h-156zM72 1094l225 376h172l8 -14l-278 -362h-127z" />
    <glyph glyph-name="icircumflex" unicode="&#xee;" horiz-adv-x="487" 
d="M166 0v909h156v-909h-156zM244 1380l-170 -286h-121l-10 16l211 360h180l211 -360l-10 -16h-121z" />
    <glyph glyph-name="idieresis" unicode="&#xef;" horiz-adv-x="487" 
d="M166 0v909h156v-909h-156zM313 1235q0 47 34 81t79 34t79 -34t34 -81t-32 -79t-80 -32t-81 32t-33 79zM-51 1235q0 47 34.5 81t80 34t78 -33t32.5 -81t-30.5 -80t-80 -32t-82 32t-32.5 79z" />
    <glyph glyph-name="eth" unicode="&#xf0;" horiz-adv-x="1183" 
d="M254 453q0 -163 78 -255t220 -92t229 96t87 249q0 155 -89 253t-225 98t-218 -93q-82 -94 -82 -256zM1032 512q0 -258 -138 -404t-350 -146t-333 132t-121 354t125 361t307 139q104 0 194 -52t146 -148q-10 84 -85 214t-187 257l-178 -84l-80 96l178 84q-74 86 -113 127
l129 80q61 -61 129 -140l201 95l80 -97l-203 -94q155 -197 227 -378t72 -396z" />
    <glyph glyph-name="ntilde" unicode="&#xf1;" horiz-adv-x="1163" 
d="M166 909h156v-161q119 201 331 200q164 0 254 -93t90 -267v-588h-155v520q0 147 -56.5 215t-180.5 68t-203.5 -97.5t-79.5 -250.5v-455h-156v909zM735.5 1120q-65.5 0 -162 51.5t-133.5 51.5q-55 0 -75 -90l-15 -13h-108q14 106 67 170t114.5 64t163 -51.5t136.5 -51.5
q55 0 76 90l14 13h109q-14 -106 -67.5 -170t-119 -64z" />
    <glyph glyph-name="ograve" unicode="&#xf2;" horiz-adv-x="1175" 
d="M588 106q142 0 238 102t96 248t-96.5 246.5t-238 100.5t-237.5 -100.5t-96 -246.5t96 -248t238 -102zM588 -39q-211 0 -354.5 142.5t-143.5 351.5t142.5 351t355.5 142t355 -142t142 -351t-143 -351.5t-354 -142.5zM760 1094h-127l-279 362l8 14h173z" />
    <glyph glyph-name="oacute" unicode="&#xf3;" horiz-adv-x="1175" 
d="M588 106q142 0 238 102t96 248t-96.5 246.5t-238 100.5t-237.5 -100.5t-96 -246.5t96 -248t238 -102zM588 -39q-211 0 -354.5 142.5t-143.5 351.5t142.5 351t355.5 142t355 -142t142 -351t-143 -351.5t-354 -142.5zM416 1094l225 376h172l8 -14l-278 -362h-127z" />
    <glyph glyph-name="ocircumflex" unicode="&#xf4;" horiz-adv-x="1175" 
d="M588 106q142 0 238 102t96 248t-96.5 246.5t-238 100.5t-237.5 -100.5t-96 -246.5t96 -248t238 -102zM588 -39q-211 0 -354.5 142.5t-143.5 351.5t142.5 351t355.5 142t355 -142t142 -351t-143 -351.5t-354 -142.5zM588 1380l-170 -286h-121l-10 16l211 360h180l211 -360
l-10 -16h-121z" />
    <glyph glyph-name="otilde" unicode="&#xf5;" horiz-adv-x="1175" 
d="M587.5 106q141.5 0 238 101.5t96.5 248t-96.5 247t-238 100.5t-237.5 -100.5t-96 -246.5t96 -248t237.5 -102zM588 -39q-211 0 -354.5 142.5t-143.5 351.5t142.5 351t355.5 142t355 -142t142 -351t-143 -351.5t-354 -142.5zM741.5 1120q-65.5 0 -162 51.5t-133.5 51.5
q-55 0 -75 -90l-15 -13h-108q14 106 67.5 170t114.5 64t162.5 -51.5t136.5 -51.5q55 0 76 90l14 13h109q-14 -106 -67.5 -170t-119 -64z" />
    <glyph glyph-name="odieresis" unicode="&#xf6;" horiz-adv-x="1175" 
d="M587.5 106q141.5 0 238 101.5t96.5 248t-96.5 247t-238 100.5t-237.5 -100.5t-96 -246.5t96 -248t237.5 -102zM588 -39q-211 0 -354.5 142.5t-143.5 351.5t142.5 351t355.5 142t355 -142t142 -351t-143 -351.5t-354 -142.5zM657 1235q0 47 34 81t79 34t79 -34t34 -81
t-32 -79t-80 -32t-81 32t-33 79zM293 1235q0 47 34.5 81t80 34t78 -33t32.5 -81t-30.5 -80t-80 -32t-82 32t-32.5 79z" />
    <glyph glyph-name="divide" unicode="&#xf7;" horiz-adv-x="1433" 
d="M717 162q-49 0 -84 35t-35 84t35 84t84 35t84 -36q35 -34 35 -83t-35 -84t-84 -35zM164 559v123h1106v-123h-1106zM717 842q-49 0 -84 35t-35 84t35 83t84 35q49 0 84 -35q35 -36 35 -84t-35 -83t-84 -35z" />
    <glyph glyph-name="oslash" unicode="&#xf8;" horiz-adv-x="1175" 
d="M588 106q141 0 237.5 101.5t96.5 239t-74 229.5l-436 -518q76 -52 176 -52zM254 466q0 -136 76 -235l438 519q-78 53 -180 53q-141 0 -237.5 -100.5t-96.5 -236.5zM1085 452q0 -206 -143 -348.5t-354 -142.5q-152 0 -277 80l-57 -70l-90 66l63 74q-137 141 -137 347
t142.5 348t355.5 142q158 0 278 -80l60 70l86 -68l-62 -71q135 -141 135 -347z" />
    <glyph glyph-name="ugrave" unicode="&#xf9;" horiz-adv-x="1136" 
d="M971 0h-156v158q-55 -94 -141 -145.5t-180 -51.5q-156 0 -242 95.5t-86 273.5v579h156v-528q0 -274 219 -275q119 0 196.5 96.5t77.5 252.5v454h156v-909zM739 1100h-127l-278 362l8 15h172z" />
    <glyph glyph-name="uacute" unicode="&#xfa;" horiz-adv-x="1136" 
d="M971 0h-156v158q-55 -94 -141 -145.5t-180 -51.5q-156 0 -242 95.5t-86 273.5v579h156v-528q0 -274 219 -275q119 0 196.5 96.5t77.5 252.5v454h156v-909zM395 1100l226 377h172l8 -15l-279 -362h-127z" />
    <glyph glyph-name="ucircumflex" unicode="&#xfb;" horiz-adv-x="1136" 
d="M971 0h-156v158q-55 -94 -141 -145.5t-180 -51.5q-156 0 -242 95.5t-86 273.5v579h156v-528q0 -274 219 -275q119 0 196.5 96.5t77.5 252.5v454h156v-909zM567 1386l-170 -286h-121l-10 16l211 361h180l211 -361l-10 -16h-121z" />
    <glyph glyph-name="udieresis" unicode="&#xfc;" horiz-adv-x="1136" 
d="M971 0h-156v158q-55 -94 -141 -145.5t-180 -51.5q-156 0 -242 95.5t-86 273.5v579h156v-528q0 -274 219 -275q119 0 196.5 96.5t77.5 252.5v454h156v-909zM637 1241q0 47 34 81t79 34t78.5 -33t33.5 -81t-31.5 -80t-79.5 -32t-81 32t-33 79zM272 1241q0 47 35 81t80 34
t78 -33t33 -81t-31 -80t-80 -32t-82 32t-33 79z" />
    <glyph glyph-name="yacute" unicode="&#xfd;" horiz-adv-x="950" 
d="M137 -446l260 536l-368 819h178l270 -651h4l281 651h176l-625 -1355h-176zM319 1094l226 376h172l8 -14l-279 -362h-127z" />
    <glyph glyph-name="thorn" unicode="&#xfe;" horiz-adv-x="1183" 
d="M634 803q-138 1 -228 -99t-90 -254t86 -248q86 -96 226 -96t220 96t80 258q0 163 -78 253t-216 90zM166 1501h156v-753q125 201 346 200q190 0 308 -134t118 -352t-124 -360t-315 -141q-100 0 -191 51t-142 138v-596h-156v1947z" />
    <glyph glyph-name="ydieresis" unicode="&#xff;" horiz-adv-x="950" 
d="M137 -446l260 536l-368 819h178l270 -651h4l281 651h176l-625 -1355h-176zM561 1235q0 47 34 81t80 34t78.5 -34t32.5 -81t-31.5 -79t-79.5 -32t-81 32t-33 79zM197 1235q0 47 34.5 81t79.5 34t78 -33t33 -81t-31 -80t-80 -32t-81.5 32t-32.5 79z" />
    <glyph glyph-name="Amacron" unicode="&#x100;" horiz-adv-x="1363" 
d="M389 528h584q-191 461 -291 711h-4zM1192 0l-158 383h-704l-158 -383h-182l626 1450h136l622 -1450h-182zM958 1778v-142h-552v142h552z" />
    <glyph glyph-name="amacron" unicode="&#x101;" horiz-adv-x="987" 
d="M260 215q0 -121 143 -121t252 113v225q-215 -35 -305 -86t-90 -131zM362 -39q-121 0 -193.5 68.5t-72.5 181.5q0 266 559 340v57q0 199 -163 199q-156 0 -265 -160l-16 -2l-109 72q63 106 170 168.5t241 62.5t216 -80t82 -225v-487q0 -30 10 -42q22 -25 97 3l16 -8v-121
q-70 -20 -129 -21q-133 0 -143 133q-139 -139 -300 -139zM768 1307v-131h-553v131h553z" />
    <glyph glyph-name="Abreve" unicode="&#x102;" horiz-adv-x="1363" 
d="M389 528h584q-191 461 -291 711h-4zM1192 0l-158 383h-704l-158 -383h-182l626 1450h136l622 -1450h-182zM682 1567q-139 0 -227 71.5t-97 190.5l15 14h114q33 -141 195 -141t195 141h114l15 -14q-8 -119 -96.5 -190.5t-227.5 -71.5z" />
    <glyph glyph-name="abreve" unicode="&#x103;" horiz-adv-x="987" 
d="M260 215q0 -121 143 -121t252 113v225q-215 -35 -305 -86t-90 -131zM362 -39q-121 0 -193.5 68.5t-72.5 181.5q0 266 559 340v57q0 199 -163 199q-156 0 -265 -160l-16 -2l-109 72q63 106 170 168.5t241 62.5t216 -80t82 -225v-487q0 -30 10 -42q22 -25 97 3l16 -8v-121
q-70 -20 -129 -21q-133 0 -143 133q-139 -139 -300 -139zM491.5 1106q-139.5 0 -227.5 71.5t-96 190.5l14 14h115q33 -143 194.5 -143t194.5 143h115l14 -14q-8 -119 -96 -190.5t-227.5 -71.5z" />
    <glyph glyph-name="Aogonek" unicode="&#x104;" horiz-adv-x="1363" 
d="M389 528h584q-191 461 -291 711h-4zM1241 -457q-88 0 -145.5 48.5t-57.5 125.5q0 143 191 283h-37l-158 383h-704l-158 -383h-182l626 1450h136l622 -1450h-47q-166 -131 -166 -248q0 -43 30 -70.5t78 -27.5t93 35h10l35 -95q-78 -51 -166 -51z" />
    <glyph glyph-name="aogonek" unicode="&#x105;" horiz-adv-x="987" 
d="M260 215q0 -121 143 -121t252 113v225q-215 -35 -305 -86t-90 -131zM670 -248q0 -43 29.5 -70.5t77.5 -27.5t93 35h11l34 -95q-78 -51 -166 -51t-145 48.5t-57 125.5q0 133 174 271q-53 35 -59 112q-139 -139 -300 -139q-121 0 -193.5 68.5t-72.5 181.5q0 266 559 340v57
q0 199 -163 199q-156 0 -265 -160l-16 -2l-109 72q63 106 170 168.5t241 62.5t216 -80t82 -225v-487q0 -31 10 -42.5t35 -11.5t62 15l16 -8v-121q-70 -20 -129 -21h-8q-127 -113 -127 -215z" />
    <glyph glyph-name="Cacute" unicode="&#x106;" horiz-adv-x="1622" 
d="M864 -39q-328 0 -540.5 217t-212.5 547t214 547t537 217q453 0 664 -391l-117 -82l-35 8q-172 305 -510 305q-248 0 -411.5 -172t-163.5 -431t166 -432t411 -173q184 0 308 71.5t212 229.5l35 8l113 -82q-228 -387 -670 -387zM721 1565l188 274h172l9 -14l-242 -260h-127
z" />
    <glyph glyph-name="cacute" unicode="&#x107;" horiz-adv-x="1067" 
d="M555 -39q-211 0 -338 136q-127 135 -127 355t130 358t335 138q283 0 422 -246l-115 -77l-16 4q-113 178 -289 178q-133 0 -218 -95.5t-85 -255.5t85 -257t220 -97q182 0 291 181l16 4l113 -76q-139 -250 -424 -250zM393 1094l225 376h173l8 -14l-279 -362h-127z" />
    <glyph glyph-name="Ccircumflex" unicode="&#x108;" horiz-adv-x="1622" 
d="M864 -39q-328 0 -540.5 217t-212.5 547t214 547t537 217q453 0 664 -391l-117 -82l-35 8q-172 305 -510 305q-248 0 -411.5 -172t-163.5 -431t166 -432t411 -173q184 0 308 71.5t212 229.5l35 8l113 -82q-228 -387 -670 -387zM885 1921l-170 -287h-121l-10 17l211 360
h180l211 -360l-10 -17h-121z" />
    <glyph glyph-name="ccircumflex" unicode="&#x109;" horiz-adv-x="1067" 
d="M555 -39q-211 0 -338 136q-127 135 -127 355t130 358t335 138q283 0 422 -246l-115 -77l-16 4q-113 178 -289 178q-133 0 -218 -95.5t-85 -255.5t85 -257t220 -97q182 0 291 181l16 4l113 -76q-139 -250 -424 -250zM565 1380l-170 -286h-121l-10 16l211 360h180l211 -360
l-10 -16h-121z" />
    <glyph glyph-name="Cdotaccent" unicode="&#x10a;" horiz-adv-x="1622" 
d="M864 -39q-328 0 -540.5 217t-212.5 547t214 547t537 217q453 0 664 -391l-117 -82l-35 8q-172 305 -510 305q-248 0 -411.5 -172t-163.5 -431t166 -432t411 -173q184 0 308 71.5t212 229.5l35 8l113 -82q-228 -387 -670 -387zM885 1595q-47 0 -81 33t-34 81t34 82t81 34
t80.5 -35t33.5 -82t-33.5 -80t-80.5 -33z" />
    <glyph glyph-name="cdotaccent" unicode="&#x10b;" horiz-adv-x="1067" 
d="M555 -39q-211 0 -338 136q-127 135 -127 355t130 358t335 138q283 0 422 -246l-115 -77l-16 4q-113 178 -289 178q-133 0 -218 -95.5t-85 -255.5t85 -257t220 -97q182 0 291 181l16 4l113 -76q-139 -250 -424 -250zM565 1124q-47 0 -80.5 33t-33.5 81t33.5 82t80.5 34
t81 -35t34 -82t-34 -80t-81 -33z" />
    <glyph glyph-name="Ccaron" unicode="&#x10c;" horiz-adv-x="1622" 
d="M864 -39q-328 0 -540.5 217t-212.5 547t214 547t537 217q453 0 664 -391l-117 -82l-35 8q-172 305 -510 305q-248 0 -411.5 -172t-163.5 -431t166 -432t411 -173q184 0 308 71.5t212 229.5l35 8l113 -82q-228 -387 -670 -387zM795 1565l-197 258l10 16h121l156 -201
l153 201h121l10 -16l-194 -258h-180z" />
    <glyph glyph-name="ccaron" unicode="&#x10d;" horiz-adv-x="1067" 
d="M555 -39q-211 0 -338 136q-127 135 -127 355t130 358t335 138q283 0 422 -246l-115 -77l-16 4q-113 178 -289 178q-133 0 -218 -95.5t-85 -255.5t85 -257t220 -97q182 0 291 181l16 4l113 -76q-139 -250 -424 -250zM565 1184l170 286h121l10 -16l-211 -360h-180l-211 360
l10 16h121z" />
    <glyph glyph-name="Dcaron" unicode="&#x10e;" horiz-adv-x="1513" 
d="M350 158h195q346 0 513 141t167 433t-164 426t-516 134h-195v-1134zM180 0v1450h391q410 0 621 -183.5t211 -533.5t-218 -541.5t-614 -191.5h-391zM602 1565l-196 258l10 16h121l155 -201l154 201h121l10 -16l-195 -258h-180z" />
    <glyph glyph-name="dcaron" unicode="&#x10f;" horiz-adv-x="1423" 
d="M552 106q142 0 229 95.5t87 249.5t-89 253t-225 99t-218 -94.5t-82 -256t78 -254t220 -92.5zM1231 1028l-111 43l144 410l20 8l139 -55zM520 -39q-195 0 -312.5 134t-117.5 354.5t125 359.5t307 139q104 0 194.5 -52t145.5 -148v753h156v-1501h-150v158
q-51 -90 -146.5 -143.5t-201.5 -53.5z" />
    <glyph glyph-name="Dcroat" unicode="&#x110;" horiz-adv-x="1513" 
d="M545 158q346 0 513 141t167 433t-164 426t-516 134h-195v-471h398v-155h-398v-508h195zM571 1450q410 0 621 -183.5t211 -533.5t-218 -541.5t-614 -191.5h-391v666h-133v155h133v629h391z" />
    <glyph glyph-name="dcroat" unicode="&#x111;" horiz-adv-x="1183" 
d="M552 106q142 0 229 95.5t87 249.5t-89 253t-225 99t-218 -94.5t-82 -256t78 -254t220 -92.5zM1018 1278h133v-133h-133v-1145h-150v158q-51 -90 -146 -143.5t-202 -53.5q-195 0 -312.5 134t-117.5 354.5t125 359.5t307 139q104 0 194.5 -52t145.5 -148v397h-309v133h309
v223h156v-223z" />
    <glyph glyph-name="Emacron" unicode="&#x112;" horiz-adv-x="1165" 
d="M180 1450h834l18 -156h-682v-473h633v-155h-633v-510h682l-18 -156h-834v1450zM324 1636v142h553v-142h-553z" />
    <glyph glyph-name="emacron" unicode="&#x113;" horiz-adv-x="1081" 
d="M549 809q-115 0 -190.5 -67.5t-94.5 -188.5h553q-8 119 -80.5 187.5t-187.5 68.5zM258 426v-8q0 -143 86 -229.5t219 -86.5q168 0 279 170l16 4l113 -75q-141 -240 -414 -240q-207 0 -336 136t-129 357.5t127 357.5t327 136t318.5 -129t118.5 -358q0 -19 -2 -35h-723z
M817 1307v-131h-553v131h553z" />
    <glyph glyph-name="Edotaccent" unicode="&#x116;" horiz-adv-x="1165" 
d="M180 1450h834l18 -156h-682v-473h633v-155h-633v-510h682l-18 -156h-834v1450zM600 1595q-47 0 -81 33t-34 81t34 82t81 34t81 -35t34 -82t-34 -80t-81 -33z" />
    <glyph glyph-name="edotaccent" unicode="&#x117;" horiz-adv-x="1081" 
d="M549 809q-115 0 -190.5 -67.5t-94.5 -188.5h553q-8 119 -80.5 187.5t-187.5 68.5zM258 426v-8q0 -143 86 -229.5t219 -86.5q168 0 279 170l16 4l113 -75q-141 -240 -414 -240q-207 0 -336 136t-129 357.5t127 357.5t327 136t318.5 -129t118.5 -358q0 -19 -2 -35h-723z
M541 1124q-47 0 -81 33t-34 81t34 82t81 34t80.5 -35t33.5 -82t-33.5 -80t-80.5 -33z" />
    <glyph glyph-name="Eogonek" unicode="&#x118;" horiz-adv-x="1165" 
d="M883 -457q-88 0 -145.5 48.5t-57.5 125.5q0 143 190 283h-690v1450h834l18 -156h-682v-473h633v-155h-633v-510h682l-18 -156h-45q-166 -131 -166 -248q0 -43 29.5 -70.5t77.5 -27.5t94 35h10l35 -95q-78 -51 -166 -51z" />
    <glyph glyph-name="eogonek" unicode="&#x119;" horiz-adv-x="1081" 
d="M548 809q-114 1 -190 -67t-94 -189h553q-8 119 -81 187q-74 68 -188 69zM666 -457q-88 0 -146 48q-57 48 -57 126q0 123 145 246q-16 -2 -51 -2q-207 0 -336 136q-129 135 -129 357t127 358t327 136t318 -129t119 -358q0 -18 -2 -35h-723v-8q0 -144 86 -230t219 -86
q168 0 279 170l16 4l113 -75q-84 -141 -219 -201q-166 -131 -166 -248q0 -42 30 -70t77 -28q48 0 93 35h11l34 -95q-77 -51 -165 -51z" />
    <glyph glyph-name="Ecaron" unicode="&#x11a;" horiz-adv-x="1165" 
d="M180 1450h834l18 -156h-682v-473h633v-155h-633v-510h682l-18 -156h-834v1450zM510 1565l-197 258l11 16h120l156 -201l154 201h120l11 -16l-195 -258h-180z" />
    <glyph glyph-name="ecaron" unicode="&#x11b;" horiz-adv-x="1081" 
d="M549 809q-115 0 -190.5 -67.5t-94.5 -188.5h553q-8 119 -80.5 187.5t-187.5 68.5zM258 426v-8q0 -143 86 -229.5t219 -86.5q168 0 279 170l16 4l113 -75q-141 -240 -414 -240q-207 0 -336 136t-129 357.5t127 357.5t327 136t318.5 -129t118.5 -358q0 -19 -2 -35h-723z
M631 1094h-180l-211 360l10 16h121l170 -286l170 286h120l11 -16z" />
    <glyph glyph-name="Gbreve" unicode="&#x11e;" horiz-adv-x="1720" 
d="M875 -39q-345 0 -554.5 215t-209.5 547t215 549t544 217q457 0 678 -379l-116 -82l-35 8q-96 152 -220 222.5t-305 70.5q-254 0 -418.5 -172t-164.5 -433t160.5 -432t394 -171t392.5 120.5t167 342.5v12h-440v147h593v-743h-159v94q0 76 16 131l-4 2q-189 -266 -534 -266
zM872.5 1567q-139.5 0 -227.5 71.5t-96 190.5l14 14h115q33 -141 194.5 -141t194.5 141h115l14 -14q-8 -119 -96 -190.5t-227.5 -71.5z" />
    <glyph glyph-name="gbreve" unicode="&#x11f;" horiz-adv-x="1021" 
d="M508 -338q301 0 301 168q0 131 -303 160q-43 4 -86 10q-225 -43 -225 -166q0 -76 87 -124t226 -48zM497.5 424q110.5 0 175 52t64.5 142.5t-65.5 143.5t-174 53t-174 -53t-65.5 -143.5t64.5 -142.5t175 -52zM504 -471q-219 0 -347 80t-128 217q0 78 57 137.5t158 89.5
q-86 45 -86 121q0 106 164 150q-100 33 -160 113.5t-60 183.5q0 143 113 235t285 92q102 0 190 -39h285l4 -116l-18 -17l-123 12q55 -82 55 -193.5t-86 -193.5t-232.5 -99t-203 -39.5t-56.5 -56.5q1 -34 49 -52t227 -40q382 -48 382 -282q0 -141 -125 -222t-344 -81z
M512 1106q-139 0 -227 71.5t-97 190.5l15 14h114q33 -143 195 -143t195 143h114l15 -14q-8 -119 -96.5 -190.5t-227.5 -71.5z" />
    <glyph glyph-name="Gdotaccent" unicode="&#x120;" horiz-adv-x="1720" 
d="M875 -39q-345 0 -554.5 215t-209.5 547t215 549t544 217q457 0 678 -379l-116 -82l-35 8q-96 152 -220 222.5t-305 70.5q-254 0 -418.5 -172t-164.5 -433t160.5 -432t394 -171t392.5 120.5t167 342.5v12h-440v147h593v-743h-159v94q0 76 16 131l-4 2q-189 -266 -534 -266
zM872.5 1595q-47.5 0 -81 33t-33.5 81t33.5 82t81 34t81 -35t33.5 -82t-33.5 -80t-81 -33z" />
    <glyph glyph-name="gdotaccent" unicode="&#x121;" horiz-adv-x="1021" 
d="M508 -338q301 0 301 168q0 131 -303 160q-43 4 -86 10q-225 -43 -225 -166q0 -76 87 -124t226 -48zM497.5 424q110.5 0 175 52t64.5 142.5t-65.5 143.5t-174 53t-174 -53t-65.5 -143.5t64.5 -142.5t175 -52zM504 -471q-219 0 -347 80t-128 217q0 78 57 137.5t158 89.5
q-86 45 -86 121q0 106 164 150q-100 33 -160 113.5t-60 183.5q0 143 113 235t285 92q102 0 190 -39h285l4 -116l-18 -17l-123 12q55 -82 55 -193.5t-86 -193.5t-232.5 -99t-203 -39.5t-56.5 -56.5q1 -34 49 -52t227 -40q382 -48 382 -282q0 -141 -125 -222t-344 -81z
M512 1124q-47 0 -81 33t-34 81t34 82t81 34t81 -35t34 -82t-34 -80t-81 -33z" />
    <glyph glyph-name="Gcommaaccent" unicode="&#x122;" horiz-adv-x="1720" 
d="M821 -514l-114 45l112 369l21 8l153 -62zM875 -39q-345 0 -554.5 215t-209.5 547t215 549t544 217q457 0 678 -379l-116 -82l-35 8q-96 152 -220 222.5t-305 70.5q-254 0 -418.5 -172t-164.5 -433t160.5 -432t394 -171t392.5 120.5t167 342.5v12h-440v147h593v-743h-159
v94q0 76 16 131l-4 2q-189 -266 -534 -266z" />
    <glyph glyph-name="gcommaaccent" unicode="&#x123;" horiz-adv-x="1021" 
d="M508 -338q301 0 301 168q0 131 -303 160q-43 4 -86 10q-225 -43 -225 -166q0 -76 87 -124t226 -48zM497.5 424q110.5 0 175 52t64.5 142.5t-65.5 143.5t-174 53t-174 -53t-65.5 -143.5t64.5 -142.5t175 -52zM504 -471q-219 0 -347 80t-128 217q0 78 57 137.5t158 89.5
q-86 45 -86 121q0 106 164 150q-100 33 -160 113.5t-60 183.5q0 143 113 235t285 92q102 0 190 -39h285l4 -116l-18 -17l-123 12q55 -82 55 -193.5t-86 -193.5t-232.5 -99t-203 -39.5t-56.5 -56.5q1 -34 49 -52t227 -40q382 -48 382 -282q0 -141 -125 -222t-344 -81z
M545 1526l106 -43l-112 -369l-21 -8l-145 59z" />
    <glyph glyph-name="Hbar" unicode="&#x126;" horiz-adv-x="1503" 
d="M1153 813v283h-803v-283h803zM1323 1231h123v-135h-123v-1096h-170v657h-803v-657h-170v1096h-121v135h121v219h170v-219h803v219h170v-219z" />
    <glyph glyph-name="hbar" unicode="&#x127;" horiz-adv-x="1163" 
d="M653 948q164 0 254 -93t90 -267v-588h-155v520q0 147 -56.5 215t-180.5 68t-203.5 -97.5t-79.5 -250.5v-455h-156v1145h-133v133h133v223h156v-223h309v-133h-309v-397q118 200 331 200z" />
    <glyph glyph-name="Itilde" unicode="&#x128;" horiz-adv-x="530" 
d="M180 1450h170v-1450h-170v1450zM420.5 1661q-65.5 0 -162 51t-133.5 51q-55 0 -76 -90l-14 -12h-109q14 106 67.5 169.5t115 63.5t163 -51t136.5 -51q55 0 75 90l15 12h108q-14 -106 -67 -169.5t-118.5 -63.5z" />
    <glyph glyph-name="itilde" unicode="&#x129;" horiz-adv-x="487" 
d="M166 0v909h156v-909h-156zM397.5 1120q-65.5 0 -162 51.5t-133.5 51.5q-55 0 -75 -90l-15 -13h-108q14 106 67.5 170t114.5 64t162.5 -51.5t136.5 -51.5q55 0 76 90l14 13h109q-14 -106 -67.5 -170t-119 -64z" />
    <glyph glyph-name="Imacron" unicode="&#x12a;" horiz-adv-x="530" 
d="M180 1450h170v-1450h-170v1450zM-10 1636v142h553v-142h-553z" />
    <glyph glyph-name="imacron" unicode="&#x12b;" horiz-adv-x="487" 
d="M166 0v909h156v-909h-156zM-33 1176v131h553v-131h-553z" />
    <glyph glyph-name="Ibreve" unicode="&#x12c;" horiz-adv-x="530" 
d="M180 1450h170v-1450h-170v1450zM266.5 1647q-139.5 0 -227.5 71.5t-96 190.5l14 14h115q33 -143 194.5 -143t194.5 143h114l15 -14q-8 -119 -96 -190.5t-227.5 -71.5z" />
    <glyph glyph-name="ibreve" unicode="&#x12d;" horiz-adv-x="487" 
d="M166 0v909h156v-909h-156zM243.5 1106q-139.5 0 -227.5 71.5t-96 190.5l14 14h115q33 -143 195 -143t194 143h115l14 -14q-8 -119 -96 -190.5t-227.5 -71.5z" />
    <glyph glyph-name="Iogonek" unicode="&#x12e;" horiz-adv-x="530" 
d="M242 -457q-88 0 -145.5 48.5t-57.5 125.5q0 143 190 283h-49v1450h170v-1450h-22q-166 -131 -166 -248q0 -43 29.5 -70.5t77.5 -27.5t93 35h11l35 -95q-78 -51 -166 -51z" />
    <glyph glyph-name="iogonek" unicode="&#x12f;" horiz-adv-x="487" 
d="M219 -457q-88 0 -145.5 48.5t-57.5 125.5q0 143 191 283h-41v909h156v-909h-17q-166 -131 -166 -248q0 -43 30 -70.5t78 -27.5t93 35h10l35 -95q-78 -51 -166 -51zM244 1124q-47 0 -81 33t-34 81t34 82t81 34t80.5 -35t33.5 -82t-33.5 -80t-80.5 -33z" />
    <glyph glyph-name="Idotaccent" unicode="&#x130;" horiz-adv-x="530" 
d="M180 1450h170v-1450h-170v1450zM266 1595q-47 0 -80.5 33t-33.5 81t33.5 82t80.5 34t81 -35t34 -82t-34 -80t-81 -33z" />
    <glyph glyph-name="dotlessi" unicode="&#x131;" horiz-adv-x="487" 
d="M166 0v909h156v-909h-156z" />
    <glyph glyph-name="IJ" unicode="&#x132;" horiz-adv-x="1511" 
d="M948 115q106 0 164.5 82t58.5 235v1018h170v-1026q0 -215 -101 -338t-267.5 -123t-267.5 75t-134 212l125 59l31 -8q51 -186 221 -186zM180 1450h170v-1450h-170v1450z" />
    <glyph glyph-name="ij" unicode="&#x133;" horiz-adv-x="974" 
d="M530 -471q-63 0 -120 22l18 132l16 8q39 -14 76 -15q72 0 102.5 46.5t30.5 158.5v1028h156v-1048q0 -332 -279 -332zM166 0v909h156v-909h-156zM731 1227q-47 0 -81 32.5t-34 80.5t34 82t81 34t81 -35t34 -82t-34 -79.5t-81 -32.5zM244 1227q-47 0 -81 32.5t-34 80.5
t34 82t81 34t80.5 -35t33.5 -82t-33.5 -79.5t-80.5 -32.5z" />
    <glyph glyph-name="Kcommaaccent" unicode="&#x136;" horiz-adv-x="1249" 
d="M600 -514l-115 45l113 369l20 8l154 -62zM350 0h-170v1450h170v-793h2l324 367l366 426h207l-549 -631l580 -819h-209l-483 692l-238 -264v-428z" />
    <glyph glyph-name="kcommaaccent" unicode="&#x137;" horiz-adv-x="1009" 
d="M477 -514l-115 45l113 369l21 8l153 -62zM322 0h-156v1501h156v-1003q82 78 243 239l174 172h209l-375 -350l431 -559h-193l-344 461l-145 -135v-326z" />
    <glyph glyph-name="kgreenlandic" unicode="&#x138;" horiz-adv-x="1009" 
d="M322 0h-156v909h156v-411q82 78 243 239l174 172h209l-375 -350l431 -559h-193l-344 461l-145 -135v-326z" />
    <glyph glyph-name="Lacute" unicode="&#x139;" horiz-adv-x="1056" 
d="M180 1450h170v-1294h686l-18 -156h-838v1450zM102 1565l189 274h172l8 -14l-242 -260h-127z" />
    <glyph glyph-name="lacute" unicode="&#x13a;" horiz-adv-x="487" 
d="M166 0v1501h156v-1501h-156zM80 1565l188 274h172l9 -14l-242 -260h-127z" />
    <glyph glyph-name="Lcommaaccent" unicode="&#x13b;" horiz-adv-x="1056" 
d="M500 -514l-115 45l113 369l20 8l154 -62zM180 1450h170v-1294h686l-18 -156h-838v1450z" />
    <glyph glyph-name="lcommaaccent" unicode="&#x13c;" horiz-adv-x="487" 
d="M215 -514l-115 45l113 369l20 8l154 -62zM166 0v1501h156v-1501h-156z" />
    <glyph glyph-name="Lcaron" unicode="&#x13d;" horiz-adv-x="1056" 
d="M180 1450h170v-1294h686l-18 -156h-838v1450zM627 1028l-111 43l143 410l21 8l139 -55z" />
    <glyph glyph-name="lcaron" unicode="&#x13e;" horiz-adv-x="724" 
d="M532 1028l-110 43l143 410l21 8l139 -55zM166 0v1501h156v-1501h-156z" />
    <glyph glyph-name="Ldot" unicode="&#x13f;" horiz-adv-x="1056" 
d="M665.5 606q-49.5 0 -84 35t-34.5 84t34.5 84t84 35t84 -35t34.5 -84t-34.5 -84t-84 -35zM180 1450h170v-1294h686l-18 -156h-838v1450z" />
    <glyph glyph-name="ldot" unicode="&#x140;" horiz-adv-x="557" 
d="M522 684q-49 0 -84 35t-35 84t35 84t84 35t84 -35t35 -84t-35 -84t-84 -35zM166 0v1501h156v-1501h-156z" />
    <glyph glyph-name="Lslash" unicode="&#x141;" horiz-adv-x="1056" 
d="M350 156h686l-18 -156h-838v588l-164 -92v149l164 92v713h170v-619l328 185v-152l-328 -182v-526z" />
    <glyph glyph-name="lslash" unicode="&#x142;" horiz-adv-x="487" 
d="M322 0h-156v688l-131 -78v144l131 77v670h156v-577l131 77v-143l-131 -78v-780z" />
    <glyph glyph-name="Nacute" unicode="&#x143;" horiz-adv-x="1587" 
d="M180 0v1450h109l657 -745q205 -236 287 -328h6v1073h168v-1479h-35l-1018 1151h-6v-1122h-168zM666 1565l188 274h172l8 -14l-241 -260h-127z" />
    <glyph glyph-name="nacute" unicode="&#x144;" horiz-adv-x="1163" 
d="M166 909h156v-161q119 201 331 200q164 0 254 -93t90 -267v-588h-155v520q0 147 -56.5 215t-180.5 68t-203.5 -97.5t-79.5 -250.5v-455h-156v909zM410 1094l225 376h172l8 -14l-278 -362h-127z" />
    <glyph glyph-name="Ncommaaccent" unicode="&#x145;" horiz-adv-x="1587" 
d="M766 -514l-115 45l113 369l20 8l154 -62zM180 0v1450h109l657 -745q205 -236 287 -328h6v1073h168v-1479h-35l-1018 1151h-6v-1122h-168z" />
    <glyph glyph-name="ncommaaccent" unicode="&#x146;" horiz-adv-x="1163" 
d="M545 -514l-115 45l113 369l20 8l154 -62zM166 909h156v-161q119 201 331 200q164 0 254 -93t90 -267v-588h-155v520q0 147 -56.5 215t-180.5 68t-203.5 -97.5t-79.5 -250.5v-455h-156v909z" />
    <glyph glyph-name="Ncaron" unicode="&#x147;" horiz-adv-x="1587" 
d="M180 0v1450h109l657 -745q205 -236 287 -328h6v1073h168v-1479h-35l-1018 1151h-6v-1122h-168zM739 1565l-196 258l10 16h121l155 -201l154 201h121l10 -16l-194 -258h-181z" />
    <glyph glyph-name="ncaron" unicode="&#x148;" horiz-adv-x="1163" 
d="M166 909h156v-161q119 201 331 200q164 0 254 -93t90 -267v-588h-155v520q0 147 -56.5 215t-180.5 68t-203.5 -97.5t-79.5 -250.5v-455h-156v909zM582 1184l170 286h120l11 -16l-211 -360h-180l-211 360l10 16h121z" />
    <glyph glyph-name="Eng" unicode="&#x14a;" horiz-adv-x="1587" 
d="M1128 -471q-63 0 -120 22l18 136l16 8q39 -14 76 -14q66 0 94.5 46t28.5 154v238l-887 1003h-6v-1122h-168v1450h109l657 -745q205 -236 287 -328h6v1073h168v-1585q0 -336 -279 -336z" />
    <glyph glyph-name="eng" unicode="&#x14b;" horiz-adv-x="1163" 
d="M653 948q164 0 254 -93t90 -267v-727q0 -332 -278 -332q-63 0 -121 22l18 132l17 8q39 -14 76 -15q73 0 103 46t30 159v639q0 147 -56 215t-181 68q-124 0 -204 -97t-79 -251v-455h-156v909h156v-161q118 200 331 200z" />
    <glyph glyph-name="Omacron" unicode="&#x14c;" horiz-adv-x="1765" 
d="M883 121q258 0 426 174t168 431t-167 430t-427 173t-427 -173t-167 -430t168 -431t426 -174zM883 -39q-334 0 -553 219t-219 545t217 545t555 219t555 -219t217 -545t-219 -545t-553 -219zM606 1636v142h553v-142h-553z" />
    <glyph glyph-name="omacron" unicode="&#x14d;" horiz-adv-x="1175" 
d="M588 106q142 0 238 102t96 248t-96.5 246.5t-238 100.5t-237.5 -100.5t-96 -246.5t96 -248t238 -102zM588 -39q-211 0 -354.5 142.5t-143.5 351.5t142.5 351t355.5 142t355 -142t142 -351t-143 -351.5t-354 -142.5zM311 1176v131h553v-131h-553z" />
    <glyph glyph-name="Obreve" unicode="&#x14e;" horiz-adv-x="1765" 
d="M883 121q258 0 426 174t168 431t-167 430t-427 173t-427 -173t-167 -430t168 -431t426 -174zM883 -39q-334 0 -553 219t-219 545t217 545t555 219t555 -219t217 -545t-219 -545t-553 -219zM882.5 1647q-139.5 0 -227.5 71.5t-96 190.5l14 14h115q33 -143 194.5 -143
t194.5 143h115l14 -14q-8 -119 -96 -190.5t-227.5 -71.5z" />
    <glyph glyph-name="obreve" unicode="&#x14f;" horiz-adv-x="1175" 
d="M588 106q142 0 238 102t96 248t-96.5 246.5t-238 100.5t-237.5 -100.5t-96 -246.5t96 -248t238 -102zM588 -39q-211 0 -354.5 142.5t-143.5 351.5t142.5 351t355.5 142t355 -142t142 -351t-143 -351.5t-354 -142.5zM588 1106q-139 0 -227.5 71.5t-96.5 190.5l15 14h114
q33 -143 195 -143t194 143h115l14 -14q-8 -119 -96 -190.5t-227 -71.5z" />
    <glyph glyph-name="Ohungarumlaut" unicode="&#x150;" horiz-adv-x="1765" 
d="M883 121q258 0 426 174t168 431t-167 430t-427 173t-427 -173t-167 -430t168 -431t426 -174zM883 -39q-334 0 -553 219t-219 545t217 545t555 219t555 -219t217 -545t-219 -545t-553 -219zM967 1565l186 274h172l8 -14l-239 -260h-127zM635 1565l186 274h172l8 -14
l-239 -260h-127z" />
    <glyph glyph-name="ohungarumlaut" unicode="&#x151;" horiz-adv-x="1175" 
d="M588 106q142 0 238 102t96 248t-96.5 246.5t-238 100.5t-237.5 -100.5t-96 -246.5t96 -248t238 -102zM588 -39q-211 0 -354.5 142.5t-143.5 351.5t142.5 351t355.5 142t355 -142t142 -351t-143 -351.5t-354 -142.5zM686 1094l225 376h172l9 -14l-279 -362h-127zM358 1094
l226 376h172l8 -14l-279 -362h-127z" />
    <glyph glyph-name="OE" unicode="&#x152;" horiz-adv-x="2084" 
d="M289 726q0 -257 168 -431t426 -174q119 0 217 37v1134q-98 37 -217 37q-260 0 -427 -173t-167 -430zM1270 666v-510h682l-19 -156h-794q-127 -39 -256 -39q-334 0 -553 219t-219 545t217 545t555 219q131 0 258 -39h792l19 -156h-682v-473h633v-155h-633z" />
    <glyph glyph-name="oe" unicode="&#x153;" horiz-adv-x="1886" 
d="M580 106q139 0 232 100t93 248t-92 248t-233 100q-142 0 -234 -100t-92 -247t94 -248t232 -101zM1354 809q-114 1 -191 -67q-76 -68 -94 -189h553q-8 119 -81 187t-187 69zM580 -39q-211 0 -351 142q-139 143 -139 353t138 351t352 141q129 0 231 -57t162 -162h6
q131 219 379 219q198 0 314 -129t116 -358q0 -18 -2 -35h-723v-8q0 -144 86 -230t219 -86q168 0 279 170l16 4l113 -75q-141 -240 -414 -240q-127 0 -229 55t-162 162h-6q-133 -217 -385 -217z" />
    <glyph glyph-name="Racute" unicode="&#x154;" horiz-adv-x="1228" 
d="M350 1296v-505h205q182 0 264 57t82 194t-82 195.5t-264 58.5h-205zM350 639v-639h-170v1448h418q231 0 353 -102.5t122 -307.5q0 -143 -78 -240t-225 -134l459 -631l-15 -33h-172l-452 639h-240zM809 1825l-242 -260h-127l189 274h172z" />
    <glyph glyph-name="racute" unicode="&#x155;" horiz-adv-x="806" 
d="M166 0v909h139v-184q111 223 297 223q135 0 189 -145l-134 -78l-16 4q-33 74 -111 74t-143 -103.5t-65 -273.5v-426h-156zM231 1094l226 376h172l8 -14l-279 -362h-127z" />
    <glyph glyph-name="Rcommaaccent" unicode="&#x156;" horiz-adv-x="1228" 
d="M584 -100l20 8l154 -62l-172 -360l-115 45zM350 1296v-505h205q182 0 264 57t82 194t-82 195.5t-264 58.5h-205zM350 639v-639h-170v1448h418q231 0 353 -102.5t122 -307.5q0 -143 -78 -240t-225 -134l459 -631l-15 -33h-172l-452 639h-240z" />
    <glyph glyph-name="rcommaaccent" unicode="&#x157;" horiz-adv-x="806" 
d="M178 -514l-115 45l113 369l21 8l153 -62zM166 0v909h139v-184q111 223 297 223q135 0 189 -145l-134 -78l-16 4q-33 74 -111 74t-143 -103.5t-65 -273.5v-426h-156z" />
    <glyph glyph-name="Rcaron" unicode="&#x158;" horiz-adv-x="1228" 
d="M350 1296v-505h205q182 0 264 57t82 194t-82 195.5t-264 58.5h-205zM350 639v-639h-170v1448h418q231 0 353 -102.5t122 -307.5q0 -143 -78 -240t-225 -134l459 -631l-15 -33h-172l-452 639h-240zM694 1565h-180l-197 258l11 16h121l155 -201l154 201h121l10 -16z" />
    <glyph glyph-name="rcaron" unicode="&#x159;" horiz-adv-x="806" 
d="M166 0v909h139v-184q111 223 297 223q135 0 189 -145l-134 -78l-16 4q-33 74 -111 74t-143 -103.5t-65 -273.5v-426h-156zM403 1184l170 286h121l11 -16l-211 -360h-181l-211 360l11 16h120z" />
    <glyph glyph-name="Sacute" unicode="&#x15a;" horiz-adv-x="1159" 
d="M613.5 -37q-185.5 0 -305.5 70.5t-206 230.5l123 84l35 -8q68 -123 146.5 -175t196.5 -52t198 72.5t80 177t-70 178t-274.5 158.5t-295.5 187.5t-91 251t115.5 250t314.5 101.5q291 0 415 -225l-118 -82l-35 8q-96 152 -267 151q-117 0 -183 -57t-66 -145t63.5 -148.5
t278.5 -159t302 -203t87 -267t-129 -280.5t-314.5 -118zM420 1565l188 274h172l8 -14l-241 -260h-127z" />
    <glyph glyph-name="sacute" unicode="&#x15b;" horiz-adv-x="858" 
d="M432 -39q-254 0 -364 199l122 84l11 -2q80 -145 235 -146q82 0 131 35t49 89t-42 92t-192 92t-215 122t-65 170t87 177t219 75t218.5 -52t123.5 -140l-107 -74l-16 2q-57 129 -209 129q-74 0 -116 -32.5t-42 -80.5t40 -84t192 -94t217 -124t65 -176t-95 -185.5
t-247 -75.5zM258 1094l225 376h172l9 -14l-279 -362h-127z" />
    <glyph glyph-name="Scedilla" unicode="&#x15e;" horiz-adv-x="1159" 
d="M1057 366q0 -159 -119 -275t-305 -128l-70 -117q27 8 82.5 8.5t103.5 -40.5t48 -115t-62.5 -122t-174 -48t-198.5 45l31 84l17 6q78 -43 140 -43q124 0 124 84q0 76 -111 76q-45 0 -88 -17l-37 35l103 166q-147 10 -254 82t-185 217l123 84l35 -8q68 -123 146.5 -175
t196.5 -52t198 72.5t80 177t-70 178t-274.5 158.5t-295.5 187.5t-91 251t115.5 250t314.5 101.5q291 0 415 -225l-118 -82l-35 8q-96 152 -267 151q-117 0 -183 -57t-66 -145t63.5 -148.5t278.5 -159t302 -202.5t87 -263z" />
    <glyph glyph-name="scedilla" unicode="&#x15f;" horiz-adv-x="858" 
d="M774 227.5q0 -104.5 -79 -177.5t-212 -87l-69 -117q27 8 82 8.5t103 -40.5t48 -115t-62.5 -122t-173.5 -48t-198 45l31 84l16 6q80 -43 142 -43q122 0 122 84q0 76 -110 76q-45 0 -88 -17l-37 35l102 164q-223 16 -323 197l122 84l11 -2q80 -145 235 -146q82 0 131 35
t49 89t-42 92t-192 92t-215 122t-65 170t87 177t219.5 75t218.5 -52t123 -140l-107 -74l-16 2q-57 129 -209 129q-74 0 -116 -32.5t-42 -81t40 -84t191.5 -93.5t217 -124t65.5 -170.5z" />
    <glyph glyph-name="Scaron" unicode="&#x160;" horiz-adv-x="1159" 
d="M613.5 -37q-185.5 0 -305.5 70.5t-206 230.5l123 84l35 -8q68 -123 146.5 -175t196.5 -52t198 72.5t80 177t-70 178t-274.5 158.5t-295.5 187.5t-91 251t115.5 250t314.5 101.5q291 0 415 -225l-118 -82l-35 8q-96 152 -267 151q-117 0 -183 -57t-66 -145t63.5 -148.5
t278.5 -159t302 -203t87 -267t-129 -280.5t-314.5 -118zM494 1565l-197 258l10 16h121l156 -201l153 201h121l10 -16l-194 -258h-180z" />
    <glyph glyph-name="scaron" unicode="&#x161;" horiz-adv-x="858" 
d="M432 -39q-254 0 -364 199l122 84l11 -2q80 -145 235 -146q82 0 131 35t49 89t-42 92t-192 92t-215 122t-65 170t87 177t219 75t218.5 -52t123.5 -140l-107 -74l-16 2q-57 129 -209 129q-74 0 -116 -32.5t-42 -80.5t40 -84t192 -94t217 -124t65 -176t-95 -185.5
t-247 -75.5zM430 1184l170 286h121l10 -16l-211 -360h-180l-211 360l10 16h121z" />
    <glyph glyph-name="uni0162" unicode="&#x162;" horiz-adv-x="1210" 
d="M803 -301q-1 -74 -63 -122t-174 -48t-197 45l30 84l17 6q80 -43 141 -43t92 23t31 61q0 76 -111 76q-45 0 -88 -17l-37 35l125 201h-49v1294h-500v156h1170v-156h-500v-1294h-28l-93 -154q27 8 83 8t103 -40q48 -41 48 -115z" />
    <glyph glyph-name="uni0163" unicode="&#x163;" horiz-adv-x="702" 
d="M456.5 -145q55.5 0 103.5 -41t48 -115t-62.5 -122t-173.5 -48t-198 45l31 84l16 6q79 -43 141 -43q124 0 123 84q0 76 -110 76q-45 0 -88 -17l-37 35l110 178q-156 55 -155 254v545h-174v133h174v287l135 82h20v-369h273v-133h-273v-497q0 -96 30 -134.5t94.5 -38.5
t127.5 29l17 -8l6 -137q-80 -29 -168 -29h-23l-69 -115q26 9 81.5 9z" />
    <glyph glyph-name="Tcaron" unicode="&#x164;" horiz-adv-x="1210" 
d="M520 1294h-500v156h1170v-156h-500v-1294h-170v1294zM516 1565l-197 258l11 16h121l155 -201l154 201h121l10 -16l-195 -258h-180z" />
    <glyph glyph-name="tcaron" unicode="&#x165;" horiz-adv-x="722" 
d="M449.5 -39q-105.5 0 -175 70.5t-69.5 199.5v545h-174v133h174v287l135 82h20v-369h273v-133h-273v-497q0 -96 30 -134.5t94.5 -38.5t127.5 29l17 -8l6 -137q-80 -29 -185.5 -29zM606 1028l-110 43l143 410l20 8l140 -55z" />
    <glyph glyph-name="Tbar" unicode="&#x166;" horiz-adv-x="1210" 
d="M1190 1294h-500v-473h268v-135h-268v-686h-170v686h-268v135h268v473h-500v156h1170v-156z" />
    <glyph glyph-name="tbar" unicode="&#x167;" horiz-adv-x="702" 
d="M449.5 -39q-105.5 0 -175 70.5t-69.5 199.5v269h-154v112h154v164h-174v133h174v287l135 82h20v-369h273v-133h-273v-164h252v-112h-252v-221q0 -96 30 -134.5t94.5 -38.5t127.5 29l17 -8l6 -137q-80 -29 -185.5 -29z" />
    <glyph glyph-name="Utilde" unicode="&#x168;" horiz-adv-x="1486" 
d="M743 -39q-573 0 -573 598v891h170v-877q0 -233 97.5 -342.5t306 -109.5t306 109.5t97.5 344.5v875h170v-889q0 -289 -147.5 -444.5t-426.5 -155.5zM897.5 1661q-65.5 0 -162 51t-133.5 51q-55 0 -76 -90l-14 -12h-109q14 106 67.5 169.5t115 63.5t163 -51t136.5 -51
q55 0 76 90l14 12h108q-14 -106 -67 -169.5t-118.5 -63.5z" />
    <glyph glyph-name="utilde" unicode="&#x169;" horiz-adv-x="1136" 
d="M971 0h-156v158q-55 -94 -141 -145.5t-180 -51.5q-156 0 -242 95.5t-86 273.5v579h156v-528q0 -274 219 -275q119 0 196.5 96.5t77.5 252.5v454h156v-909zM721.5 1126q-65.5 0 -162 51.5t-133.5 51.5q-55 0 -76 -90l-14 -13h-109q14 106 67.5 170t115 64t163 -51.5
t136.5 -51.5q55 0 75 91l15 12h108q-14 -106 -67 -170t-118.5 -64z" />
    <glyph glyph-name="Umacron" unicode="&#x16a;" horiz-adv-x="1486" 
d="M743 -39q-573 0 -573 598v891h170v-877q0 -233 97.5 -342.5t306 -109.5t306 109.5t97.5 344.5v875h170v-889q0 -289 -147.5 -444.5t-426.5 -155.5zM467 1636v142h553v-142h-553z" />
    <glyph glyph-name="umacron" unicode="&#x16b;" horiz-adv-x="1136" 
d="M971 0h-156v158q-55 -94 -141 -145.5t-180 -51.5q-156 0 -242 95.5t-86 273.5v579h156v-528q0 -274 219 -275q119 0 196.5 96.5t77.5 252.5v454h156v-909zM291 1182v131h553v-131h-553z" />
    <glyph glyph-name="Ubreve" unicode="&#x16c;" horiz-adv-x="1486" 
d="M743 -39q-573 0 -573 598v891h170v-877q0 -233 97.5 -342.5t306 -109.5t306 109.5t97.5 344.5v875h170v-889q0 -289 -147.5 -444.5t-426.5 -155.5zM743.5 1647q-139.5 0 -227.5 71.5t-96 190.5l14 14h115q33 -143 194.5 -143t194.5 143h115l14 -14q-8 -119 -96 -190.5
t-227.5 -71.5z" />
    <glyph glyph-name="ubreve" unicode="&#x16d;" horiz-adv-x="1136" 
d="M971 0h-156v158q-55 -94 -141 -145.5t-180 -51.5q-156 0 -242 95.5t-86 273.5v579h156v-528q0 -274 219 -275q119 0 196.5 96.5t77.5 252.5v454h156v-909zM567.5 1112q-139.5 0 -227.5 71.5t-96 190.5l14 15h115q33 -143 194.5 -143.5t194.5 143.5h115l14 -15
q-8 -119 -96 -190.5t-227.5 -71.5z" />
    <glyph glyph-name="Uring" unicode="&#x16e;" horiz-adv-x="1486" 
d="M743 -39q-573 0 -573 598v891h170v-877q0 -233 97.5 -342.5t306 -109.5t306 109.5t97.5 344.5v875h170v-889q0 -289 -147.5 -444.5t-426.5 -155.5zM743.5 1624q51.5 0 84 34t32.5 83t-32.5 83t-84 34t-84 -34t-32.5 -83t32.5 -83t84 -34zM743.5 1546q-81.5 0 -139 56.5
t-57.5 138.5t57.5 138t139 56t139 -56t57.5 -138t-57.5 -138.5t-139 -56.5z" />
    <glyph glyph-name="uring" unicode="&#x16f;" horiz-adv-x="1136" 
d="M971 0h-156v158q-55 -94 -141 -145.5t-180 -51.5q-156 0 -242 95.5t-86 273.5v579h156v-528q0 -274 219 -275q119 0 196.5 96.5t77.5 252.5v454h156v-909zM567 1159q51 0 84 34t33 83t-33 83t-84 34t-83.5 -34t-32.5 -83t32.5 -83t83.5 -34zM567 1081q-82 0 -139 56.5
t-57 138.5t57 138t139 56t139.5 -56t57.5 -138t-57.5 -138.5t-139.5 -56.5z" />
    <glyph glyph-name="Uhungarumlaut" unicode="&#x170;" horiz-adv-x="1486" 
d="M743 -39q-573 0 -573 598v891h170v-877q0 -233 97.5 -342.5t306 -109.5t306 109.5t97.5 344.5v875h170v-889q0 -289 -147.5 -444.5t-426.5 -155.5zM827 1565l187 274h172l8 -14l-240 -260h-127zM496 1565l186 274h172l8 -14l-239 -260h-127z" />
    <glyph glyph-name="uhungarumlaut" unicode="&#x171;" horiz-adv-x="1136" 
d="M971 0h-156v158q-55 -94 -141 -145.5t-180 -51.5q-156 0 -242 95.5t-86 273.5v579h156v-528q0 -274 219 -275q119 0 196.5 96.5t77.5 252.5v454h156v-909zM666 1100l225 377h172l8 -15l-278 -362h-127zM338 1100l225 377h172l8 -15l-278 -362h-127z" />
    <glyph glyph-name="Uogonek" unicode="&#x172;" horiz-adv-x="1486" 
d="M1147 1450h170v-889q0 -442 -330 -561q-166 -131 -166 -248q0 -43 30 -70.5t78 -27.5t93 35h10l35 -95q-78 -51 -166 -51t-145.5 48.5t-57.5 125.5q0 125 150 250q-49 -6 -105 -6q-573 0 -573 598v891h170v-877q0 -233 97.5 -342.5t306 -109.5t306 109.5t97.5 344.5v875z
" />
    <glyph glyph-name="uogonek" unicode="&#x173;" horiz-adv-x="1136" 
d="M856 -457q-88 0 -145.5 48.5t-57.5 125.5q0 143 191 283h-29v158q-55 -94 -141 -145.5t-180 -51.5q-156 0 -242 95.5t-86 273.5v579h156v-528q0 -274 219 -275q119 0 196.5 96.5t77.5 252.5v454h156v-909h-29q-166 -131 -166 -248q0 -43 30 -70.5t78 -27.5t93 35h10
l35 -95q-78 -51 -166 -51z" />
    <glyph glyph-name="Wcircumflex" unicode="&#x174;" horiz-adv-x="1945" 
d="M487 -29l-456 1479h182l334 -1116h8q68 182 121 334l274 768h45l275 -768q53 -152 121 -334h8l334 1116h182l-457 -1479h-100l-279 781q-33 94 -102 282h-8q-53 -154 -101 -280l-280 -783h-101zM973 1765l-170 -200h-121l-10 16l211 258h180l211 -258l-10 -16h-121z" />
    <glyph glyph-name="wcircumflex" unicode="&#x175;" horiz-adv-x="1388" 
d="M375 -33l-334 942h166l207 -630h4l260 618h37l256 -618h4l211 630h162l-334 -942h-45l-273 627h-4l-272 -627h-45zM694 1380l-170 -286h-121l-10 16l211 360h180l211 -360l-10 -16h-121z" />
    <glyph glyph-name="Ycircumflex" unicode="&#x176;" horiz-adv-x="1185" 
d="M508 0v596l-508 854h186l230 -410q27 -49 174 -295h8q141 236 172 293l229 412h187l-508 -854v-596h-170zM594 1765l-170 -200h-121l-10 16l211 258h180l211 -258l-10 -16h-121z" />
    <glyph glyph-name="ycircumflex" unicode="&#x177;" horiz-adv-x="950" 
d="M137 -446l260 536l-368 819h178l270 -651h4l281 651h176l-625 -1355h-176zM492 1380l-170 -286h-121l-11 16l211 360h181l211 -360l-11 -16h-120z" />
    <glyph glyph-name="Ydieresis" unicode="&#x178;" horiz-adv-x="1185" 
d="M508 0v596l-508 854h186l230 -410q27 -49 174 -295h8q141 236 172 293l229 412h187l-508 -854v-596h-170zM684 1714q0 47 34 81t80 34t78.5 -34t32.5 -81t-31.5 -78.5t-79.5 -31.5t-81 31.5t-33 78.5zM279 1714q0 47 34.5 81t79.5 34t78 -33t33 -81t-31 -79.5t-80 -31.5
t-81.5 31.5t-32.5 78.5z" />
    <glyph glyph-name="Zacute" unicode="&#x179;" horiz-adv-x="1292" 
d="M84 1294v156h1178v-37l-936 -1251h903v-162h-1198v37l940 1257h-887zM483 1565l189 274h172l8 -14l-242 -260h-127z" />
    <glyph glyph-name="zacute" unicode="&#x17a;" horiz-adv-x="919" 
d="M80 772v137h782v-20l-540 -752h536v-137h-797v20l539 752h-520zM289 1094l225 376h172l8 -14l-278 -362h-127z" />
    <glyph glyph-name="Zdotaccent" unicode="&#x17b;" horiz-adv-x="1292" 
d="M84 1294v156h1178v-37l-936 -1251h903v-162h-1198v37l940 1257h-887zM647 1595q-47 0 -81 33t-34 81t34 82t81 34t81 -35t34 -82t-34 -80t-81 -33z" />
    <glyph glyph-name="zdotaccent" unicode="&#x17c;" horiz-adv-x="919" 
d="M80 772v137h782v-20l-540 -752h536v-137h-797v20l539 752h-520zM461 1124q-47 0 -81 33t-34 81t34 82t81 34t80.5 -35t33.5 -82t-33.5 -80t-80.5 -33z" />
    <glyph glyph-name="Zcaron" unicode="&#x17d;" horiz-adv-x="1292" 
d="M84 1294v156h1178v-37l-936 -1251h903v-162h-1198v37l940 1257h-887zM557 1565l-197 258l11 16h121l155 -201l154 201h121l10 -16l-195 -258h-180z" />
    <glyph glyph-name="zcaron" unicode="&#x17e;" horiz-adv-x="919" 
d="M80 772v137h782v-20l-540 -752h536v-137h-797v20l539 752h-520zM461 1184l170 286h121l10 -16l-211 -360h-180l-211 360l10 16h121z" />
    <glyph glyph-name="florin" unicode="&#x192;" horiz-adv-x="1433" 
d="M1004 1489q72 0 139 -25l-29 -139l-16 -6q-46 23 -104 23t-96 -51q-38 -50 -56 -179l-33 -240h227l-18 -133h-227l-103 -729q-45 -328 -317 -327q-63 0 -121 24l33 131l16 6q39 -14 72 -14q71 0 111 49t55 160l98 700h-174l18 133h174l33 236q31 213 102 297
q73 84 216 84z" />
    <glyph glyph-name="Aringacute" unicode="&#x1fa;" horiz-adv-x="1363" 
d="M389 528h584q-191 461 -291 711h-4zM1192 0l-158 383h-704l-158 -383h-182l626 1450h136l622 -1450h-182zM682 1858q-51 0 -84 -34t-33 -83t33 -83t84 -34t84 34t33 83t-33 83t-84 34zM682 1546q-82 0 -139.5 56.5t-57.5 138.5t57.5 138t139.5 56t139.5 -56t57.5 -138
t-57.5 -138.5t-139.5 -56.5zM887 2269l-242 -260h-127l189 275h172z" />
    <glyph glyph-name="aringacute" unicode="&#x1fb;" horiz-adv-x="987" 
d="M260 215q0 -121 143 -121t252 113v225q-215 -35 -305 -86t-90 -131zM362 -39q-121 0 -193.5 68.5t-72.5 181.5q0 266 559 340v57q0 199 -163 199q-156 0 -265 -160l-16 -2l-109 72q63 106 170 168.5t241 62.5t216 -80t82 -225v-487q0 -30 10 -42q22 -25 97 3l16 -8v-121
q-70 -20 -129 -21q-133 0 -143 133q-139 -139 -300 -139zM491.5 1386q-51.5 0 -84 -33.5t-32.5 -82.5t32.5 -83t84 -34t84 34t32.5 83t-32.5 82.5t-84 33.5zM491.5 1075q-81.5 0 -139 56.5t-57.5 138.5t57.5 138t139 56t139 -56t57.5 -138t-57.5 -138.5t-139 -56.5z
M725 1929l-279 -362h-127l226 377h172z" />
    <glyph glyph-name="AEacute" unicode="&#x1fc;" horiz-adv-x="1902" 
d="M918 528v457q0 102 8 315h-4q-51 -115 -166 -315l-267 -457h429zM1087 666v-510h682l-18 -156h-833v383h-512l-224 -383h-192l862 1450h899l18 -156h-682v-473h633v-155h-633zM1198 1565l188 274h173l8 -14l-242 -260h-127z" />
    <glyph glyph-name="aeacute" unicode="&#x1fd;" horiz-adv-x="1603" 
d="M260 215q0 -121 135 -121t295 152q-29 80 -33 176q-219 -31 -308 -78t-89 -129zM1093 809q-101 0 -175.5 -68.5t-92.5 -187.5h514q-8 117 -76.5 186.5t-169.5 69.5zM350.5 -39q-109.5 0 -182 68.5t-72.5 181.5q0 262 559 332v65q0 199 -163 199q-156 0 -265 -160l-16 -2
l-109 72q63 106 171 168.5t235 62.5q205 0 266 -164h4q111 164 324 164q176 0 289.5 -130t113.5 -357q0 -18 -2 -35h-684q0 -143 81 -233.5t196 -90.5q158 0 268 170l16 4l113 -75q-70 -117 -174.5 -178.5t-218.5 -61.5t-208.5 49t-154.5 140q-106 -104 -191.5 -146.5
t-195 -42.5zM631 1094l225 376h172l8 -14l-278 -362h-127z" />
    <glyph glyph-name="Oslashacute" unicode="&#x1fe;" horiz-adv-x="1765" 
d="M883 121q258 0 426 174t168 429t-160 427l-780 -924q147 -106 346 -106zM289 728q0 -255 164 -429l780 924q-152 106 -350 106q-260 0 -427 -173t-167 -428zM883 -39q-256 0 -455 137l-106 -127l-91 66l111 131q-231 221 -231 552t217 550t555 219q262 0 458 -139
l109 129l86 -68l-111 -131q229 -217 229.5 -549t-218.5 -551t-553 -219zM1087 1825l-241 -260h-127l188 274h172z" />
    <glyph glyph-name="oslashacute" unicode="&#x1ff;" horiz-adv-x="1175" 
d="M588 106q141 0 237.5 101.5t96.5 239t-74 229.5l-436 -518q76 -52 176 -52zM254 466q0 -136 76 -235l438 519q-78 53 -180 53q-141 0 -237.5 -100.5t-96.5 -236.5zM1085 452q0 -206 -143 -348.5t-354 -142.5q-152 0 -277 80l-57 -70l-90 66l63 74q-137 141 -137 347
t142.5 348t355.5 142q158 0 278 -80l60 70l86 -68l-62 -71q135 -141 135 -347zM416 1094l225 376h172l8 -14l-278 -362h-127z" />
    <glyph glyph-name="Scommaaccent" unicode="&#x218;" horiz-adv-x="1159" 
d="M551 -514l-115 45l113 369l20 8l154 -62zM613.5 -37q-185.5 0 -305.5 70.5t-206 230.5l123 84l35 -8q68 -123 146.5 -175t196.5 -52t198 72.5t80 177t-70 178t-274.5 158.5t-295.5 187.5t-91 251t115.5 250t314.5 101.5q291 0 415 -225l-118 -82l-35 8q-96 152 -267 151
q-117 0 -183 -57t-66 -145t63.5 -148.5t278.5 -159t302 -203t87 -267t-129 -280.5t-314.5 -118z" />
    <glyph glyph-name="scommaaccent" unicode="&#x219;" horiz-adv-x="858" 
d="M401 -514l-114 45l112 369l21 8l153 -62zM432 -39q-254 0 -364 199l122 84l11 -2q80 -145 235 -146q82 0 131 35t49 89t-42 92t-192 92t-215 122t-65 170t87 177t219 75t218.5 -52t123.5 -140l-107 -74l-16 2q-57 129 -209 129q-74 0 -116 -32.5t-42 -80.5t40 -84
t192 -94t217 -124t65 -176t-95 -185.5t-247 -75.5z" />
    <glyph glyph-name="uni021A" unicode="&#x21a;" horiz-adv-x="1210" 
d="M578 -514l-115 45l112 369l21 8l154 -62zM520 1294h-500v156h1170v-156h-500v-1294h-170v1294z" />
    <glyph glyph-name="uni021B" unicode="&#x21b;" horiz-adv-x="702" 
d="M362 -514l-114 45l112 369l21 8l154 -62zM449.5 -39q-105.5 0 -175 70.5t-69.5 199.5v545h-174v133h174v287l135 82h20v-369h273v-133h-273v-497q0 -96 30 -134.5t94.5 -38.5t127.5 29l17 -8l6 -137q-80 -29 -185.5 -29z" />
    <glyph glyph-name="uni0237" unicode="&#x237;" horiz-adv-x="487" 
d="M43 -471q-66 0 -121 22l19 132l16 8q39 -14 76 -15q73 0 103 46t30 159v1028h156v-1048q0 -332 -279 -332z" />
    <glyph glyph-name="uni02BC" unicode="&#x2bc;" horiz-adv-x="464" 
d="M176 1001l-115 46l168 471l21 8l153 -62z" />
    <glyph glyph-name="circumflex" unicode="&#x2c6;" horiz-adv-x="724" 
d="M362 1380l-169 -286h-121l-11 16l211 360h181l211 -360l-11 -16h-121z" />
    <glyph glyph-name="caron" unicode="&#x2c7;" horiz-adv-x="724" 
d="M362 1184l170 286h121l11 -16l-211 -360h-181l-211 360l11 16h121z" />
    <glyph glyph-name="breve" unicode="&#x2d8;" horiz-adv-x="770" 
d="M385 1106q-139 0 -227 72t-97 190l15 14h114q33 -143 195 -143t195 143h114l15 -14q-9 -118 -97 -190t-227 -72z" />
    <glyph glyph-name="dotaccent" unicode="&#x2d9;" horiz-adv-x="352" 
d="M176 1124q-47 0 -81 33t-34 81t34 82t81 34t81 -35t34 -82t-34 -80t-81 -33z" />
    <glyph glyph-name="ring" unicode="&#x2da;" horiz-adv-x="516" 
d="M258 1153q51 0 84 34t33 83t-33 83q-33 33 -84 33t-84 -34t-33 -82q0 -49 33 -83t84 -34zM258 1075q-82 1 -139 57t-58 138t57 138t140 56t139 -56t57 -138t-56 -138q-58 -56 -140 -57z" />
    <glyph glyph-name="ogonek" unicode="&#x2db;" horiz-adv-x="491" 
d="M264 -457q-88 0 -145 48t-58 126q0 143 191 283h98q-166 -131 -166 -248q0 -42 30 -70t78 -28t93 35h10l35 -95q-78 -51 -166 -51z" />
    <glyph glyph-name="tilde" unicode="&#x2dc;" horiz-adv-x="802" 
d="M556 1120q-66 0 -162 51t-134 52q-55 0 -76 -90l-14 -13h-109q13 106 67 170t116 64t162 -51q102 -51 137 -52q55 0 75 90l15 13h108q-14 -106 -67 -170q-52 -64 -118 -64z" />
    <glyph glyph-name="hungarumlaut" unicode="&#x2dd;" horiz-adv-x="856" 
d="M389 1094l225 376h172l9 -14l-279 -362h-127zM61 1094l226 376h172l8 -14l-279 -362h-127z" />
    <glyph glyph-name="gravecomb" unicode="&#x300;" horiz-adv-x="0" 
d="M-96 1094h-127l-279 362l8 14h172z" />
    <glyph glyph-name="acutecomb" unicode="&#x301;" horiz-adv-x="0" 
d="M-412 1094l226 376h172l8 -14l-279 -362h-127z" />
    <glyph glyph-name="uni0302" unicode="&#x302;" horiz-adv-x="0" 
d="M-367 1380l-170 -286h-120l-11 16l211 360h181l210 -360l-10 -16h-121z" />
    <glyph glyph-name="tildecomb" unicode="&#x303;" horiz-adv-x="0" 
d="M-237.5 1120q-65.5 0 -162 51.5t-132.5 51.5q-55 0 -76 -90l-15 -13h-108q14 106 67.5 170t114.5 64t162.5 -51.5t136.5 -51.5q55 0 76 90l14 13h109q-14 -106 -67.5 -170t-119 -64z" />
    <glyph glyph-name="uni0304" unicode="&#x304;" horiz-adv-x="0" 
d="M-614 1176v131h553v-131h-553z" />
    <glyph glyph-name="uni0306" unicode="&#x306;" horiz-adv-x="0" 
d="M-362.5 1106q-139.5 0 -227.5 71.5t-96 190.5l14 14h115q33 -143 194.5 -143t194.5 143h115l14 -14q-8 -119 -96 -190.5t-227.5 -71.5z" />
    <glyph glyph-name="uni0307" unicode="&#x307;" horiz-adv-x="0" 
d="M-176 1124q-47 0 -81 33t-34 81t34 82t81 34t81 -35t34 -82t-34 -80t-81 -33z" />
    <glyph glyph-name="uni0308" unicode="&#x308;" horiz-adv-x="0" 
d="M-287 1235q0 47 34 81t80 34t79 -34t33 -81t-32 -79t-80 -32t-81 32t-33 79zM-651 1235q0 47 34.5 81t79.5 34t78 -33t33 -81t-30.5 -80t-80 -32t-82 32t-32.5 79z" />
    <glyph glyph-name="uni030A" unicode="&#x30a;" horiz-adv-x="0" 
d="M-258 1153q51 0 84 34t33 83t-33 82.5t-84 33.5t-84 -33.5t-33 -82.5t33 -83t84 -34zM-258 1075q-82 0 -139.5 56.5t-57.5 138.5t57.5 138t139.5 56t139.5 -56t57.5 -138t-57.5 -138.5t-139.5 -56.5z" />
    <glyph glyph-name="uni030B" unicode="&#x30b;" horiz-adv-x="0" 
d="M-250 1094l225 376h172l9 -14l-279 -362h-127zM-578 1094l226 376h172l8 -14l-279 -362h-127z" />
    <glyph glyph-name="uni030C" unicode="&#x30c;" horiz-adv-x="0" 
d="M-367 1184l170 286h121l10 -16l-210 -360h-181l-211 360l11 16h120z" />
    <glyph glyph-name="uni0312" unicode="&#x312;" horiz-adv-x="0" 
d="M-178 1526l106 -43l-112 -369l-21 -8l-145 59z" />
    <glyph glyph-name="uni0315" unicode="&#x315;" horiz-adv-x="0" 
d="M-240 1135l-114 45l112 368l21 8l153 -61z" />
    <glyph glyph-name="dotbelowcomb" unicode="&#x323;" horiz-adv-x="0" 
d="M-129 -502q-47 0 -81 33t-34 81t34 82t81 34t81 -35t34 -82t-34 -80t-81 -33z" />
    <glyph glyph-name="uni0324" unicode="&#x324;" horiz-adv-x="0" 
d="M-287 -301q0 47 34 81t80 34t79 -34t33 -81t-32 -79t-80 -32t-81 32t-33 79zM-651 -301q0 47 34.5 81t79.5 34t78 -33t33 -81t-30.5 -80t-80 -32t-82 32t-32.5 79z" />
    <glyph glyph-name="uni0325" unicode="&#x325;" horiz-adv-x="0" 
d="M-258 -477q51 0 84 33.5t33 83t-33 83t-84 33.5t-84 -33.5t-33 -83t33 -83t84 -33.5zM-258 -555q-82 0 -139.5 56.5t-57.5 138t57.5 138t139.5 56.5t139.5 -56.5t57.5 -138t-57.5 -138t-139.5 -56.5z" />
    <glyph glyph-name="uni0326" unicode="&#x326;" horiz-adv-x="0" 
d="M-221 -514l-115 45l113 369l20 8l154 -62z" />
    <glyph glyph-name="uni0327" unicode="&#x327;" horiz-adv-x="0" 
d="M-297.5 -471q-111.5 0 -198.5 45l31 84l16 6q80 -43 141.5 -43t92.5 22.5t31 61.5q0 76 -111 76q-45 0 -88 -17l-37 35l125 201h92l-92 -154q27 8 82.5 8.5t103.5 -40.5t48 -115t-62.5 -122t-174 -48z" />
    <glyph glyph-name="uni0328" unicode="&#x328;" horiz-adv-x="0" 
d="M-227 -457q-88 0 -145.5 48.5t-57.5 125.5q0 143 190 283h99q-166 -131 -166 -248q0 -43 29.5 -70.5t77.5 -27.5t94 35h10l35 -95q-78 -51 -166 -51z" />
    <glyph glyph-name="uni0330" unicode="&#x330;" horiz-adv-x="0" 
d="M-237.5 -422q-65.5 0 -162 51.5t-132.5 51.5q-55 0 -76 -91l-15 -12h-108q14 106 67.5 170t114.5 64t162.5 -51.5t136.5 -51.5q55 0 76 90l14 13h109q-14 -106 -67.5 -170t-119 -64z" />
    <glyph glyph-name="uni0331" unicode="&#x331;" horiz-adv-x="0" 
d="M-614 -377v131h553v-131h-553z" />
    <glyph glyph-name="uni0335" unicode="&#x335;" horiz-adv-x="0" 
d="M-487 387v137h467v-137h-467z" />
    <glyph glyph-name="uni0336" unicode="&#x336;" horiz-adv-x="0" 
d="M-1167 387v137h1454v-137h-1454z" />
    <glyph glyph-name="uni0337" unicode="&#x337;" horiz-adv-x="0" 
d="M-791 178l-73 127l737 424l74 -127z" />
    <glyph glyph-name="uni0338" unicode="&#x338;" horiz-adv-x="0" 
d="M-1075 -193l-109 95l1018 1212l109 -94z" />
    <glyph glyph-name="uni0394" unicode="&#x394;" horiz-adv-x="1363" 
d="M236 156h892q-346 833 -446 1083h-4zM752 1450l622 -1450h-1384l626 1450h136z" />
    <glyph glyph-name="pi" unicode="&#x3c0;" horiz-adv-x="1079" 
d="M881 156q0 -87 116 -39l17 -8v-121q-70 -20 -129 -21q-158 0 -158 158v651h-397v-776h-156v776h-143v133h1007v-133h-157v-620z" />
    <glyph glyph-name="Wgrave" unicode="&#x1e80;" horiz-adv-x="1945" 
d="M487 -29l-456 1479h182l334 -1116h8q68 182 121 334l274 768h45l275 -768q53 -152 121 -334h8l334 1116h182l-457 -1479h-100l-279 781q-33 94 -102 282h-8q-53 -154 -101 -280l-280 -783h-101zM1016 1565l-246 260l8 14h172l193 -274h-127z" />
    <glyph glyph-name="wgrave" unicode="&#x1e81;" horiz-adv-x="1388" 
d="M375 -33l-334 942h166l207 -630h4l260 618h37l256 -618h4l211 630h162l-334 -942h-45l-273 627h-4l-272 -627h-45zM866 1094h-127l-278 362l8 14h172z" />
    <glyph glyph-name="Wacute" unicode="&#x1e82;" horiz-adv-x="1945" 
d="M487 -29l-456 1479h182l334 -1116h8q68 182 121 334l274 768h45l275 -768q53 -152 121 -334h8l334 1116h182l-457 -1479h-100l-279 781q-33 94 -102 282h-8q-53 -154 -101 -280l-280 -783h-101zM809 1565l188 274h172l9 -14l-242 -260h-127z" />
    <glyph glyph-name="wacute" unicode="&#x1e83;" horiz-adv-x="1388" 
d="M375 -33l-334 942h166l207 -630h4l260 618h37l256 -618h4l211 630h162l-334 -942h-45l-273 627h-4l-272 -627h-45zM522 1094l226 376h172l8 -14l-279 -362h-127z" />
    <glyph glyph-name="Wdieresis" unicode="&#x1e84;" horiz-adv-x="1945" 
d="M487 -29l-456 1479h182l334 -1116h8q68 182 121 334l274 768h45l275 -768q53 -152 121 -334h8l334 1116h182l-457 -1479h-100l-279 781q-33 94 -102 282h-8q-53 -154 -101 -280l-280 -783h-101zM1063 1714q0 47 33.5 81t79 34t79 -34t33.5 -81t-31.5 -78.5t-79.5 -31.5
t-81 31.5t-33 78.5zM657 1714q0 47 35 81t80 34t78 -33t33 -81t-31 -79.5t-80 -31.5t-82 31.5t-33 78.5z" />
    <glyph glyph-name="wdieresis" unicode="&#x1e85;" horiz-adv-x="1388" 
d="M375 -33l-334 942h166l207 -630h4l260 618h37l256 -618h4l211 630h162l-334 -942h-45l-273 627h-4l-272 -627h-45zM764 1235q0 47 33.5 81t79 34t79 -34t33.5 -81t-31.5 -79t-79.5 -32t-81 32t-33 79zM399 1235q0 47 35 81t80 34t78 -33t33 -81t-31 -80t-80 -32t-82 32
t-33 79z" />
    <glyph glyph-name="uni1E9E" unicode="&#x1e9e;" horiz-adv-x="1400" 
d="M1329 404q1 -198 -111 -319q-112 -122 -315 -122q-145 0 -247 66q-101 66 -189 225l121 84l35 -8q63 -121 130 -172q67 -52 165 -52t168 80t71 207q0 301 -332 301h-131v137l307 463h-651v-1294h-170v1450h1018v-135l-311 -471q199 -2 321 -122t121 -318z" />
    <glyph glyph-name="Ygrave" unicode="&#x1ef2;" horiz-adv-x="1185" 
d="M508 0v596l-508 854h186l230 -410q27 -49 174 -295h8q141 236 172 293l229 412h187l-508 -854v-596h-170zM637 1565l-246 260l8 14h172l193 -274h-127z" />
    <glyph glyph-name="ygrave" unicode="&#x1ef3;" horiz-adv-x="950" 
d="M137 -446l260 536l-368 819h178l270 -651h4l281 651h176l-625 -1355h-176zM664 1094h-127l-279 362l8 14h172z" />
    <glyph glyph-name="endash" unicode="&#x2013;" horiz-adv-x="1024" 
d="M61 387v137h902v-137h-902z" />
    <glyph glyph-name="emdash" unicode="&#x2014;" horiz-adv-x="1576" 
d="M61 387v137h1455v-137h-1455z" />
    <glyph glyph-name="quoteleft" unicode="&#x2018;" horiz-adv-x="587" 
d="M391 1489l115 -45l-189 -533l-20 -8l-154 62z" />
    <glyph glyph-name="quoteright" unicode="&#x2019;" horiz-adv-x="587" 
d="M197 903l-115 45l188 533l21 8l153 -62z" />
    <glyph glyph-name="quotesinglbase" unicode="&#x201a;" horiz-adv-x="587" 
d="M197 -336l-115 45l188 533l21 8l153 -62z" />
    <glyph glyph-name="quotedblleft" unicode="&#x201c;" horiz-adv-x="946" 
d="M750 1489l114 -45l-188 -533l-21 -8l-153 62zM391 1489l115 -45l-189 -533l-20 -8l-154 62z" />
    <glyph glyph-name="quotedblright" unicode="&#x201d;" horiz-adv-x="946" 
d="M555 903l-115 45l189 533l20 8l154 -62zM197 903l-115 45l188 533l21 8l153 -62z" />
    <glyph glyph-name="quotedblbase" unicode="&#x201e;" horiz-adv-x="946" 
d="M555 -336l-115 45l189 533l20 8l154 -62zM197 -336l-115 45l188 533l21 8l153 -62z" />
    <glyph glyph-name="dagger" unicode="&#x2020;" horiz-adv-x="1138" 
d="M487 -446v1204h-403v151h403v541h164v-541h404v-151h-404v-1204h-164z" />
    <glyph glyph-name="daggerdbl" unicode="&#x2021;" horiz-adv-x="1138" 
d="M487 -442v475h-385v147h385v647h-385v148h385v475h164v-475h385v-148h-385v-647h385v-147h-385v-475h-164z" />
    <glyph glyph-name="bullet" unicode="&#x2022;" horiz-adv-x="1208" 
d="M604 453q-131 0 -220 90t-89 219t89 219t220 90t220 -90t89 -219t-89 -219t-220 -90z" />
    <glyph glyph-name="ellipsis" unicode="&#x2026;" horiz-adv-x="1843" 
d="M1559 -20q-49 0 -84 34t-35 84q0 49 35 84t84 35t83 -35t35 -84q-1 -50 -35 -84t-83 -34zM922 -20q-49 0 -84 34t-35 84q0 49 35 84t84 35t84 -35q34 -35 34 -84t-34 -84q-35 -34 -84 -34zM285 -20q-49 0 -84 34t-35 84q0 49 35 84t84 35t84 -35t35 -84t-35 -84
q-35 -34 -84 -34z" />
    <glyph glyph-name="perthousand" unicode="&#x2030;" horiz-adv-x="2725" 
d="M2222 102q94 0 158 66q63 66 63 162t-63 162q-64 66 -158 66t-158 -66q-63 -66 -63 -162q-1 -96 63 -162t158 -66zM1382 102q94 0 158 66q63 66 64 162q0 96 -64 162t-158 66t-157 -66t-63 -162t62 -162q64 -66 158 -66zM2222 -29q-152 -1 -256 103t-104 256t104 255
t256 103t256 -103t104 -255t-104 -256t-256 -103zM1382 -29q-152 -1 -256 103t-104 256t104 255t256 103t256 -103t104 -255t-104 -256t-256 -103zM504 893q94 0 158 65q63 66 63 162t-63 162q-64 66 -158 66t-158 -66t-63 -162q0 -96 63 -162q64 -65 158 -65zM420 0
l878 1450h168l-878 -1450h-168zM504 762q-152 0 -256 103t-105 255q1 152 105 255t256 103t256 -102q104 -104 104 -256t-104 -255t-256 -103z" />
    <glyph glyph-name="minute" unicode="&#x2032;" horiz-adv-x="425" 
d="M102 1065l62 481h160l-103 -481h-119z" />
    <glyph glyph-name="second" unicode="&#x2033;" horiz-adv-x="722" 
d="M399 1065l62 481h160l-103 -481h-119zM102 1065l62 481h160l-103 -481h-119z" />
    <glyph glyph-name="guilsinglleft" unicode="&#x2039;" horiz-adv-x="604" 
d="M383 61l-270 396l270 395l86 -61l2 -11l-211 -323l211 -324l-2 -10z" />
    <glyph glyph-name="guilsinglright" unicode="&#x203a;" horiz-adv-x="604" 
d="M221 61l-86 62l-2 10l211 324l-211 323l2 11l86 61l271 -395z" />
    <glyph glyph-name="fraction" unicode="&#x2044;" horiz-adv-x="284" 
d="M653 1546l-848 -1620h-174l850 1620h172z" />
    <glyph glyph-name="uni2070" unicode="&#x2070;" 
d="M389 1032q80 0 125 85t45 237t-45 236t-125 83q-80 0 -125 -84q-45 -83 -45 -235t45 -237t125 -85zM389 903q-147 0 -231 120t-84 330q0 209 84 329t231 120t231 -120t85 -330q-1 -210 -85 -329q-84 -120 -231 -120z" />
    <glyph glyph-name="uni2074" unicode="&#x2074;" 
d="M469 1241v158q0 131 14 213h-2q-39 -76 -65 -111l-191 -260h244zM467 942v174h-424v74l449 616h114v-565h101v-125h-101v-174h-139z" />
    <glyph glyph-name="uni2075" unicode="&#x2075;" 
d="M387 903q-133 -1 -211 61t-92 175l121 22l22 -12q16 -123 156 -123q72 0 115 47t43 126t-46 125q-47 46 -143 46t-184 -63l-33 8l31 465h455v-123h-334l-13 -207q70 29 142 29q122 0 196 -76t74 -204t-83 -212t-216 -84z" />
    <glyph glyph-name="uni2076" unicode="&#x2076;" 
d="M376 1026q70 0 112 47t42 122t-41 120t-113 45t-116 -45q-43 -45 -43 -121t44 -122t115 -46zM372 903q-138 0 -218 80t-80 217q0 76 39 155t137 214l182 248l107 -62l4 -18l-111 -146q-82 -106 -141 -159l2 -2q66 39 133 38q114 0 182 -74t68 -201q0 -128 -83 -209
t-221 -81z" />
    <glyph glyph-name="uni2077" unicode="&#x2077;" 
d="M109 1653v125h587v-23l-405 -848l-27 -6l-104 43l340 709h-391z" />
    <glyph glyph-name="uni2078" unicode="&#x2078;" 
d="M233 1168q0 -70 41 -110t114 -40t114 40t41 110t-42 114q-42 43 -114 43t-113 -43t-41 -114zM386 1440q60 0 94 33t34 92t-35 94t-94 35t-93 -35t-34 -94t34 -92t94 -33zM387 903q-141 0 -219 69t-78 185q0 172 172 223q-141 49 -141 199q0 99 72 161q73 62 195 62
t195 -62t72 -161q0 -147 -141 -199q172 -51 172 -223q0 -117 -79 -185t-220 -69z" />
    <glyph glyph-name="uni2079" unicode="&#x2079;" 
d="M391 1348q72 0 114 46t42 121t-42 119t-113 45q-70 0 -114 -46t-44 -121q0 -76 42 -120q43 -44 115 -44zM342 1237q-112 0 -182 75q-70 74 -70 202t83 208t222 80t218 -80t79 -215q0 -84 -42 -166t-132 -204l-184 -248l-107 63l-4 17l113 147q78 102 141 158l-2 2
q-66 -39 -133 -39z" />
    <glyph glyph-name="uni2080" unicode="&#x2080;" 
d="M389 -197q80 0 125 85t45 237q0 151 -45 235t-125 84t-125 -84t-45 -236t45 -236q45 -85 125 -85zM389 -326q-147 0 -231 120t-84 330t84 330t231 120t232 -120q84 -120 84 -330q-1 -210 -85 -330t-231 -120z" />
    <glyph glyph-name="uni2081" unicode="&#x2081;" 
d="M344 -287v582q0 63 8 106l-4 2q-45 -29 -69 -43l-99 -57l-14 4l12 144l268 133h39v-871h-141z" />
    <glyph glyph-name="uni2082" unicode="&#x2082;" 
d="M72 -287v25l223 239q213 229 213 355q0 61 -35 96t-96 35q-129 0 -158 -152l-22 -10l-115 18q41 270 309 271q117 0 190 -68t72 -176q0 -182 -194 -383l-64 -65q-16 -16 -69 -64v-2q68 6 127 6h192v-125h-573z" />
    <glyph glyph-name="uni2083" unicode="&#x2083;" 
d="M670 -85q0 -97 -80 -169t-209 -72t-208 66t-93 186l121 21l20 -8q8 -66 51 -104t110 -38q68 0 106 39t38 107q0 145 -166 145h-30v102h24q162 0 162 138q0 55 -36 89t-95 34q-123 0 -149 -125l-21 -9l-117 19q20 111 100 174t196 63q118 0 191 -63q73 -64 73 -152
q-1 -172 -150 -217q76 -14 119 -71t43 -155z" />
    <glyph glyph-name="uni2084" unicode="&#x2084;" 
d="M469 12v158q0 131 14 213h-2q-39 -76 -65 -111l-191 -260h244zM467 -287v174h-424v74l449 617h114v-566h101v-125h-101v-174h-139z" />
    <glyph glyph-name="uni2085" unicode="&#x2085;" 
d="M416 250q122 0 196 -76t74 -204t-83 -212t-216 -84t-211 62t-92 174l121 22l22 -12q16 -123 156 -123q72 0 115 47t43 126t-46 125q-47 46 -143 46t-184 -63l-33 8l31 465h455v-123h-334l-13 -207q70 29 142 29z" />
    <glyph glyph-name="uni2086" unicode="&#x2086;" 
d="M376 -203q70 0 112 47t42 122t-41 120t-113 45t-116 -45q-43 -45 -43 -121t44 -122t115 -46zM372 -326q-138 0 -218 80t-80 217q0 76 39 155t137 214l182 248l107 -62l4 -18l-111 -146q-82 -106 -141 -159l2 -2q66 39 133 39q114 0 182 -74t68 -202t-83 -209t-221 -81z
" />
    <glyph glyph-name="uni2087" unicode="&#x2087;" 
d="M109 424v125h587v-23l-405 -848l-27 -6l-104 43l340 709h-391z" />
    <glyph glyph-name="uni2088" unicode="&#x2088;" 
d="M388 -211q73 0 114 40t41 111q0 72 -42 114t-114 42t-113 -43t-41 -113t41 -111q41 -40 114 -40zM386 211q60 0 94 33t34 92t-35 94t-94 35t-93 -35t-34 -94t34 -92t94 -33zM387 -326q-141 0 -219 69t-78 185q0 172 172 224q-141 49 -141 198q0 98 72 160q73 62 195 63
q122 0 195 -62t72 -161q0 -147 -141 -198q172 -51 172 -224q0 -118 -79 -186t-220 -68z" />
    <glyph glyph-name="uni2089" unicode="&#x2089;" 
d="M391 119q72 0 114 46t42 121t-42 120t-113 45q-70 -1 -114 -47t-44 -120t42 -120q43 -45 115 -45zM342 8q-112 0 -182 75t-70 203t83 208t222 80t218 -80t79 -215q0 -84 -42 -166t-132 -205l-184 -248l-107 64l-4 16l113 147q78 102 141 158l-2 2q-66 -39 -133 -39z" />
    <glyph glyph-name="lira" unicode="&#x20a4;" horiz-adv-x="1433" 
d="M627 473q0 -207 -74 -317h651l-20 -156h-934v156h141q68 92 68 276v41h-197v131h197v127h-197v131h197v139q0 233 107 361q108 127 314 127t324 -123l-92 -123l-16 4q-88 92 -234 92q-111 0 -173 -91t-62 -257v-129h323v-131h-323v-127h323v-131h-323z" />
    <glyph glyph-name="Euro" unicode="&#x20ac;" horiz-adv-x="1433" 
d="M852 -39q-223 1 -381 147t-209 394h-176l43 131h115q-4 61 -4 92t4 84h-138l44 131h112q51 248 213 398t387 151q313 0 481 -258l-116 -82l-35 8q-72 94 -151 133t-185 39q-150 0 -260 -105t-154 -284h588l-39 -131h-569q-4 -53 -4 -84t4 -92h526l-39 -131h-467
q43 -176 151 -278t261 -103q115 0 196 43t144 137l35 8l117 -82q-170 -266 -494 -266z" />
    <glyph glyph-name="uni2113" unicode="&#x2113;" horiz-adv-x="1024" 
d="M582 1346q-51 0 -85 -64t-34 -162v-428q213 201 213 486q0 168 -94 168zM593 -39q-140 0 -220 86t-80 227v91l-66 -56l-82 119l148 123v547q0 180 79 285t209 105q129 0 199 -75q70 -76 70 -211q0 -367 -387 -694v-205q0 -94 39 -146q40 -53 116 -53t166 74l17 2l49 -123
q-117 -96 -257 -96z" />
    <glyph glyph-name="uni2116" unicode="&#x2116;" horiz-adv-x="2222" 
d="M1532 541v133h582v-133h-582zM1823 1008q72 0 120 50t48 126t-48 126t-120 50t-120 -50t-48 -126t48 -126t120 -50zM348 1102v-1102h-168v1450h109l522 -659q51 -61 151 -189t148 -188h6v1036h168v-1479h-35l-895 1131h-6zM1823 891q-127 0 -214 84t-87 209t86 209
t215 84t215 -84t86 -209t-87 -209t-214 -84z" />
    <glyph glyph-name="uni2117" unicode="&#x2117;" horiz-adv-x="1941" 
d="M883 733h112q100 0 144 34q43 35 43 107t-43 106t-144 34h-112v-281zM750 287v850h270q139 0 218 -68t79 -192q0 -123 -81 -195t-218 -72h-135v-323h-133zM971 86q266 0 448 184q183 184 183 454t-182 454q-182 186 -449 186t-449 -185t-182 -455t182 -454
q183 -184 449 -184zM971 -39q-324 0 -545 220t-221 543t221 544t545 221t545 -221t221 -544t-221 -543t-545 -220z" />
    <glyph glyph-name="trademark" unicode="&#x2122;" horiz-adv-x="2072" 
d="M1010 606v844h200l250 -516h4l250 516h195v-844h-135v697h-5l-301 -615h-20l-299 615h-4v-697h-135zM436 606v721h-272v123h674v-123h-267v-721h-135z" />
    <glyph glyph-name="uni2126" unicode="&#x2126;" horiz-adv-x="1765" 
d="M1655 739q0 -175 -77 -325t-202 -252h258v-162h-602v147q160 0 302 171t143 421q0 250 -167 420t-427 170t-427 -170t-167 -420t142 -421t302 -171v-147h-602v162h258q-125 102 -202 252t-76 325q0 315 218 533t554 217q336 1 554 -217t218 -533z" />
    <glyph glyph-name="estimated" unicode="&#x212e;" horiz-adv-x="1443" 
d="M1051 604v252q-7 82 -99 151t-228 69t-227 -70t-96 -150v-252h650zM401 530v-266q0 -78 108 -148q107 -70 225 -69q118 0 222 49t172 144l17 6l69 -51q-68 -105 -198 -163t-283 -59q-244 0 -427 166t-183 426t171 421t437 161t428 -160t162 -395q0 -41 -2 -62h-918z" />
    <glyph glyph-name="oneeighth" unicode="&#x215b;" horiz-adv-x="1761" 
d="M1335 383q-73 0 -113 -43t-40 -114q0 -70 40 -110t114 -40q73 0 114 40t41 110t-42 114q-42 43 -114 43zM1206 623q0 -59 34 -92t94 -33t94 32t34 92t-35 95t-94 35t-93 -35t-34 -94zM1335 -39q-141 0 -219 69t-78 185q0 172 172 223q-141 49 -141 199q0 99 72 161
q73 62 195 62t195 -62t73 -161q0 -147 -142 -199q172 -51 172 -223q0 -117 -79 -185t-220 -69zM281 614v582q0 63 8 107l-4 2q-45 -29 -70 -43l-98 -58l-15 4l13 144l268 133h39v-871h-141zM1313 1546l-848 -1620h-174l850 1620h172z" />
    <glyph glyph-name="threeeighths" unicode="&#x215c;" horiz-adv-x="1761" 
d="M1247 226q0 -70 41 -110t114 -40t114 40q40 40 40 110t-42 114q-42 43 -114 43t-112 -43q-41 -43 -41 -114zM1272 623q0 -59 34 -92t94 -33t94 32t34 92t-35 95t-94 35t-93 -35t-34 -94zM1401 -39q-141 0 -219 69t-78 185q0 172 172 223q-141 49 -141 199q0 98 71 161
q72 62 195 62t195 -62t73 -161q0 -147 -141 -199q172 -51 172 -223q0 -117 -79 -185t-220 -69zM627 818q0 -98 -80 -168q-80 -72 -209 -72t-208 66t-93 185l121 21l20 -8q8 -66 51 -104t110 -38t105 39t39 107q0 145 -166 145h-30v103h24q162 0 162 137q0 55 -36 89t-95 34
q-123 0 -149 -125l-21 -8l-117 18q19 111 99 174t198 63t190 -62q72 -64 72 -152q-1 -172 -149 -218q76 -14 119 -71t43 -155zM1378 1546l-848 -1620h-174l850 1620h172z" />
    <glyph glyph-name="fiveeighths" unicode="&#x215d;" horiz-adv-x="1761" 
d="M1237 226q0 -70 41 -110t114 -40q74 0 114 40t40 110t-42 114q-42 43 -114 43t-112 -43q-41 -43 -41 -114zM1390 498q60 0 94 32t34 92t-35 95t-94 35t-93 -35t-34 -94t33 -93q35 -32 95 -32zM1391 -39q-141 0 -220 69q-78 69 -77 185q0 172 172 223q-141 49 -142 199
q0 99 72 161t195 62t195 -62t73 -161q0 -147 -141 -199q172 -51 172 -223q0 -117 -79 -185t-220 -69zM627 872q0 -128 -83 -212t-216 -85t-211 61t-92 175l120 23l23 -13q16 -123 156 -123q72 0 114 47t43 126q0 79 -46 125q-47 46 -143 46t-183 -63l-33 8l30 465h455v-123
h-334l-12 -207q70 29 141 29q119 0 195 -76q76 -75 76 -203zM1366 1546l-848 -1620h-174l850 1620h172z" />
    <glyph glyph-name="seveneighths" unicode="&#x215e;" horiz-adv-x="1761" 
d="M1169 226q0 -70 41 -110t114 -40t114 40t41 110t-42 114q-42 43 -114 43t-113 -43t-41 -114zM1194 623q0 -59 34 -92t94 -33t94 32t34 92t-35 95t-94 35t-93 -35t-34 -94zM1323 -39q-141 0 -219 69t-78 185q0 172 172 223q-141 49 -141 199q0 98 71 161q72 62 195 62
t196 -62t72 -161q0 -147 -141 -199q172 -51 172 -223q0 -117 -79 -185t-220 -69zM88 1325v125h588v-23l-406 -847l-26 -7l-105 43l340 709h-391zM1305 1546l-848 -1620h-174l850 1620h172z" />
    <glyph glyph-name="arrowleft" unicode="&#x2190;" horiz-adv-x="1892" 
d="M608 786h1141v-151h-1141q-102 0 -194 6l-2 -4q86 -78 139 -131l350 -354v-9l-104 -104l-654 670l654 669l104 -104v-8l-350 -351q-33 -33 -139 -129l2 -4q61 4 194 4z" />
    <glyph glyph-name="arrowup" unicode="&#x2191;" horiz-adv-x="1708" 
d="M928 1024v-1141h-152v1141q0 133 4 195l-4 2q-96 -109 -129 -140l-350 -350h-8l-105 105l670 653l670 -653l-105 -105h-8l-354 350q-53 53 -131 140l-4 -2q6 -92 6 -195z" />
    <glyph glyph-name="arrowright" unicode="&#x2192;" horiz-adv-x="1892" 
d="M1284 635h-1141v151h1141q133 0 195 -4l2 4q-106 96 -140 129l-350 351v8l105 104l653 -669l-653 -670l-105 104v9l350 354q53 53 140 131l-2 4q-92 -6 -195 -6z" />
    <glyph glyph-name="arrowdown" unicode="&#x2193;" horiz-adv-x="1708" 
d="M776 348v1141h152v-1141q0 -102 -6 -194l4 -2q78 86 131 139l354 350h8l105 -104l-670 -654l-670 654l105 104h8l350 -350q33 -31 129 -139l4 2q-4 61 -4 194z" />
    <glyph glyph-name="arrowboth" unicode="&#x2194;" horiz-adv-x="2672" 
d="M2064 635h-1456q-102 0 -194 6l-2 -4q86 -78 139 -131l350 -354v-9l-104 -104l-654 670l654 669l104 -104v-8l-350 -351q-33 -33 -139 -129l2 -4q61 4 194 4h1456q133 0 195 -4l2 4q-109 96 -139 129l-350 351v8l104 104l653 -669l-653 -670l-104 104v9l350 354
q53 53 139 131l-2 4q-92 -6 -195 -6z" />
    <glyph glyph-name="arrowupdn" unicode="&#x2195;" horiz-adv-x="1708" 
d="M928 1438v-1458q0 -100 -6 -193l4 -2q82 90 131 137l354 352h8l105 -104l-670 -655l-670 655l105 104h8l350 -352q35 -33 129 -137l4 2q-4 61 -4 193v1458q0 133 4 194l-4 2q-96 -106 -129 -139l-350 -350h-8l-105 104l670 654l670 -654l-105 -104h-8l-354 350
q-53 53 -131 139l-4 -2q6 -92 6 -194z" />
    <glyph glyph-name="uni2196" unicode="&#x2196;" horiz-adv-x="1550" 
d="M651 1112q-12 0 -190 6v-4q45 -39 139 -133l807 -807l-107 -108l-806 806q-66 66 -134 144l-4 -2q6 -172 6 -193l-4 -497l-6 -7h-147l12 936l936 13v-148l-6 -6h-496z" />
    <glyph glyph-name="uni2197" unicode="&#x2197;" horiz-adv-x="1550" 
d="M899 1112h-496l-6 6v148l936 -13l13 -936h-148l-6 7l-4 497q0 20 6 193l-4 2q-68 -78 -133 -144l-807 -806l-107 108l807 807q94 94 140 133v4q-178 -6 -191 -6z" />
    <glyph glyph-name="uni2198" unicode="&#x2198;" horiz-adv-x="1550" 
d="M899 219q12 0 191 -6v4q-45 39 -140 133l-807 807l107 109l807 -807q66 -66 133 -144l4 2q-6 172 -6 193l4 498l6 6h148l-13 -936l-936 -12v147l6 6h496z" />
    <glyph glyph-name="uni2199" unicode="&#x2199;" horiz-adv-x="1550" 
d="M651 219h496l6 -6v-147l-936 12l-12 936h147l6 -6l4 -498q0 -20 -6 -193l4 -2q68 78 134 144l806 807l107 -109l-807 -807q-94 -94 -139 -133v-4q178 6 190 6z" />
    <glyph glyph-name="partialdiff" unicode="&#x2202;" horiz-adv-x="1433" 
d="M410 419q0 -141 78 -227t224 -86q144 0 226 104t82 282v28q-109 221 -315 221q-131 0 -213 -91t-82 -231zM694 1489q250 0 372 -217t122 -595t-136 -547t-376 -169q-194 0 -312 128t-118 327t125 335t303 136q221 0 358 -195q-10 334 -93 495t-246 161t-271 -160l-16 -2
l-109 71q63 106 169 169t228 63z" />
    <glyph glyph-name="emptyset" unicode="&#x2205;" horiz-adv-x="1433" 
d="M1106 633q0 125 -66 227l-553 -553q100 -72 230 -71q169 0 279 112t110 285zM700 1026q-152 0 -262 -112t-110 -264t71 -257l557 557q-104 76 -256 76zM1239 633q0 -227 -148 -377t-374 -150q-184 0 -324 107l-166 -166l-88 86l166 166q-111 143 -111 350t149 357
q148 150 374 149q193 0 332 -113l157 158l88 -86l-159 -160q104 -141 104 -321z" />
    <glyph glyph-name="uni2206" unicode="&#x2206;" horiz-adv-x="1363" 
d="M236 156h892q-346 833 -446 1083h-4zM752 1450l622 -1450h-1384l626 1450h136z" />
    <glyph glyph-name="product" unicode="&#x220f;" horiz-adv-x="1409" 
d="M143 -446v1740h-123v156h1369v-156h-123v-1740h-170v1740h-783v-1740h-170z" />
    <glyph glyph-name="summation" unicode="&#x2211;" horiz-adv-x="1234" 
d="M51 -446v143l664 821l-635 791v143h1079v-156h-878l628 -778l-661 -809h936v-155h-1133z" />
    <glyph glyph-name="minus" unicode="&#x2212;" horiz-adv-x="1433" 
d="M164 559v123h1106v-123h-1106z" />
    <glyph glyph-name="uni2215" unicode="&#x2215;" horiz-adv-x="755" 
d="M838 1546l-746 -1620h-174l748 1620h172z" />
    <glyph glyph-name="uni2219" unicode="&#x2219;" horiz-adv-x="851" 
d="M426 502q-49 0 -84 35t-35 84t35 84t84 35t84 -36q35 -34 35 -83t-35 -84t-84 -35z" />
    <glyph glyph-name="radical" unicode="&#x221a;" horiz-adv-x="1073" 
d="M41 754v155h278l220 -514h8l321 1055h185l-471 -1479h-37l-346 783h-158z" />
    <glyph glyph-name="infinity" unicode="&#x221e;" horiz-adv-x="1564" 
d="M1169 428q78 0 124 49t46 130t-46 133t-110 52t-133 -38q-69 -39 -190 -148q184 -178 309 -178zM395 428q125 0 310 178q-121 109 -190 148t-133 39q-64 -1 -111 -53q-46 -52 -46 -133t46 -130t124 -49zM393 309q-127 0 -209 83t-82 215t81 217t206 85q88 0 180 -53
t213 -174q121 121 213 174t181 53q126 0 206 -85t80 -217t-82 -215t-209 -83q-86 0 -169 45t-220 172q-137 -127 -220 -172t-169 -45z" />
    <glyph glyph-name="integral" unicode="&#x222b;" horiz-adv-x="1433" 
d="M635 63v1074q0 217 60 303t212 86q76 0 135 -21v-151l-12 -6q-53 28 -117 28q-63 0 -89 -53t-25 -207v-1073q-1 -217 -61 -303t-212 -86q-76 0 -135 20v152l12 6q53 -29 117 -29t90 53t25 207z" />
    <glyph glyph-name="approxequal" unicode="&#x2248;" horiz-adv-x="1433" 
d="M485 569q72 1 140 -23q67 -24 109 -52q115 -76 208 -74q113 0 203 141l16 2l88 -61q-137 -209 -301 -209q-90 0 -169 38t-149 75t-138 36q-113 0 -203 -141l-17 -2l-88 61q137 209 301 209zM485 948q90 0 171 -38t151 -74t135 -37q113 0 203 141l16 2l88 -61
q-137 -209 -301 -209q-130 0 -245 75t-211 74q-113 0 -203 -141l-17 -2l-88 61q137 209 301 209z" />
    <glyph glyph-name="notequal" unicode="&#x2260;" horiz-adv-x="1433" 
d="M1270 754h-426l-119 -267h545v-122h-600l-142 -318h-135l142 318h-371v122h426l119 267h-545v123h600l141 317h135l-141 -317h371v-123z" />
    <glyph glyph-name="lessequal" unicode="&#x2264;" horiz-adv-x="1433" 
d="M184 0v123h1065v-123h-1065zM1249 1237v-125l-884 -348l884 -348v-125l-1065 426v94z" />
    <glyph glyph-name="greaterequal" unicode="&#x2265;" horiz-adv-x="1433" 
d="M184 0v123h1065v-123h-1065zM184 1237l1065 -426v-94l-1065 -426v125l885 348l-885 348v125z" />
    <glyph glyph-name="lozenge" unicode="&#x25ca;" horiz-adv-x="1433" 
d="M715 117l260 608l-260 608l-258 -608zM651 -39l-348 764l348 764h129l348 -764l-348 -764h-129z" />
    <glyph glyph-name="i.loclTRK" horiz-adv-x="487" 
d="M166 0v909h156v-909h-156zM244 1124q-47 0 -81 33t-34 81t34 82t81 34t80.5 -35t33.5 -82t-33.5 -80t-80.5 -33z" />
    <glyph glyph-name="f_i" horiz-adv-x="1081" 
d="M760 0v909h155v-909h-155zM838 1227q-47 0 -81 33q-34 32 -34 80t34 82t81 34t81 -35q33 -35 33 -82t-34 -79t-80 -33zM371 909h227v-133h-227v-776h-156v776h-174v133h174v232q-1 213 63 299t211 86q63 0 136 -23l-11 -139l-18 -8q-52 22 -110 22t-87 -48t-28 -177v-244
z" />
    <glyph glyph-name="f_l" horiz-adv-x="1091" 
d="M770 0v1501h156v-1501h-156zM371 909h227v-133h-227v-776h-156v776h-174v133h174v232q-1 213 63 299t211 86q63 0 136 -23l-11 -139l-18 -8q-52 22 -110 22t-87 -48t-28 -177v-244z" />
    <glyph glyph-name="zero.osf" horiz-adv-x="1050" 
d="M526 111q121 0 187 97q65 97 65 274t-65 274q-66 96 -187 96q-120 0 -186 -96t-66 -274t66 -274q66 -97 186 -97zM526 -39q-190 0 -304 141t-113 379q0 238 113 379q114 141 304 141t303 -141t113 -379t-113 -379t-303 -141z" />
    <glyph glyph-name="one.osf" horiz-adv-x="708" 
d="M526 997v-997h-155l-2 631q0 88 2 131l-4 2l-283 -178l-16 6l16 174l403 231h39z" />
    <glyph glyph-name="two.osf" horiz-adv-x="892" 
d="M70 0v35l364 327q127 115 169 186q42 70 42 144t-45 120t-136 46t-158 -57t-93 -164l-31 -19l-125 21q29 170 139 266t270 96q160 1 252 -83q91 -84 91 -218q0 -98 -44 -181q-85 -160 -370 -376l2 -2q80 4 267 4h172v-145h-766z" />
    <glyph glyph-name="three.osf" horiz-adv-x="950" 
d="M468 -336q-171 0 -285 102t-134 281l125 21l33 -17q14 -111 88 -177t175 -67q101 0 167 67q65 66 65 178t-70 174q-71 62 -200 63h-29v137h25q120 0 188 59t68 163t-59 156q-59 54 -151 54t-154 -59q-64 -59 -84 -166l-33 -15l-125 19q23 168 134 266q112 98 270 98
t261 -92q104 -92 105 -247q0 -111 -64 -194t-176 -112q119 -20 190 -107t70 -202q0 -163 -114 -273t-286 -110z" />
    <glyph glyph-name="four.osf" horiz-adv-x="972" 
d="M616 145v240q0 176 29 330h-4q-59 -115 -102 -178l-287 -392h364zM616 -328v328h-620v53l700 934h80v-842h160v-145h-160v-328h-160z" />
    <glyph glyph-name="five.osf" horiz-adv-x="886" 
d="M441 -336q-177 0 -289 97t-132 264l125 20l31 -16q14 -105 84 -163t180 -58t181 80q69 81 69 209t-65 203q-67 75 -209 75t-277 -105l-41 11l43 682h621v-146h-486l-22 -360q123 51 227 51q163 0 269 -114t106 -295t-119 -308t-296 -127z" />
    <glyph glyph-name="six.osf" horiz-adv-x="1071" 
d="M542 100q120 0 196 81t75 205q0 124 -75 203q-74 79 -196 79t-198 -81t-76 -205t77 -203t197 -79zM594 799q162 0 270 -115q108 -114 109 -298q-1 -184 -121 -304t-318 -119q-198 0 -312 116t-113 310q0 82 39 181q40 99 84 170t133 202l262 385l116 -70l5 -22l-154 -219
q-131 -184 -217 -281l4 -2q100 66 213 66z" />
    <glyph glyph-name="seven.osf" horiz-adv-x="901" 
d="M37 817v146h827v-35l-553 -1260l-35 -4l-104 49l477 1104h-612z" />
    <glyph glyph-name="eight.osf" horiz-adv-x="1017" 
d="M509 102q126 0 197 69q70 69 70 185t-71 190q-72 72 -197 72t-196 -72q-70 -72 -70 -190t70 -186t197 -68zM506 770q104 0 163 58q58 58 58 156t-59 154q-60 58 -162 58t-160 -56t-59 -154q0 -98 57 -158q58 -58 162 -58zM508 -39q-203 1 -317 105t-113 276q0 125 73 217
t199 129q-223 76 -223 305q0 143 104 237q105 94 277 95q172 0 276 -94t105 -238q0 -231 -223 -305q130 -37 202 -129t72 -217q0 -172 -114 -276t-318 -105z" />
    <glyph glyph-name="nine.osf" horiz-adv-x="1077" 
d="M542 297q122 0 196 81t75 205q0 125 -77 203q-76 78 -196 78t-196 -81t-76 -205t76 -202q76 -79 198 -79zM973 575q1 -119 -61 -241t-195 -320l-240 -354l-117 70l-4 22l131 189q143 207 218 288l-5 2q-100 -66 -211 -65q-165 0 -273 115t-108 299t121 303t318 119
t311 -118q114 -116 115 -309z" />
    <glyph glyph-name="zero.tf" horiz-adv-x="1433" 
d="M717 117q158 0 247 163q89 162 89 448t-89 446t-247 160t-247 -160t-89 -446t89 -448t247 -163zM717 -39q-238 0 -374 204t-136 561t136 560t374 203t374 -203t136 -560t-136 -561t-374 -204z" />
    <glyph glyph-name="one.tf" horiz-adv-x="1433" 
d="M874 156h246v-156h-698v156h283v944q0 96 2 141l-5 2q-35 -23 -104 -63l-180 -103l-17 6l17 181l420 213h36v-1321z" />
    <glyph glyph-name="two.tf" horiz-adv-x="1433" 
d="M254 0v37l317 325q437 449 437 705q0 131 -69 201t-191 69q-260 0 -316 -282l-35 -19l-129 21q29 213 157 323q129 110 325 109q196 0 314 -110t118 -289q0 -307 -363 -689l-131 -137q-47 -49 -108 -108l2 -2q70 2 196 2h385v-156h-909z" />
    <glyph glyph-name="three.tf" horiz-adv-x="1433" 
d="M1190 397q0 -193 -128 -315t-333 -121q-205 0 -333 110t-150 306l131 20l35 -16q14 -123 101 -196t218 -73t209 78q78 76 78 205q0 291 -328 291h-51v139h47q307 0 307 273q1 108 -71 174t-190 66t-192 -64q-74 -63 -98 -180l-34 -15l-132 19q25 180 149 285
q123 105 313 105t310 -104t119 -272q1 -131 -67 -228t-189 -130q129 -23 204 -120t75 -237z" />
    <glyph glyph-name="four.tf" horiz-adv-x="1433" 
d="M870 467v315q0 240 27 377h-4q-61 -113 -105 -170l-387 -522h469zM870 0v311h-733v58l824 1108h79v-1010h172v-156h-172v-311h-170z" />
    <glyph glyph-name="five.tf" horiz-adv-x="1433" 
d="M1217 460q-1 -214 -137 -356t-346 -143q-210 1 -337 105t-147 284l135 23l35 -21q16 -115 96 -177t218 -62t224 94t86 248q0 153 -90 243t-256 90t-311 -110l-45 12l47 760h721v-156h-571l-27 -420q123 53 260 54q197 0 321 -127t124 -341z" />
    <glyph glyph-name="six.tf" horiz-adv-x="1433" 
d="M716 109q138 0 222 90t84 235q0 144 -83 232t-224 88t-223 -87t-82 -235t84 -236q84 -87 222 -87zM708 -39q-218 0 -344 129t-126 350q0 123 60 254t220 357l318 446l131 -76l4 -24l-205 -275q-125 -168 -240 -295l4 -2q111 72 236 72q190 0 309 -126t119 -336t-134 -342
t-352 -132z" />
    <glyph glyph-name="seven.tf" horiz-adv-x="1433" 
d="M330 1294v156h927v-37l-692 -1450l-37 -4l-114 53l614 1282h-698z" />
    <glyph glyph-name="eight.tf" horiz-adv-x="1433" 
d="M717 106q145 0 226 78t81 215t-82 218t-225 81t-225 -81t-82 -218t81 -215t226 -78zM715 864q123 0 189 65t67 179q0 114 -69 182q-70 66 -188 66t-187 -67t-69 -181t68 -180q66 -64 189 -64zM717 -39q-227 0 -352 115t-125 309q0 145 77 248q78 102 218 141
q-242 82 -242 344q0 164 114 267q115 103 311 103t310 -102q114 -104 113 -268q0 -262 -242 -344q139 -39 217 -141t78 -248q0 -195 -125 -309t-352 -115z" />
    <glyph glyph-name="nine.tf" horiz-adv-x="1433" 
d="M719 698q141 0 222 89t81 235t-83 233q-83 88 -221 88t-223 -89q-85 -90 -85 -236t84 -233t225 -87zM668 555q-190 0 -311 127q-119 127 -119 338t132 341t354 130t347 -129t125 -348q0 -140 -68 -274t-215 -339l-317 -446l-131 76l-4 24l205 275q137 180 239 295l-4 2
q-109 -72 -233 -72z" />
    <glyph glyph-name="zero.dnom" 
d="M389 90q80 0 125 85t45 237t-45 236t-125 83q-80 0 -125 -84q-45 -83 -45 -235t45 -237t125 -85zM389 -39q-147 0 -231 120t-84 330q0 209 84 329t231 120t231 -120t85 -330q-1 -210 -85 -329q-84 -120 -231 -120z" />
    <glyph glyph-name="one.dnom" 
d="M344 0v582q0 63 8 106l-4 2q-45 -29 -69 -43l-99 -57l-14 4l12 143l268 133h39v-870h-141z" />
    <glyph glyph-name="two.dnom" 
d="M72 0v25l223 239q213 229 213 354q0 60 -35 96t-96 36q-129 0 -158 -152l-22 -10l-115 18q41 270 309 271q117 0 190 -68t72 -176q0 -182 -194 -383l-64 -66q-16 -16 -69 -63v-2q68 6 127 6h192v-125h-573z" />
    <glyph glyph-name="three.dnom" 
d="M670 202q0 -98 -80 -170t-209 -71q-129 0 -208 66t-93 186l121 20l20 -8q8 -65 51 -103t110 -38q68 0 106 39t38 106q0 145 -166 146h-30v102h24q162 0 162 137q0 55 -36 89t-95 34q-123 0 -149 -125l-21 -8l-117 19q20 111 100 174t196 63q118 0 191 -63t73 -151
q-1 -172 -150 -218q76 -14 119 -72q43 -56 43 -154z" />
    <glyph glyph-name="four.dnom" 
d="M469 299v158q0 131 14 213h-2q-39 -76 -65 -111l-191 -260h244zM467 0v174h-424v74l449 616h114v-565h101v-125h-101v-174h-139z" />
    <glyph glyph-name="five.dnom" 
d="M387 -39q-133 -1 -211 61t-92 175l121 22l22 -12q16 -123 156 -123q72 0 115 47t43 126t-46 125q-47 46 -143 46t-184 -63l-33 8l31 465h455v-123h-334l-13 -207q70 29 142 29q122 0 196 -76t74 -204t-83 -212t-216 -84z" />
    <glyph glyph-name="six.dnom" 
d="M376 84q70 0 112 47t42 122t-41 120t-113 45t-116 -45q-43 -45 -43 -121t44 -122t115 -46zM372 -39q-138 0 -218 80t-80 217q0 76 39 155t137 214l182 247l107 -61l4 -18l-111 -146q-82 -106 -141 -160l2 -2q66 39 133 39q114 0 182 -74t68 -201q0 -128 -83 -209
t-221 -81z" />
    <glyph glyph-name="seven.dnom" 
d="M109 711v125h587v-23l-405 -848l-27 -6l-104 43l340 709h-391z" />
    <glyph glyph-name="eight.dnom" 
d="M233 226q0 -70 41 -110t114 -40t114 40t41 110t-42 114q-42 43 -114 43t-113 -43t-41 -114zM258 623q0 -59 34 -92t94 -33t94 32t34 92t-35 95t-94 35t-93 -35t-34 -94zM387 -39q-141 0 -219 69t-78 185q0 172 172 223q-141 49 -141 199q0 99 72 161q73 62 195 62
t195 -62t72 -161q0 -147 -141 -199q172 -51 172 -223q0 -117 -79 -185t-220 -69z" />
    <glyph glyph-name="nine.dnom" 
d="M391 406q72 0 114 46t42 120t-42 120q-42 45 -113 45q-70 0 -114 -46t-44 -121q0 -76 42 -120q43 -44 115 -44zM342 295q-112 0 -182 75q-70 74 -70 202t83 208t222 80t218 -80t79 -215q0 -84 -42 -166t-132 -204l-184 -248l-107 63l-4 17l113 147q78 102 141 158l-2 2
q-66 -39 -133 -39z" />
    <glyph glyph-name="zero.numr" 
d="M389 705q80 0 125 85q45 84 45 236t-45 236t-125 84t-125 -84t-45 -236t45 -236t125 -85zM389 575q-147 0 -231 120t-84 330t84 330t231 120t231 -120t85 -330q-1 -210 -85 -330t-231 -120z" />
    <glyph glyph-name="one.numr" 
d="M344 614v582q0 63 8 107l-4 2q-45 -29 -69 -43l-99 -58l-14 4l12 144l268 133h39v-871h-141z" />
    <glyph glyph-name="two.numr" 
d="M72 614v25l223 240q213 229 213 354q0 61 -35 96t-96 35q-129 0 -158 -152l-22 -10l-115 19q41 270 309 270q117 0 190 -68t72 -176q0 -182 -194 -383l-64 -65q-16 -16 -69 -64v-2q68 6 127 6h192v-125h-573z" />
    <glyph glyph-name="three.numr" 
d="M670 816q0 -98 -80 -170t-209 -71q-129 0 -208 66t-93 186l121 21l20 -8q8 -66 51 -104t110 -38q68 0 106 39t38 107q0 145 -166 145h-30v103h24q162 0 162 137q0 55 -36 89t-95 34q-123 0 -149 -125l-21 -8l-117 18q20 111 100 174t196 63q118 0 191 -62q73 -64 73 -152
q-1 -172 -150 -218q76 -14 119 -71t43 -155z" />
    <glyph glyph-name="four.numr" 
d="M469 913v158q0 131 14 213h-2q-39 -76 -65 -110l-191 -261h244zM467 614v174h-424v74l449 617h114v-566h101v-125h-101v-174h-139z" />
    <glyph glyph-name="five.numr" 
d="M416 1151q122 0 196 -76q74 -75 74 -203t-83 -212t-216 -85t-211 61t-92 175l121 23l22 -13q16 -123 156 -123q72 0 115 47t43 126t-46 125q-47 46 -143 46t-184 -63l-33 8l31 465h455v-123h-334l-13 -207q70 29 142 29z" />
    <glyph glyph-name="six.numr" 
d="M376 698q70 0 112 47t42 122t-41 120t-113 45t-116 -45q-43 -45 -43 -121t44 -122t115 -46zM372 575q-138 0 -218 80t-80 217q0 76 39 155t137 214l182 248l107 -62l4 -18l-111 -145q-82 -106 -141 -160l2 -2q66 39 133 39q114 0 182 -74t68 -202t-83 -209t-221 -81z" />
    <glyph glyph-name="seven.numr" 
d="M109 1325v125h587v-23l-405 -847l-27 -7l-104 43l340 709h-391z" />
    <glyph glyph-name="eight.numr" 
d="M388 690q73 0 114 40t41 111t-42 113t-114 43q-72 0 -113 -43q-41 -44 -41 -114t41 -110t114 -40zM386 1112q60 0 94 33t34 92t-35 94t-94 35t-93 -35t-34 -94t34 -92t94 -33zM387 575q-141 0 -219 69t-78 185q0 172 172 224q-141 49 -141 198q0 99 72 161q73 62 195 62
t195 -62t72 -161q0 -147 -141 -198q172 -51 172 -224q0 -117 -79 -185t-220 -69z" />
    <glyph glyph-name="nine.numr" 
d="M391 1020q72 0 114 46t42 121t-42 120t-113 45q-70 0 -114 -46t-44 -121t42 -120q43 -45 115 -45zM342 909q-112 0 -182 75t-70 203t83 208t222 80t218 -80t79 -215q0 -84 -42 -166t-132 -205l-184 -248l-107 64l-4 16l113 147q78 102 141 158l-2 2q-66 -39 -133 -39z
" />
    <glyph glyph-name="periodcentered.case" horiz-adv-x="569" 
d="M285 625q-49 1 -84 35t-35 83t35 84t84 35t84 -35t35 -84t-35 -84q-35 -34 -84 -34z" />
    <glyph glyph-name="exclamdown.case" horiz-adv-x="651" 
d="M250 1057h151l9 -1057h-168zM326 1470q51 0 85 -34q33 -34 33 -84q0 -49 -34 -84t-84 -35q-49 0 -84 35t-35 84q0 50 34 84t85 34z" />
    <glyph glyph-name="questiondown.case" horiz-adv-x="1067" 
d="M540 -39q-170 0 -275 96q-105 95 -105 233t42 222t141 166t127 131t30 141l2 107h151l2 -109q2 -190 -166 -336q-100 -86 -133 -147q-32 -61 -32 -151t62 -151q62 -60 163 -61q217 0 258 217l33 13l129 -23q-31 -164 -145 -256t-284 -92zM567 1470q49 0 84 -34t35 -84
q0 -49 -35 -84t-84 -35t-84 35t-34 84q0 49 34 84q35 34 84 34z" />
    <glyph glyph-name="braceleft.case" horiz-adv-x="679" 
d="M10 795h15q75 0 115 59t40 168v375q0 121 62 189t176 67h129v-127h-98q-117 0 -117 -170v-346q0 -119 -52 -192t-130 -83v-4q78 -10 130 -83t52 -191v-346q0 -170 117 -170h98v-127h-129q-113 0 -175 68t-63 188v374q0 109 -41 168t-114 60h-15v123z" />
    <glyph glyph-name="braceright.case" horiz-adv-x="679" 
d="M670 795v-123h-15q-75 0 -115 -60t-40 -168v-374q0 -121 -62 -189t-176 -67h-129v127h98q117 0 117 170v346q0 119 52 191t130 83v4q-78 10 -130 83t-52 192v346q0 170 -117 170h-98v127h129q113 0 175 -68t63 -188v-375q0 -109 41 -168t114 -59h15z" />
    <glyph glyph-name="bracketleft.case" horiz-adv-x="628" 
d="M123 -186v1839h352v-127h-201v-1585h201v-127h-352z" />
    <glyph glyph-name="bracketright.case" horiz-adv-x="624" 
d="M502 -186h-352v127h200v1585h-200v127h352v-1839z" />
    <glyph glyph-name="parenleft.case" horiz-adv-x="624" 
d="M72 734q0 246 80 490q80 245 219 429l121 -78q-127 -180 -198 -401q-71 -220 -71 -440t71 -441t198 -402l-121 -77q-139 184 -219 429t-80 491z" />
    <glyph glyph-name="parenright.case" horiz-adv-x="686" 
d="M553 733q0 -247 -80 -491t-219 -428l-121 77q127 179 198 401t70 441t-71 441t-197 401l121 78q139 -184 219 -429t80 -491z" />
    <glyph glyph-name="emdash.case" horiz-adv-x="1576" 
d="M61 530v138h1455v-138h-1455z" />
    <glyph glyph-name="endash.case" horiz-adv-x="1024" 
d="M61 530v138h902v-138h-902z" />
    <glyph glyph-name="hyphen.case" horiz-adv-x="655" 
d="M94 530v138h467v-138h-467z" />
    <glyph glyph-name="uni00AD.case" horiz-adv-x="655" 
d="M94 530v138h467v-138h-467z" />
    <glyph glyph-name="guillemotleft.case" horiz-adv-x="952" 
d="M731 205l-270 395l270 395l86 -61l2 -10l-211 -324l211 -324l-2 -10zM383 205l-270 395l270 395l86 -61l2 -10l-211 -324l211 -324l-2 -10z" />
    <glyph glyph-name="guillemotright.case" horiz-adv-x="952" 
d="M569 205l-86 61l-2 10l211 324l-211 324l2 10l86 61l271 -395zM221 205l-86 61l-2 10l211 324l-211 324l2 10l86 61l271 -395z" />
    <glyph glyph-name="guilsinglleft.case" horiz-adv-x="604" 
d="M383 205l-270 395l270 395l86 -61l2 -10l-211 -324l211 -324l-2 -10z" />
    <glyph glyph-name="guilsinglright.case" horiz-adv-x="604" 
d="M221 205l-86 61l-2 10l211 324l-211 324l2 10l86 61l271 -395z" />
    <glyph glyph-name="at.case" horiz-adv-x="1851" 
d="M850 377q114 0 192 103t78 255q0 101 -48 159t-145 58t-172 -104t-75 -254q0 -96 47 -156t123 -61zM942 -158q-375 0 -600 224t-225 586q-1 364 237 600t589 237q351 0 568 -197t218 -512q0 -232 -120 -380t-311 -148q-84 0 -138 46t-54 120q-39 -74 -114 -120t-156 -46
q-139 0 -225 96q-85 96 -85 256q0 203 121 340t299 137q74 0 136 -38t89 -101l21 98h133l-76 -387q-27 -129 -26 -170q0 -106 106 -106q106 -1 179 111t73 274q0 274 -171 433t-466 159t-486 -197q-192 -197 -192 -507t188 -493t504 -180q138 1 230 21t205 72l14 -4l53 -111
q-190 -113 -518 -113z" />
    <glyph glyph-name="uni0308.case" horiz-adv-x="0" 
d="M-266 1729q0 47 33.5 80.5t79.5 33.5t79 -32.5t33 -80.5t-31.5 -80t-80 -32t-81 32t-32.5 79zM-672 1729q0 47 35 80.5t80 33.5t78 -32.5t33 -80.5t-31 -80t-80 -32t-82 32t-33 79z" />
    <glyph glyph-name="uni0307.case" horiz-adv-x="0" 
d="M-176 1595q-47 0 -81 33t-34 81t34 82t81 34t81 -35t34 -82t-34 -80t-81 -33z" />
    <glyph glyph-name="gravecomb.case" horiz-adv-x="0" 
d="M-199 1565l-245 260l8 14h172l192 -274h-127z" />
    <glyph glyph-name="acutecomb.case" horiz-adv-x="0" 
d="M-432 1565l188 274h172l9 -14l-242 -260h-127z" />
    <glyph glyph-name="uni030B.case" horiz-adv-x="0" 
d="M-395 1565l186 274h172l8 -14l-239 -260h-127zM-727 1565l186 274h172l9 -14l-240 -260h-127z" />
    <glyph glyph-name="uni0302.case" horiz-adv-x="0" 
d="M-375 1765l-170 -200h-121l-10 16l211 258h180l211 -258l-10 -16h-121z" />
    <glyph glyph-name="uni030C.case" horiz-adv-x="0" 
d="M-457 1565l-196 258l10 16h121l155 -201l154 201h121l10 -16l-194 -258h-181z" />
    <glyph glyph-name="uni0306.case" horiz-adv-x="0" 
d="M-362.5 1567q-139.5 0 -227.5 71.5t-96 190.5l14 14h115q33 -141 194.5 -141t194.5 141h115l14 -14q-8 -119 -96 -190.5t-227.5 -71.5z" />
    <glyph glyph-name="uni030A.case" horiz-adv-x="0" 
d="M-258 1624q51 0 84 34t33 83t-33 83t-84 34t-84 -34t-33 -83t33 -83t84 -34zM-258 1546q-82 0 -139.5 56.5t-57.5 138.5t57.5 138t139.5 56t139.5 -56t57.5 -138t-57.5 -138.5t-139.5 -56.5z" />
    <glyph glyph-name="tildecomb.case" horiz-adv-x="0" 
d="M-237.5 1581q-65.5 0 -162 51t-132.5 51q-55 0 -76 -90l-15 -12h-108q14 106 67.5 170t114.5 64t162.5 -51.5t136.5 -51.5q55 0 76 90l14 13h109q-14 -106 -67.5 -170t-119 -64z" />
    <glyph glyph-name="uni0304.case" horiz-adv-x="0" 
d="M-614 1636v142h553v-142h-553z" />
    <glyph glyph-name="caron.alt" horiz-adv-x="464" 
d="M197 1028l-111 43l143 410l21 8l139 -55z" />
    <glyph glyph-name="NULL" horiz-adv-x="1228" 
 />
    </font>
</defs>
</svg>
